<?xml version="1.0" encoding="utf-8" standalone="no"?>
<!DOCTYPE svg PUBLIC "-//W3C//DTD SVG 1.1//EN"
  "http://www.w3.org/Graphics/SVG/1.1/DTD/svg11.dtd">
<svg xmlns:xlink="http://www.w3.org/1999/xlink" width="790.756058pt" height="401.346875pt" viewBox="0 0 790.756058 401.346875" xmlns="http://www.w3.org/2000/svg" version="1.1">
 <metadata>
  <rdf:RDF xmlns:dc="http://purl.org/dc/elements/1.1/" xmlns:cc="http://creativecommons.org/ns#" xmlns:rdf="http://www.w3.org/1999/02/22-rdf-syntax-ns#">
   <cc:Work>
    <dc:type rdf:resource="http://purl.org/dc/dcmitype/StillImage"/>
    <dc:date>2023-05-11T19:41:04.336221</dc:date>
    <dc:format>image/svg+xml</dc:format>
    <dc:creator>
     <cc:Agent>
      <dc:title>Matplotlib v3.7.1, https://matplotlib.org/</dc:title>
     </cc:Agent>
    </dc:creator>
   </cc:Work>
  </rdf:RDF>
 </metadata>
 <defs>
  <style type="text/css">*{stroke-linejoin: round; stroke-linecap: butt}</style>
 </defs>
 <g id="figure_1">
  <g id="patch_1">
   <path d="M 0 401.346875 
L 790.756058 401.346875 
L 790.756058 0 
L 0 0 
z
" style="fill: #ffffff"/>
  </g>
  <g id="axes_1">
   <g id="patch_2">
    <path d="M 333.66625 358.0275 
L 780.06625 358.0275 
L 780.06625 25.3875 
L 333.66625 25.3875 
z
" style="fill: #ffffff"/>
   </g>
   <g id="matplotlib.axis_1">
    <g id="xtick_1">
     <g id="line2d_1">
      <path d="M 333.66625 358.0275 
L 333.66625 25.3875 
" clip-path="url(#pbad8d850fa)" style="fill: none; stroke: #cccccc; stroke-width: 0.8; stroke-linecap: round"/>
     </g>
     <g id="line2d_2">
      <defs>
       <path id="ma13718ef83" d="M 0 0 
L 0 5 
" style="stroke: #262626; stroke-width: 0.8"/>
      </defs>
      <g>
       <use xlink:href="#ma13718ef83" x="333.66625" y="358.0275" style="fill: #262626; stroke: #262626; stroke-width: 0.8"/>
      </g>
     </g>
     <g id="text_1">
      <!-- 0 -->
      <g style="fill: #262626" transform="translate(330.051641 375.832656) scale(0.13 -0.13)">
       <defs>
        <path id="ArialMT-30" d="M 266 2259 
Q 266 3072 433 3567 
Q 600 4063 929 4331 
Q 1259 4600 1759 4600 
Q 2128 4600 2406 4451 
Q 2684 4303 2865 4023 
Q 3047 3744 3150 3342 
Q 3253 2941 3253 2259 
Q 3253 1453 3087 958 
Q 2922 463 2592 192 
Q 2263 -78 1759 -78 
Q 1097 -78 719 397 
Q 266 969 266 2259 
z
M 844 2259 
Q 844 1131 1108 757 
Q 1372 384 1759 384 
Q 2147 384 2411 759 
Q 2675 1134 2675 2259 
Q 2675 3391 2411 3762 
Q 2147 4134 1753 4134 
Q 1366 4134 1134 3806 
Q 844 3388 844 2259 
z
" transform="scale(0.015625)"/>
       </defs>
       <use xlink:href="#ArialMT-30"/>
      </g>
     </g>
    </g>
    <g id="xtick_2">
     <g id="line2d_3">
      <path d="M 406.84058 358.0275 
L 406.84058 25.3875 
" clip-path="url(#pbad8d850fa)" style="fill: none; stroke: #cccccc; stroke-width: 0.8; stroke-linecap: round"/>
     </g>
     <g id="line2d_4">
      <g>
       <use xlink:href="#ma13718ef83" x="406.84058" y="358.0275" style="fill: #262626; stroke: #262626; stroke-width: 0.8"/>
      </g>
     </g>
     <g id="text_2">
      <!-- 100 -->
      <g style="fill: #262626" transform="translate(395.996752 375.832656) scale(0.13 -0.13)">
       <defs>
        <path id="ArialMT-31" d="M 2384 0 
L 1822 0 
L 1822 3584 
Q 1619 3391 1289 3197 
Q 959 3003 697 2906 
L 697 3450 
Q 1169 3672 1522 3987 
Q 1875 4303 2022 4600 
L 2384 4600 
L 2384 0 
z
" transform="scale(0.015625)"/>
       </defs>
       <use xlink:href="#ArialMT-31"/>
       <use xlink:href="#ArialMT-30" x="55.615234"/>
       <use xlink:href="#ArialMT-30" x="111.230469"/>
      </g>
     </g>
    </g>
    <g id="xtick_3">
     <g id="line2d_5">
      <path d="M 480.01491 358.0275 
L 480.01491 25.3875 
" clip-path="url(#pbad8d850fa)" style="fill: none; stroke: #cccccc; stroke-width: 0.8; stroke-linecap: round"/>
     </g>
     <g id="line2d_6">
      <g>
       <use xlink:href="#ma13718ef83" x="480.01491" y="358.0275" style="fill: #262626; stroke: #262626; stroke-width: 0.8"/>
      </g>
     </g>
     <g id="text_3">
      <!-- 200 -->
      <g style="fill: #262626" transform="translate(469.171082 375.832656) scale(0.13 -0.13)">
       <defs>
        <path id="ArialMT-32" d="M 3222 541 
L 3222 0 
L 194 0 
Q 188 203 259 391 
Q 375 700 629 1000 
Q 884 1300 1366 1694 
Q 2113 2306 2375 2664 
Q 2638 3022 2638 3341 
Q 2638 3675 2398 3904 
Q 2159 4134 1775 4134 
Q 1369 4134 1125 3890 
Q 881 3647 878 3216 
L 300 3275 
Q 359 3922 746 4261 
Q 1134 4600 1788 4600 
Q 2447 4600 2831 4234 
Q 3216 3869 3216 3328 
Q 3216 3053 3103 2787 
Q 2991 2522 2730 2228 
Q 2469 1934 1863 1422 
Q 1356 997 1212 845 
Q 1069 694 975 541 
L 3222 541 
z
" transform="scale(0.015625)"/>
       </defs>
       <use xlink:href="#ArialMT-32"/>
       <use xlink:href="#ArialMT-30" x="55.615234"/>
       <use xlink:href="#ArialMT-30" x="111.230469"/>
      </g>
     </g>
    </g>
    <g id="xtick_4">
     <g id="line2d_7">
      <path d="M 553.18924 358.0275 
L 553.18924 25.3875 
" clip-path="url(#pbad8d850fa)" style="fill: none; stroke: #cccccc; stroke-width: 0.8; stroke-linecap: round"/>
     </g>
     <g id="line2d_8">
      <g>
       <use xlink:href="#ma13718ef83" x="553.18924" y="358.0275" style="fill: #262626; stroke: #262626; stroke-width: 0.8"/>
      </g>
     </g>
     <g id="text_4">
      <!-- 300 -->
      <g style="fill: #262626" transform="translate(542.345412 375.832656) scale(0.13 -0.13)">
       <defs>
        <path id="ArialMT-33" d="M 269 1209 
L 831 1284 
Q 928 806 1161 595 
Q 1394 384 1728 384 
Q 2125 384 2398 659 
Q 2672 934 2672 1341 
Q 2672 1728 2419 1979 
Q 2166 2231 1775 2231 
Q 1616 2231 1378 2169 
L 1441 2663 
Q 1497 2656 1531 2656 
Q 1891 2656 2178 2843 
Q 2466 3031 2466 3422 
Q 2466 3731 2256 3934 
Q 2047 4138 1716 4138 
Q 1388 4138 1169 3931 
Q 950 3725 888 3313 
L 325 3413 
Q 428 3978 793 4289 
Q 1159 4600 1703 4600 
Q 2078 4600 2393 4439 
Q 2709 4278 2876 4000 
Q 3044 3722 3044 3409 
Q 3044 3113 2884 2869 
Q 2725 2625 2413 2481 
Q 2819 2388 3044 2092 
Q 3269 1797 3269 1353 
Q 3269 753 2831 336 
Q 2394 -81 1725 -81 
Q 1122 -81 723 278 
Q 325 638 269 1209 
z
" transform="scale(0.015625)"/>
       </defs>
       <use xlink:href="#ArialMT-33"/>
       <use xlink:href="#ArialMT-30" x="55.615234"/>
       <use xlink:href="#ArialMT-30" x="111.230469"/>
      </g>
     </g>
    </g>
    <g id="xtick_5">
     <g id="line2d_9">
      <path d="M 626.36357 358.0275 
L 626.36357 25.3875 
" clip-path="url(#pbad8d850fa)" style="fill: none; stroke: #cccccc; stroke-width: 0.8; stroke-linecap: round"/>
     </g>
     <g id="line2d_10">
      <g>
       <use xlink:href="#ma13718ef83" x="626.36357" y="358.0275" style="fill: #262626; stroke: #262626; stroke-width: 0.8"/>
      </g>
     </g>
     <g id="text_5">
      <!-- 400 -->
      <g style="fill: #262626" transform="translate(615.519742 375.832656) scale(0.13 -0.13)">
       <defs>
        <path id="ArialMT-34" d="M 2069 0 
L 2069 1097 
L 81 1097 
L 81 1613 
L 2172 4581 
L 2631 4581 
L 2631 1613 
L 3250 1613 
L 3250 1097 
L 2631 1097 
L 2631 0 
L 2069 0 
z
M 2069 1613 
L 2069 3678 
L 634 1613 
L 2069 1613 
z
" transform="scale(0.015625)"/>
       </defs>
       <use xlink:href="#ArialMT-34"/>
       <use xlink:href="#ArialMT-30" x="55.615234"/>
       <use xlink:href="#ArialMT-30" x="111.230469"/>
      </g>
     </g>
    </g>
    <g id="xtick_6">
     <g id="line2d_11">
      <path d="M 699.5379 358.0275 
L 699.5379 25.3875 
" clip-path="url(#pbad8d850fa)" style="fill: none; stroke: #cccccc; stroke-width: 0.8; stroke-linecap: round"/>
     </g>
     <g id="line2d_12">
      <g>
       <use xlink:href="#ma13718ef83" x="699.5379" y="358.0275" style="fill: #262626; stroke: #262626; stroke-width: 0.8"/>
      </g>
     </g>
     <g id="text_6">
      <!-- 500 -->
      <g style="fill: #262626" transform="translate(688.694072 375.832656) scale(0.13 -0.13)">
       <defs>
        <path id="ArialMT-35" d="M 266 1200 
L 856 1250 
Q 922 819 1161 601 
Q 1400 384 1738 384 
Q 2144 384 2425 690 
Q 2706 997 2706 1503 
Q 2706 1984 2436 2262 
Q 2166 2541 1728 2541 
Q 1456 2541 1237 2417 
Q 1019 2294 894 2097 
L 366 2166 
L 809 4519 
L 3088 4519 
L 3088 3981 
L 1259 3981 
L 1013 2750 
Q 1425 3038 1878 3038 
Q 2478 3038 2890 2622 
Q 3303 2206 3303 1553 
Q 3303 931 2941 478 
Q 2500 -78 1738 -78 
Q 1113 -78 717 272 
Q 322 622 266 1200 
z
" transform="scale(0.015625)"/>
       </defs>
       <use xlink:href="#ArialMT-35"/>
       <use xlink:href="#ArialMT-30" x="55.615234"/>
       <use xlink:href="#ArialMT-30" x="111.230469"/>
      </g>
     </g>
    </g>
    <g id="xtick_7">
     <g id="line2d_13">
      <path d="M 772.71223 358.0275 
L 772.71223 25.3875 
" clip-path="url(#pbad8d850fa)" style="fill: none; stroke: #cccccc; stroke-width: 0.8; stroke-linecap: round"/>
     </g>
     <g id="line2d_14">
      <g>
       <use xlink:href="#ma13718ef83" x="772.71223" y="358.0275" style="fill: #262626; stroke: #262626; stroke-width: 0.8"/>
      </g>
     </g>
     <g id="text_7">
      <!-- 600 -->
      <g style="fill: #262626" transform="translate(761.868402 375.832656) scale(0.13 -0.13)">
       <defs>
        <path id="ArialMT-36" d="M 3184 3459 
L 2625 3416 
Q 2550 3747 2413 3897 
Q 2184 4138 1850 4138 
Q 1581 4138 1378 3988 
Q 1113 3794 959 3422 
Q 806 3050 800 2363 
Q 1003 2672 1297 2822 
Q 1591 2972 1913 2972 
Q 2475 2972 2870 2558 
Q 3266 2144 3266 1488 
Q 3266 1056 3080 686 
Q 2894 316 2569 119 
Q 2244 -78 1831 -78 
Q 1128 -78 684 439 
Q 241 956 241 2144 
Q 241 3472 731 4075 
Q 1159 4600 1884 4600 
Q 2425 4600 2770 4297 
Q 3116 3994 3184 3459 
z
M 888 1484 
Q 888 1194 1011 928 
Q 1134 663 1356 523 
Q 1578 384 1822 384 
Q 2178 384 2434 671 
Q 2691 959 2691 1453 
Q 2691 1928 2437 2201 
Q 2184 2475 1800 2475 
Q 1419 2475 1153 2201 
Q 888 1928 888 1484 
z
" transform="scale(0.015625)"/>
       </defs>
       <use xlink:href="#ArialMT-36"/>
       <use xlink:href="#ArialMT-30" x="55.615234"/>
       <use xlink:href="#ArialMT-30" x="111.230469"/>
      </g>
     </g>
    </g>
    <g id="text_8">
     <!-- 计数 -->
     <g style="fill: #262626" transform="translate(543.86625 392.521875) scale(0.13 -0.13)">
      <defs>
       <path id="SimHei-8ba1" d="M 3925 3100 
L 3925 4350 
Q 3925 4850 3900 5125 
L 4425 5125 
Q 4400 4800 4400 4550 
L 4400 3100 
L 5425 3100 
Q 5725 3100 6075 3125 
L 6075 2650 
Q 5700 2675 5450 2675 
L 4400 2675 
L 4400 175 
Q 4400 -125 4425 -550 
L 3900 -550 
Q 3925 -125 3925 150 
L 3925 2675 
L 2950 2675 
Q 2575 2675 2200 2650 
L 2200 3125 
Q 2575 3100 2900 3100 
L 3925 3100 
z
M 1775 3150 
Q 1750 2675 1750 2150 
L 1750 625 
Q 2175 1050 2425 1400 
Q 2575 1200 2775 1000 
L 2075 300 
Q 1750 -25 1450 -350 
Q 1275 -125 1125 50 
Q 1300 250 1275 650 
L 1275 2725 
Q 600 2725 275 2700 
L 275 3175 
Q 675 3150 825 3150 
L 1775 3150 
z
M 1150 5050 
Q 1475 4725 2175 4000 
Q 1950 3800 1750 3625 
Q 1425 4100 775 4750 
Q 950 4875 1150 5050 
z
" transform="scale(0.015625)"/>
       <path id="SimHei-6570" d="M 4525 4925 
Q 4475 4800 4400 4587 
Q 4325 4375 4175 3825 
L 5325 3825 
Q 5575 3825 5925 3850 
L 5925 3400 
Q 5650 3425 5500 3425 
Q 5500 3025 5362 2162 
Q 5225 1300 4875 675 
Q 5125 375 5437 137 
Q 5750 -100 6025 -200 
Q 5725 -425 5625 -625 
Q 5325 -450 5075 -225 
Q 4825 0 4575 325 
Q 4300 25 3987 -187 
Q 3675 -400 3200 -650 
Q 3075 -425 2850 -300 
Q 3225 -150 3650 125 
Q 4075 400 4300 675 
Q 4125 1025 3962 1425 
Q 3800 1825 3675 2475 
Q 3600 2275 3425 1950 
Q 3250 2050 3000 2150 
Q 3400 2850 3650 3675 
Q 3900 4500 3975 5100 
Q 4275 4975 4525 4925 
z
M 2100 2250 
Q 2000 2150 1875 1925 
L 3250 1925 
Q 3100 1300 2725 675 
Q 3125 525 3350 400 
Q 3225 225 3125 25 
Q 2900 175 2450 325 
Q 1950 -225 725 -650 
Q 600 -375 400 -275 
Q 1575 0 2000 475 
Q 1300 650 850 775 
Q 1000 1000 1250 1525 
Q 1000 1525 425 1500 
L 425 1950 
Q 900 1925 1400 1925 
Q 1500 2150 1550 2425 
Q 1825 2325 2100 2250 
z
M 1775 3950 
Q 1775 4550 1750 5100 
L 2250 5100 
Q 2225 4575 2225 3950 
Q 3075 3950 3425 3975 
L 3425 3525 
Q 3075 3550 2225 3550 
Q 2225 2825 2250 2425 
L 1750 2425 
Q 1775 2775 1775 3300 
Q 1650 3100 1300 2787 
Q 950 2475 650 2300 
Q 525 2525 275 2625 
Q 500 2700 875 2975 
Q 1250 3250 1450 3550 
Q 950 3550 500 3525 
L 500 3975 
Q 925 3950 1775 3950 
z
M 3975 3175 
Q 4200 1700 4600 1125 
Q 4850 1700 4937 2287 
Q 5025 2875 5050 3425 
L 4075 3425 
L 3975 3175 
z
M 1450 1000 
Q 1750 925 2275 800 
Q 2475 1050 2650 1525 
L 1725 1525 
Q 1600 1275 1450 1000 
z
M 3325 4825 
Q 3200 4625 3125 4450 
Q 3050 4275 2925 4025 
Q 2725 4125 2525 4175 
Q 2725 4500 2900 5000 
Q 3150 4875 3325 4825 
z
M 2575 3375 
Q 2900 3050 3200 2725 
Q 3050 2600 2875 2425 
Q 2525 2850 2300 3100 
Q 2450 3225 2575 3375 
z
M 925 5000 
Q 1275 4650 1500 4300 
L 1125 4075 
Q 950 4425 600 4725 
Q 825 4875 925 5000 
z
" transform="scale(0.015625)"/>
      </defs>
      <use xlink:href="#SimHei-8ba1"/>
      <use xlink:href="#SimHei-6570" x="100"/>
     </g>
    </g>
   </g>
   <g id="matplotlib.axis_2">
    <g id="ytick_1">
     <g id="line2d_15">
      <path d="M 333.66625 338.7075 
L 780.06625 338.7075 
" clip-path="url(#pbad8d850fa)" style="fill: none; stroke: #cccccc; stroke-width: 0.8; stroke-linecap: round"/>
     </g>
     <g id="line2d_16">
      <defs>
       <path id="m861bc50ac5" d="M 0 0 
L -5 0 
" style="stroke: #262626; stroke-width: 0.8"/>
      </defs>
      <g>
       <use xlink:href="#m861bc50ac5" x="333.66625" y="338.7075" style="fill: #262626; stroke: #262626; stroke-width: 0.8"/>
      </g>
     </g>
     <g id="text_9">
      <!-- Beijing Institute of Technology -->
      <g style="fill: #262626" transform="translate(153.413906 343.439297) scale(0.13 -0.13)">
       <defs>
        <path id="ArialMT-42" d="M 469 0 
L 469 4581 
L 2188 4581 
Q 2713 4581 3030 4442 
Q 3347 4303 3526 4014 
Q 3706 3725 3706 3409 
Q 3706 3116 3547 2856 
Q 3388 2597 3066 2438 
Q 3481 2316 3704 2022 
Q 3928 1728 3928 1328 
Q 3928 1006 3792 729 
Q 3656 453 3456 303 
Q 3256 153 2954 76 
Q 2653 0 2216 0 
L 469 0 
z
M 1075 2656 
L 2066 2656 
Q 2469 2656 2644 2709 
Q 2875 2778 2992 2937 
Q 3109 3097 3109 3338 
Q 3109 3566 3000 3739 
Q 2891 3913 2687 3977 
Q 2484 4041 1991 4041 
L 1075 4041 
L 1075 2656 
z
M 1075 541 
L 2216 541 
Q 2509 541 2628 563 
Q 2838 600 2978 687 
Q 3119 775 3209 942 
Q 3300 1109 3300 1328 
Q 3300 1584 3169 1773 
Q 3038 1963 2805 2039 
Q 2572 2116 2134 2116 
L 1075 2116 
L 1075 541 
z
" transform="scale(0.015625)"/>
        <path id="ArialMT-65" d="M 2694 1069 
L 3275 997 
Q 3138 488 2766 206 
Q 2394 -75 1816 -75 
Q 1088 -75 661 373 
Q 234 822 234 1631 
Q 234 2469 665 2931 
Q 1097 3394 1784 3394 
Q 2450 3394 2872 2941 
Q 3294 2488 3294 1666 
Q 3294 1616 3291 1516 
L 816 1516 
Q 847 969 1125 678 
Q 1403 388 1819 388 
Q 2128 388 2347 550 
Q 2566 713 2694 1069 
z
M 847 1978 
L 2700 1978 
Q 2663 2397 2488 2606 
Q 2219 2931 1791 2931 
Q 1403 2931 1139 2672 
Q 875 2413 847 1978 
z
" transform="scale(0.015625)"/>
        <path id="ArialMT-69" d="M 425 3934 
L 425 4581 
L 988 4581 
L 988 3934 
L 425 3934 
z
M 425 0 
L 425 3319 
L 988 3319 
L 988 0 
L 425 0 
z
" transform="scale(0.015625)"/>
        <path id="ArialMT-6a" d="M 419 3928 
L 419 4581 
L 981 4581 
L 981 3928 
L 419 3928 
z
M -294 -1288 
L -188 -809 
Q -19 -853 78 -853 
Q 250 -853 334 -739 
Q 419 -625 419 -169 
L 419 3319 
L 981 3319 
L 981 -181 
Q 981 -794 822 -1034 
Q 619 -1347 147 -1347 
Q -81 -1347 -294 -1288 
z
" transform="scale(0.015625)"/>
        <path id="ArialMT-6e" d="M 422 0 
L 422 3319 
L 928 3319 
L 928 2847 
Q 1294 3394 1984 3394 
Q 2284 3394 2536 3286 
Q 2788 3178 2913 3003 
Q 3038 2828 3088 2588 
Q 3119 2431 3119 2041 
L 3119 0 
L 2556 0 
L 2556 2019 
Q 2556 2363 2490 2533 
Q 2425 2703 2258 2804 
Q 2091 2906 1866 2906 
Q 1506 2906 1245 2678 
Q 984 2450 984 1813 
L 984 0 
L 422 0 
z
" transform="scale(0.015625)"/>
        <path id="ArialMT-67" d="M 319 -275 
L 866 -356 
Q 900 -609 1056 -725 
Q 1266 -881 1628 -881 
Q 2019 -881 2231 -725 
Q 2444 -569 2519 -288 
Q 2563 -116 2559 434 
Q 2191 0 1641 0 
Q 956 0 581 494 
Q 206 988 206 1678 
Q 206 2153 378 2554 
Q 550 2956 876 3175 
Q 1203 3394 1644 3394 
Q 2231 3394 2613 2919 
L 2613 3319 
L 3131 3319 
L 3131 450 
Q 3131 -325 2973 -648 
Q 2816 -972 2473 -1159 
Q 2131 -1347 1631 -1347 
Q 1038 -1347 672 -1080 
Q 306 -813 319 -275 
z
M 784 1719 
Q 784 1066 1043 766 
Q 1303 466 1694 466 
Q 2081 466 2343 764 
Q 2606 1063 2606 1700 
Q 2606 2309 2336 2618 
Q 2066 2928 1684 2928 
Q 1309 2928 1046 2623 
Q 784 2319 784 1719 
z
" transform="scale(0.015625)"/>
        <path id="ArialMT-20" transform="scale(0.015625)"/>
        <path id="ArialMT-49" d="M 597 0 
L 597 4581 
L 1203 4581 
L 1203 0 
L 597 0 
z
" transform="scale(0.015625)"/>
        <path id="ArialMT-73" d="M 197 991 
L 753 1078 
Q 800 744 1014 566 
Q 1228 388 1613 388 
Q 2000 388 2187 545 
Q 2375 703 2375 916 
Q 2375 1106 2209 1216 
Q 2094 1291 1634 1406 
Q 1016 1563 777 1677 
Q 538 1791 414 1992 
Q 291 2194 291 2438 
Q 291 2659 392 2848 
Q 494 3038 669 3163 
Q 800 3259 1026 3326 
Q 1253 3394 1513 3394 
Q 1903 3394 2198 3281 
Q 2494 3169 2634 2976 
Q 2775 2784 2828 2463 
L 2278 2388 
Q 2241 2644 2061 2787 
Q 1881 2931 1553 2931 
Q 1166 2931 1000 2803 
Q 834 2675 834 2503 
Q 834 2394 903 2306 
Q 972 2216 1119 2156 
Q 1203 2125 1616 2013 
Q 2213 1853 2448 1751 
Q 2684 1650 2818 1456 
Q 2953 1263 2953 975 
Q 2953 694 2789 445 
Q 2625 197 2315 61 
Q 2006 -75 1616 -75 
Q 969 -75 630 194 
Q 291 463 197 991 
z
" transform="scale(0.015625)"/>
        <path id="ArialMT-74" d="M 1650 503 
L 1731 6 
Q 1494 -44 1306 -44 
Q 1000 -44 831 53 
Q 663 150 594 308 
Q 525 466 525 972 
L 525 2881 
L 113 2881 
L 113 3319 
L 525 3319 
L 525 4141 
L 1084 4478 
L 1084 3319 
L 1650 3319 
L 1650 2881 
L 1084 2881 
L 1084 941 
Q 1084 700 1114 631 
Q 1144 563 1211 522 
Q 1278 481 1403 481 
Q 1497 481 1650 503 
z
" transform="scale(0.015625)"/>
        <path id="ArialMT-75" d="M 2597 0 
L 2597 488 
Q 2209 -75 1544 -75 
Q 1250 -75 995 37 
Q 741 150 617 320 
Q 494 491 444 738 
Q 409 903 409 1263 
L 409 3319 
L 972 3319 
L 972 1478 
Q 972 1038 1006 884 
Q 1059 663 1231 536 
Q 1403 409 1656 409 
Q 1909 409 2131 539 
Q 2353 669 2445 892 
Q 2538 1116 2538 1541 
L 2538 3319 
L 3100 3319 
L 3100 0 
L 2597 0 
z
" transform="scale(0.015625)"/>
        <path id="ArialMT-6f" d="M 213 1659 
Q 213 2581 725 3025 
Q 1153 3394 1769 3394 
Q 2453 3394 2887 2945 
Q 3322 2497 3322 1706 
Q 3322 1066 3130 698 
Q 2938 331 2570 128 
Q 2203 -75 1769 -75 
Q 1072 -75 642 372 
Q 213 819 213 1659 
z
M 791 1659 
Q 791 1022 1069 705 
Q 1347 388 1769 388 
Q 2188 388 2466 706 
Q 2744 1025 2744 1678 
Q 2744 2294 2464 2611 
Q 2184 2928 1769 2928 
Q 1347 2928 1069 2612 
Q 791 2297 791 1659 
z
" transform="scale(0.015625)"/>
        <path id="ArialMT-66" d="M 556 0 
L 556 2881 
L 59 2881 
L 59 3319 
L 556 3319 
L 556 3672 
Q 556 4006 616 4169 
Q 697 4388 901 4523 
Q 1106 4659 1475 4659 
Q 1713 4659 2000 4603 
L 1916 4113 
Q 1741 4144 1584 4144 
Q 1328 4144 1222 4034 
Q 1116 3925 1116 3625 
L 1116 3319 
L 1763 3319 
L 1763 2881 
L 1116 2881 
L 1116 0 
L 556 0 
z
" transform="scale(0.015625)"/>
        <path id="ArialMT-54" d="M 1659 0 
L 1659 4041 
L 150 4041 
L 150 4581 
L 3781 4581 
L 3781 4041 
L 2266 4041 
L 2266 0 
L 1659 0 
z
" transform="scale(0.015625)"/>
        <path id="ArialMT-63" d="M 2588 1216 
L 3141 1144 
Q 3050 572 2676 248 
Q 2303 -75 1759 -75 
Q 1078 -75 664 370 
Q 250 816 250 1647 
Q 250 2184 428 2587 
Q 606 2991 970 3192 
Q 1334 3394 1763 3394 
Q 2303 3394 2647 3120 
Q 2991 2847 3088 2344 
L 2541 2259 
Q 2463 2594 2264 2762 
Q 2066 2931 1784 2931 
Q 1359 2931 1093 2626 
Q 828 2322 828 1663 
Q 828 994 1084 691 
Q 1341 388 1753 388 
Q 2084 388 2306 591 
Q 2528 794 2588 1216 
z
" transform="scale(0.015625)"/>
        <path id="ArialMT-68" d="M 422 0 
L 422 4581 
L 984 4581 
L 984 2938 
Q 1378 3394 1978 3394 
Q 2347 3394 2619 3248 
Q 2891 3103 3008 2847 
Q 3125 2591 3125 2103 
L 3125 0 
L 2563 0 
L 2563 2103 
Q 2563 2525 2380 2717 
Q 2197 2909 1863 2909 
Q 1613 2909 1392 2779 
Q 1172 2650 1078 2428 
Q 984 2206 984 1816 
L 984 0 
L 422 0 
z
" transform="scale(0.015625)"/>
        <path id="ArialMT-6c" d="M 409 0 
L 409 4581 
L 972 4581 
L 972 0 
L 409 0 
z
" transform="scale(0.015625)"/>
        <path id="ArialMT-79" d="M 397 -1278 
L 334 -750 
Q 519 -800 656 -800 
Q 844 -800 956 -737 
Q 1069 -675 1141 -563 
Q 1194 -478 1313 -144 
Q 1328 -97 1363 -6 
L 103 3319 
L 709 3319 
L 1400 1397 
Q 1534 1031 1641 628 
Q 1738 1016 1872 1384 
L 2581 3319 
L 3144 3319 
L 1881 -56 
Q 1678 -603 1566 -809 
Q 1416 -1088 1222 -1217 
Q 1028 -1347 759 -1347 
Q 597 -1347 397 -1278 
z
" transform="scale(0.015625)"/>
       </defs>
       <use xlink:href="#ArialMT-42"/>
       <use xlink:href="#ArialMT-65" x="66.699219"/>
       <use xlink:href="#ArialMT-69" x="122.314453"/>
       <use xlink:href="#ArialMT-6a" x="144.53125"/>
       <use xlink:href="#ArialMT-69" x="166.748047"/>
       <use xlink:href="#ArialMT-6e" x="188.964844"/>
       <use xlink:href="#ArialMT-67" x="244.580078"/>
       <use xlink:href="#ArialMT-20" x="300.195312"/>
       <use xlink:href="#ArialMT-49" x="327.978516"/>
       <use xlink:href="#ArialMT-6e" x="355.761719"/>
       <use xlink:href="#ArialMT-73" x="411.376953"/>
       <use xlink:href="#ArialMT-74" x="461.376953"/>
       <use xlink:href="#ArialMT-69" x="489.160156"/>
       <use xlink:href="#ArialMT-74" x="511.376953"/>
       <use xlink:href="#ArialMT-75" x="539.160156"/>
       <use xlink:href="#ArialMT-74" x="594.775391"/>
       <use xlink:href="#ArialMT-65" x="622.558594"/>
       <use xlink:href="#ArialMT-20" x="678.173828"/>
       <use xlink:href="#ArialMT-6f" x="705.957031"/>
       <use xlink:href="#ArialMT-66" x="761.572266"/>
       <use xlink:href="#ArialMT-20" x="789.355469"/>
       <use xlink:href="#ArialMT-54" x="815.388672"/>
       <use xlink:href="#ArialMT-65" x="865.347656"/>
       <use xlink:href="#ArialMT-63" x="920.962891"/>
       <use xlink:href="#ArialMT-68" x="970.962891"/>
       <use xlink:href="#ArialMT-6e" x="1026.578125"/>
       <use xlink:href="#ArialMT-6f" x="1082.193359"/>
       <use xlink:href="#ArialMT-6c" x="1137.808594"/>
       <use xlink:href="#ArialMT-6f" x="1160.025391"/>
       <use xlink:href="#ArialMT-67" x="1215.640625"/>
       <use xlink:href="#ArialMT-79" x="1271.255859"/>
      </g>
     </g>
    </g>
    <g id="ytick_2">
     <g id="line2d_17">
      <path d="M 333.66625 317.7075 
L 780.06625 317.7075 
" clip-path="url(#pbad8d850fa)" style="fill: none; stroke: #cccccc; stroke-width: 0.8; stroke-linecap: round"/>
     </g>
     <g id="line2d_18">
      <g>
       <use xlink:href="#m861bc50ac5" x="333.66625" y="317.7075" style="fill: #262626; stroke: #262626; stroke-width: 0.8"/>
      </g>
     </g>
     <g id="text_10">
      <!-- Harbin Institute of Technology -->
      <g style="fill: #262626" transform="translate(154.145156 322.439297) scale(0.13 -0.13)">
       <defs>
        <path id="ArialMT-48" d="M 513 0 
L 513 4581 
L 1119 4581 
L 1119 2700 
L 3500 2700 
L 3500 4581 
L 4106 4581 
L 4106 0 
L 3500 0 
L 3500 2159 
L 1119 2159 
L 1119 0 
L 513 0 
z
" transform="scale(0.015625)"/>
        <path id="ArialMT-61" d="M 2588 409 
Q 2275 144 1986 34 
Q 1697 -75 1366 -75 
Q 819 -75 525 192 
Q 231 459 231 875 
Q 231 1119 342 1320 
Q 453 1522 633 1644 
Q 813 1766 1038 1828 
Q 1203 1872 1538 1913 
Q 2219 1994 2541 2106 
Q 2544 2222 2544 2253 
Q 2544 2597 2384 2738 
Q 2169 2928 1744 2928 
Q 1347 2928 1158 2789 
Q 969 2650 878 2297 
L 328 2372 
Q 403 2725 575 2942 
Q 747 3159 1072 3276 
Q 1397 3394 1825 3394 
Q 2250 3394 2515 3294 
Q 2781 3194 2906 3042 
Q 3031 2891 3081 2659 
Q 3109 2516 3109 2141 
L 3109 1391 
Q 3109 606 3145 398 
Q 3181 191 3288 0 
L 2700 0 
Q 2613 175 2588 409 
z
M 2541 1666 
Q 2234 1541 1622 1453 
Q 1275 1403 1131 1340 
Q 988 1278 909 1158 
Q 831 1038 831 891 
Q 831 666 1001 516 
Q 1172 366 1500 366 
Q 1825 366 2078 508 
Q 2331 650 2450 897 
Q 2541 1088 2541 1459 
L 2541 1666 
z
" transform="scale(0.015625)"/>
        <path id="ArialMT-72" d="M 416 0 
L 416 3319 
L 922 3319 
L 922 2816 
Q 1116 3169 1280 3281 
Q 1444 3394 1641 3394 
Q 1925 3394 2219 3213 
L 2025 2691 
Q 1819 2813 1613 2813 
Q 1428 2813 1281 2702 
Q 1134 2591 1072 2394 
Q 978 2094 978 1738 
L 978 0 
L 416 0 
z
" transform="scale(0.015625)"/>
        <path id="ArialMT-62" d="M 941 0 
L 419 0 
L 419 4581 
L 981 4581 
L 981 2947 
Q 1338 3394 1891 3394 
Q 2197 3394 2470 3270 
Q 2744 3147 2920 2923 
Q 3097 2700 3197 2384 
Q 3297 2069 3297 1709 
Q 3297 856 2875 390 
Q 2453 -75 1863 -75 
Q 1275 -75 941 416 
L 941 0 
z
M 934 1684 
Q 934 1088 1097 822 
Q 1363 388 1816 388 
Q 2184 388 2453 708 
Q 2722 1028 2722 1663 
Q 2722 2313 2464 2622 
Q 2206 2931 1841 2931 
Q 1472 2931 1203 2611 
Q 934 2291 934 1684 
z
" transform="scale(0.015625)"/>
       </defs>
       <use xlink:href="#ArialMT-48"/>
       <use xlink:href="#ArialMT-61" x="72.216797"/>
       <use xlink:href="#ArialMT-72" x="127.832031"/>
       <use xlink:href="#ArialMT-62" x="161.132812"/>
       <use xlink:href="#ArialMT-69" x="216.748047"/>
       <use xlink:href="#ArialMT-6e" x="238.964844"/>
       <use xlink:href="#ArialMT-20" x="294.580078"/>
       <use xlink:href="#ArialMT-49" x="322.363281"/>
       <use xlink:href="#ArialMT-6e" x="350.146484"/>
       <use xlink:href="#ArialMT-73" x="405.761719"/>
       <use xlink:href="#ArialMT-74" x="455.761719"/>
       <use xlink:href="#ArialMT-69" x="483.544922"/>
       <use xlink:href="#ArialMT-74" x="505.761719"/>
       <use xlink:href="#ArialMT-75" x="533.544922"/>
       <use xlink:href="#ArialMT-74" x="589.160156"/>
       <use xlink:href="#ArialMT-65" x="616.943359"/>
       <use xlink:href="#ArialMT-20" x="672.558594"/>
       <use xlink:href="#ArialMT-6f" x="700.341797"/>
       <use xlink:href="#ArialMT-66" x="755.957031"/>
       <use xlink:href="#ArialMT-20" x="783.740234"/>
       <use xlink:href="#ArialMT-54" x="809.773438"/>
       <use xlink:href="#ArialMT-65" x="859.732422"/>
       <use xlink:href="#ArialMT-63" x="915.347656"/>
       <use xlink:href="#ArialMT-68" x="965.347656"/>
       <use xlink:href="#ArialMT-6e" x="1020.962891"/>
       <use xlink:href="#ArialMT-6f" x="1076.578125"/>
       <use xlink:href="#ArialMT-6c" x="1132.193359"/>
       <use xlink:href="#ArialMT-6f" x="1154.410156"/>
       <use xlink:href="#ArialMT-67" x="1210.025391"/>
       <use xlink:href="#ArialMT-79" x="1265.640625"/>
      </g>
     </g>
    </g>
    <g id="ytick_3">
     <g id="line2d_19">
      <path d="M 333.66625 296.7075 
L 780.06625 296.7075 
" clip-path="url(#pbad8d850fa)" style="fill: none; stroke: #cccccc; stroke-width: 0.8; stroke-linecap: round"/>
     </g>
     <g id="line2d_20">
      <g>
       <use xlink:href="#m861bc50ac5" x="333.66625" y="296.7075" style="fill: #262626; stroke: #262626; stroke-width: 0.8"/>
      </g>
     </g>
     <g id="text_11">
      <!-- Northeastern University -->
      <g style="fill: #262626" transform="translate(189.346719 301.360078) scale(0.13 -0.13)">
       <defs>
        <path id="ArialMT-4e" d="M 488 0 
L 488 4581 
L 1109 4581 
L 3516 984 
L 3516 4581 
L 4097 4581 
L 4097 0 
L 3475 0 
L 1069 3600 
L 1069 0 
L 488 0 
z
" transform="scale(0.015625)"/>
        <path id="ArialMT-55" d="M 3500 4581 
L 4106 4581 
L 4106 1934 
Q 4106 1244 3950 837 
Q 3794 431 3386 176 
Q 2978 -78 2316 -78 
Q 1672 -78 1262 144 
Q 853 366 678 786 
Q 503 1206 503 1934 
L 503 4581 
L 1109 4581 
L 1109 1938 
Q 1109 1341 1220 1058 
Q 1331 775 1601 622 
Q 1872 469 2263 469 
Q 2931 469 3215 772 
Q 3500 1075 3500 1938 
L 3500 4581 
z
" transform="scale(0.015625)"/>
        <path id="ArialMT-76" d="M 1344 0 
L 81 3319 
L 675 3319 
L 1388 1331 
Q 1503 1009 1600 663 
Q 1675 925 1809 1294 
L 2547 3319 
L 3125 3319 
L 1869 0 
L 1344 0 
z
" transform="scale(0.015625)"/>
       </defs>
       <use xlink:href="#ArialMT-4e"/>
       <use xlink:href="#ArialMT-6f" x="72.216797"/>
       <use xlink:href="#ArialMT-72" x="127.832031"/>
       <use xlink:href="#ArialMT-74" x="161.132812"/>
       <use xlink:href="#ArialMT-68" x="188.916016"/>
       <use xlink:href="#ArialMT-65" x="244.53125"/>
       <use xlink:href="#ArialMT-61" x="300.146484"/>
       <use xlink:href="#ArialMT-73" x="355.761719"/>
       <use xlink:href="#ArialMT-74" x="405.761719"/>
       <use xlink:href="#ArialMT-65" x="433.544922"/>
       <use xlink:href="#ArialMT-72" x="489.160156"/>
       <use xlink:href="#ArialMT-6e" x="522.460938"/>
       <use xlink:href="#ArialMT-20" x="578.076172"/>
       <use xlink:href="#ArialMT-55" x="605.859375"/>
       <use xlink:href="#ArialMT-6e" x="678.076172"/>
       <use xlink:href="#ArialMT-69" x="733.691406"/>
       <use xlink:href="#ArialMT-76" x="755.908203"/>
       <use xlink:href="#ArialMT-65" x="805.908203"/>
       <use xlink:href="#ArialMT-72" x="861.523438"/>
       <use xlink:href="#ArialMT-73" x="894.824219"/>
       <use xlink:href="#ArialMT-69" x="944.824219"/>
       <use xlink:href="#ArialMT-74" x="967.041016"/>
       <use xlink:href="#ArialMT-79" x="994.824219"/>
      </g>
     </g>
    </g>
    <g id="ytick_4">
     <g id="line2d_21">
      <path d="M 333.66625 275.7075 
L 780.06625 275.7075 
" clip-path="url(#pbad8d850fa)" style="fill: none; stroke: #cccccc; stroke-width: 0.8; stroke-linecap: round"/>
     </g>
     <g id="line2d_22">
      <g>
       <use xlink:href="#m861bc50ac5" x="333.66625" y="275.7075" style="fill: #262626; stroke: #262626; stroke-width: 0.8"/>
      </g>
     </g>
     <g id="text_12">
      <!-- National University of Defense Technology -->
      <g style="fill: #262626" transform="translate(81.174531 280.439297) scale(0.13 -0.13)">
       <defs>
        <path id="ArialMT-44" d="M 494 0 
L 494 4581 
L 2072 4581 
Q 2606 4581 2888 4516 
Q 3281 4425 3559 4188 
Q 3922 3881 4101 3404 
Q 4281 2928 4281 2316 
Q 4281 1794 4159 1391 
Q 4038 988 3847 723 
Q 3656 459 3429 307 
Q 3203 156 2883 78 
Q 2563 0 2147 0 
L 494 0 
z
M 1100 541 
L 2078 541 
Q 2531 541 2789 625 
Q 3047 709 3200 863 
Q 3416 1078 3536 1442 
Q 3656 1806 3656 2325 
Q 3656 3044 3420 3430 
Q 3184 3816 2847 3947 
Q 2603 4041 2063 4041 
L 1100 4041 
L 1100 541 
z
" transform="scale(0.015625)"/>
       </defs>
       <use xlink:href="#ArialMT-4e"/>
       <use xlink:href="#ArialMT-61" x="72.216797"/>
       <use xlink:href="#ArialMT-74" x="127.832031"/>
       <use xlink:href="#ArialMT-69" x="155.615234"/>
       <use xlink:href="#ArialMT-6f" x="177.832031"/>
       <use xlink:href="#ArialMT-6e" x="233.447266"/>
       <use xlink:href="#ArialMT-61" x="289.0625"/>
       <use xlink:href="#ArialMT-6c" x="344.677734"/>
       <use xlink:href="#ArialMT-20" x="366.894531"/>
       <use xlink:href="#ArialMT-55" x="394.677734"/>
       <use xlink:href="#ArialMT-6e" x="466.894531"/>
       <use xlink:href="#ArialMT-69" x="522.509766"/>
       <use xlink:href="#ArialMT-76" x="544.726562"/>
       <use xlink:href="#ArialMT-65" x="594.726562"/>
       <use xlink:href="#ArialMT-72" x="650.341797"/>
       <use xlink:href="#ArialMT-73" x="683.642578"/>
       <use xlink:href="#ArialMT-69" x="733.642578"/>
       <use xlink:href="#ArialMT-74" x="755.859375"/>
       <use xlink:href="#ArialMT-79" x="783.642578"/>
       <use xlink:href="#ArialMT-20" x="833.642578"/>
       <use xlink:href="#ArialMT-6f" x="861.425781"/>
       <use xlink:href="#ArialMT-66" x="917.041016"/>
       <use xlink:href="#ArialMT-20" x="944.824219"/>
       <use xlink:href="#ArialMT-44" x="972.607422"/>
       <use xlink:href="#ArialMT-65" x="1044.824219"/>
       <use xlink:href="#ArialMT-66" x="1100.439453"/>
       <use xlink:href="#ArialMT-65" x="1128.222656"/>
       <use xlink:href="#ArialMT-6e" x="1183.837891"/>
       <use xlink:href="#ArialMT-73" x="1239.453125"/>
       <use xlink:href="#ArialMT-65" x="1289.453125"/>
       <use xlink:href="#ArialMT-20" x="1345.068359"/>
       <use xlink:href="#ArialMT-54" x="1371.101562"/>
       <use xlink:href="#ArialMT-65" x="1421.060547"/>
       <use xlink:href="#ArialMT-63" x="1476.675781"/>
       <use xlink:href="#ArialMT-68" x="1526.675781"/>
       <use xlink:href="#ArialMT-6e" x="1582.291016"/>
       <use xlink:href="#ArialMT-6f" x="1637.90625"/>
       <use xlink:href="#ArialMT-6c" x="1693.521484"/>
       <use xlink:href="#ArialMT-6f" x="1715.738281"/>
       <use xlink:href="#ArialMT-67" x="1771.353516"/>
       <use xlink:href="#ArialMT-79" x="1826.96875"/>
      </g>
     </g>
    </g>
    <g id="ytick_5">
     <g id="line2d_23">
      <path d="M 333.66625 254.7075 
L 780.06625 254.7075 
" clip-path="url(#pbad8d850fa)" style="fill: none; stroke: #cccccc; stroke-width: 0.8; stroke-linecap: round"/>
     </g>
     <g id="line2d_24">
      <g>
       <use xlink:href="#m861bc50ac5" x="333.66625" y="254.7075" style="fill: #262626; stroke: #262626; stroke-width: 0.8"/>
      </g>
     </g>
     <g id="text_13">
      <!-- Hohai University -->
      <g style="fill: #262626" transform="translate(230.52625 259.360078) scale(0.13 -0.13)">
       <use xlink:href="#ArialMT-48"/>
       <use xlink:href="#ArialMT-6f" x="72.216797"/>
       <use xlink:href="#ArialMT-68" x="127.832031"/>
       <use xlink:href="#ArialMT-61" x="183.447266"/>
       <use xlink:href="#ArialMT-69" x="239.0625"/>
       <use xlink:href="#ArialMT-20" x="261.279297"/>
       <use xlink:href="#ArialMT-55" x="289.0625"/>
       <use xlink:href="#ArialMT-6e" x="361.279297"/>
       <use xlink:href="#ArialMT-69" x="416.894531"/>
       <use xlink:href="#ArialMT-76" x="439.111328"/>
       <use xlink:href="#ArialMT-65" x="489.111328"/>
       <use xlink:href="#ArialMT-72" x="544.726562"/>
       <use xlink:href="#ArialMT-73" x="578.027344"/>
       <use xlink:href="#ArialMT-69" x="628.027344"/>
       <use xlink:href="#ArialMT-74" x="650.244141"/>
       <use xlink:href="#ArialMT-79" x="678.027344"/>
      </g>
     </g>
    </g>
    <g id="ytick_6">
     <g id="line2d_25">
      <path d="M 333.66625 233.7075 
L 780.06625 233.7075 
" clip-path="url(#pbad8d850fa)" style="fill: none; stroke: #cccccc; stroke-width: 0.8; stroke-linecap: round"/>
     </g>
     <g id="line2d_26">
      <g>
       <use xlink:href="#m861bc50ac5" x="333.66625" y="233.7075" style="fill: #262626; stroke: #262626; stroke-width: 0.8"/>
      </g>
     </g>
     <g id="text_14">
      <!-- South China University of Technology -->
      <g style="fill: #262626" transform="translate(109.35 238.439297) scale(0.13 -0.13)">
       <defs>
        <path id="ArialMT-53" d="M 288 1472 
L 859 1522 
Q 900 1178 1048 958 
Q 1197 738 1509 602 
Q 1822 466 2213 466 
Q 2559 466 2825 569 
Q 3091 672 3220 851 
Q 3350 1031 3350 1244 
Q 3350 1459 3225 1620 
Q 3100 1781 2813 1891 
Q 2628 1963 1997 2114 
Q 1366 2266 1113 2400 
Q 784 2572 623 2826 
Q 463 3081 463 3397 
Q 463 3744 659 4045 
Q 856 4347 1234 4503 
Q 1613 4659 2075 4659 
Q 2584 4659 2973 4495 
Q 3363 4331 3572 4012 
Q 3781 3694 3797 3291 
L 3216 3247 
Q 3169 3681 2898 3903 
Q 2628 4125 2100 4125 
Q 1550 4125 1298 3923 
Q 1047 3722 1047 3438 
Q 1047 3191 1225 3031 
Q 1400 2872 2139 2705 
Q 2878 2538 3153 2413 
Q 3553 2228 3743 1945 
Q 3934 1663 3934 1294 
Q 3934 928 3725 604 
Q 3516 281 3123 101 
Q 2731 -78 2241 -78 
Q 1619 -78 1198 103 
Q 778 284 539 648 
Q 300 1013 288 1472 
z
" transform="scale(0.015625)"/>
        <path id="ArialMT-43" d="M 3763 1606 
L 4369 1453 
Q 4178 706 3683 314 
Q 3188 -78 2472 -78 
Q 1731 -78 1267 223 
Q 803 525 561 1097 
Q 319 1669 319 2325 
Q 319 3041 592 3573 
Q 866 4106 1370 4382 
Q 1875 4659 2481 4659 
Q 3169 4659 3637 4309 
Q 4106 3959 4291 3325 
L 3694 3184 
Q 3534 3684 3231 3912 
Q 2928 4141 2469 4141 
Q 1941 4141 1586 3887 
Q 1231 3634 1087 3207 
Q 944 2781 944 2328 
Q 944 1744 1114 1308 
Q 1284 872 1643 656 
Q 2003 441 2422 441 
Q 2931 441 3284 734 
Q 3638 1028 3763 1606 
z
" transform="scale(0.015625)"/>
       </defs>
       <use xlink:href="#ArialMT-53"/>
       <use xlink:href="#ArialMT-6f" x="66.699219"/>
       <use xlink:href="#ArialMT-75" x="122.314453"/>
       <use xlink:href="#ArialMT-74" x="177.929688"/>
       <use xlink:href="#ArialMT-68" x="205.712891"/>
       <use xlink:href="#ArialMT-20" x="261.328125"/>
       <use xlink:href="#ArialMT-43" x="289.111328"/>
       <use xlink:href="#ArialMT-68" x="361.328125"/>
       <use xlink:href="#ArialMT-69" x="416.943359"/>
       <use xlink:href="#ArialMT-6e" x="439.160156"/>
       <use xlink:href="#ArialMT-61" x="494.775391"/>
       <use xlink:href="#ArialMT-20" x="550.390625"/>
       <use xlink:href="#ArialMT-55" x="578.173828"/>
       <use xlink:href="#ArialMT-6e" x="650.390625"/>
       <use xlink:href="#ArialMT-69" x="706.005859"/>
       <use xlink:href="#ArialMT-76" x="728.222656"/>
       <use xlink:href="#ArialMT-65" x="778.222656"/>
       <use xlink:href="#ArialMT-72" x="833.837891"/>
       <use xlink:href="#ArialMT-73" x="867.138672"/>
       <use xlink:href="#ArialMT-69" x="917.138672"/>
       <use xlink:href="#ArialMT-74" x="939.355469"/>
       <use xlink:href="#ArialMT-79" x="967.138672"/>
       <use xlink:href="#ArialMT-20" x="1017.138672"/>
       <use xlink:href="#ArialMT-6f" x="1044.921875"/>
       <use xlink:href="#ArialMT-66" x="1100.537109"/>
       <use xlink:href="#ArialMT-20" x="1128.320312"/>
       <use xlink:href="#ArialMT-54" x="1154.353516"/>
       <use xlink:href="#ArialMT-65" x="1204.3125"/>
       <use xlink:href="#ArialMT-63" x="1259.927734"/>
       <use xlink:href="#ArialMT-68" x="1309.927734"/>
       <use xlink:href="#ArialMT-6e" x="1365.542969"/>
       <use xlink:href="#ArialMT-6f" x="1421.158203"/>
       <use xlink:href="#ArialMT-6c" x="1476.773438"/>
       <use xlink:href="#ArialMT-6f" x="1498.990234"/>
       <use xlink:href="#ArialMT-67" x="1554.605469"/>
       <use xlink:href="#ArialMT-79" x="1610.220703"/>
      </g>
     </g>
    </g>
    <g id="ytick_7">
     <g id="line2d_27">
      <path d="M 333.66625 212.7075 
L 780.06625 212.7075 
" clip-path="url(#pbad8d850fa)" style="fill: none; stroke: #cccccc; stroke-width: 0.8; stroke-linecap: round"/>
     </g>
     <g id="line2d_28">
      <g>
       <use xlink:href="#m861bc50ac5" x="333.66625" y="212.7075" style="fill: #262626; stroke: #262626; stroke-width: 0.8"/>
      </g>
     </g>
     <g id="text_15">
      <!-- Shanghai Jiao Tong University -->
      <g style="fill: #262626" transform="translate(150.531562 217.439297) scale(0.13 -0.13)">
       <defs>
        <path id="ArialMT-4a" d="M 184 1300 
L 731 1375 
Q 753 850 928 656 
Q 1103 463 1413 463 
Q 1641 463 1806 567 
Q 1972 672 2034 851 
Q 2097 1031 2097 1425 
L 2097 4581 
L 2703 4581 
L 2703 1459 
Q 2703 884 2564 568 
Q 2425 253 2123 87 
Q 1822 -78 1416 -78 
Q 813 -78 492 269 
Q 172 616 184 1300 
z
" transform="scale(0.015625)"/>
       </defs>
       <use xlink:href="#ArialMT-53"/>
       <use xlink:href="#ArialMT-68" x="66.699219"/>
       <use xlink:href="#ArialMT-61" x="122.314453"/>
       <use xlink:href="#ArialMT-6e" x="177.929688"/>
       <use xlink:href="#ArialMT-67" x="233.544922"/>
       <use xlink:href="#ArialMT-68" x="289.160156"/>
       <use xlink:href="#ArialMT-61" x="344.775391"/>
       <use xlink:href="#ArialMT-69" x="400.390625"/>
       <use xlink:href="#ArialMT-20" x="422.607422"/>
       <use xlink:href="#ArialMT-4a" x="450.390625"/>
       <use xlink:href="#ArialMT-69" x="500.390625"/>
       <use xlink:href="#ArialMT-61" x="522.607422"/>
       <use xlink:href="#ArialMT-6f" x="578.222656"/>
       <use xlink:href="#ArialMT-20" x="633.837891"/>
       <use xlink:href="#ArialMT-54" x="659.871094"/>
       <use xlink:href="#ArialMT-6f" x="709.830078"/>
       <use xlink:href="#ArialMT-6e" x="765.445312"/>
       <use xlink:href="#ArialMT-67" x="821.060547"/>
       <use xlink:href="#ArialMT-20" x="876.675781"/>
       <use xlink:href="#ArialMT-55" x="904.458984"/>
       <use xlink:href="#ArialMT-6e" x="976.675781"/>
       <use xlink:href="#ArialMT-69" x="1032.291016"/>
       <use xlink:href="#ArialMT-76" x="1054.507812"/>
       <use xlink:href="#ArialMT-65" x="1104.507812"/>
       <use xlink:href="#ArialMT-72" x="1160.123047"/>
       <use xlink:href="#ArialMT-73" x="1193.423828"/>
       <use xlink:href="#ArialMT-69" x="1243.423828"/>
       <use xlink:href="#ArialMT-74" x="1265.640625"/>
       <use xlink:href="#ArialMT-79" x="1293.423828"/>
      </g>
     </g>
    </g>
    <g id="ytick_8">
     <g id="line2d_29">
      <path d="M 333.66625 191.7075 
L 780.06625 191.7075 
" clip-path="url(#pbad8d850fa)" style="fill: none; stroke: #cccccc; stroke-width: 0.8; stroke-linecap: round"/>
     </g>
     <g id="line2d_30">
      <g>
       <use xlink:href="#m861bc50ac5" x="333.66625" y="191.7075" style="fill: #262626; stroke: #262626; stroke-width: 0.8"/>
      </g>
     </g>
     <g id="text_16">
      <!-- Nanjing University of Posts and Telecommunications -->
      <g style="fill: #262626" transform="translate(23.3875 196.439297) scale(0.13 -0.13)">
       <defs>
        <path id="ArialMT-50" d="M 494 0 
L 494 4581 
L 2222 4581 
Q 2678 4581 2919 4538 
Q 3256 4481 3484 4323 
Q 3713 4166 3852 3881 
Q 3991 3597 3991 3256 
Q 3991 2672 3619 2267 
Q 3247 1863 2275 1863 
L 1100 1863 
L 1100 0 
L 494 0 
z
M 1100 2403 
L 2284 2403 
Q 2872 2403 3119 2622 
Q 3366 2841 3366 3238 
Q 3366 3525 3220 3729 
Q 3075 3934 2838 4000 
Q 2684 4041 2272 4041 
L 1100 4041 
L 1100 2403 
z
" transform="scale(0.015625)"/>
        <path id="ArialMT-64" d="M 2575 0 
L 2575 419 
Q 2259 -75 1647 -75 
Q 1250 -75 917 144 
Q 584 363 401 755 
Q 219 1147 219 1656 
Q 219 2153 384 2558 
Q 550 2963 881 3178 
Q 1213 3394 1622 3394 
Q 1922 3394 2156 3267 
Q 2391 3141 2538 2938 
L 2538 4581 
L 3097 4581 
L 3097 0 
L 2575 0 
z
M 797 1656 
Q 797 1019 1065 703 
Q 1334 388 1700 388 
Q 2069 388 2326 689 
Q 2584 991 2584 1609 
Q 2584 2291 2321 2609 
Q 2059 2928 1675 2928 
Q 1300 2928 1048 2622 
Q 797 2316 797 1656 
z
" transform="scale(0.015625)"/>
        <path id="ArialMT-6d" d="M 422 0 
L 422 3319 
L 925 3319 
L 925 2853 
Q 1081 3097 1340 3245 
Q 1600 3394 1931 3394 
Q 2300 3394 2536 3241 
Q 2772 3088 2869 2813 
Q 3263 3394 3894 3394 
Q 4388 3394 4653 3120 
Q 4919 2847 4919 2278 
L 4919 0 
L 4359 0 
L 4359 2091 
Q 4359 2428 4304 2576 
Q 4250 2725 4106 2815 
Q 3963 2906 3769 2906 
Q 3419 2906 3187 2673 
Q 2956 2441 2956 1928 
L 2956 0 
L 2394 0 
L 2394 2156 
Q 2394 2531 2256 2718 
Q 2119 2906 1806 2906 
Q 1569 2906 1367 2781 
Q 1166 2656 1075 2415 
Q 984 2175 984 1722 
L 984 0 
L 422 0 
z
" transform="scale(0.015625)"/>
       </defs>
       <use xlink:href="#ArialMT-4e"/>
       <use xlink:href="#ArialMT-61" x="72.216797"/>
       <use xlink:href="#ArialMT-6e" x="127.832031"/>
       <use xlink:href="#ArialMT-6a" x="183.447266"/>
       <use xlink:href="#ArialMT-69" x="205.664062"/>
       <use xlink:href="#ArialMT-6e" x="227.880859"/>
       <use xlink:href="#ArialMT-67" x="283.496094"/>
       <use xlink:href="#ArialMT-20" x="339.111328"/>
       <use xlink:href="#ArialMT-55" x="366.894531"/>
       <use xlink:href="#ArialMT-6e" x="439.111328"/>
       <use xlink:href="#ArialMT-69" x="494.726562"/>
       <use xlink:href="#ArialMT-76" x="516.943359"/>
       <use xlink:href="#ArialMT-65" x="566.943359"/>
       <use xlink:href="#ArialMT-72" x="622.558594"/>
       <use xlink:href="#ArialMT-73" x="655.859375"/>
       <use xlink:href="#ArialMT-69" x="705.859375"/>
       <use xlink:href="#ArialMT-74" x="728.076172"/>
       <use xlink:href="#ArialMT-79" x="755.859375"/>
       <use xlink:href="#ArialMT-20" x="805.859375"/>
       <use xlink:href="#ArialMT-6f" x="833.642578"/>
       <use xlink:href="#ArialMT-66" x="889.257812"/>
       <use xlink:href="#ArialMT-20" x="917.041016"/>
       <use xlink:href="#ArialMT-50" x="944.824219"/>
       <use xlink:href="#ArialMT-6f" x="1011.523438"/>
       <use xlink:href="#ArialMT-73" x="1067.138672"/>
       <use xlink:href="#ArialMT-74" x="1117.138672"/>
       <use xlink:href="#ArialMT-73" x="1144.921875"/>
       <use xlink:href="#ArialMT-20" x="1194.921875"/>
       <use xlink:href="#ArialMT-61" x="1222.705078"/>
       <use xlink:href="#ArialMT-6e" x="1278.320312"/>
       <use xlink:href="#ArialMT-64" x="1333.935547"/>
       <use xlink:href="#ArialMT-20" x="1389.550781"/>
       <use xlink:href="#ArialMT-54" x="1415.583984"/>
       <use xlink:href="#ArialMT-65" x="1465.542969"/>
       <use xlink:href="#ArialMT-6c" x="1521.158203"/>
       <use xlink:href="#ArialMT-65" x="1543.375"/>
       <use xlink:href="#ArialMT-63" x="1598.990234"/>
       <use xlink:href="#ArialMT-6f" x="1648.990234"/>
       <use xlink:href="#ArialMT-6d" x="1704.605469"/>
       <use xlink:href="#ArialMT-6d" x="1787.90625"/>
       <use xlink:href="#ArialMT-75" x="1871.207031"/>
       <use xlink:href="#ArialMT-6e" x="1926.822266"/>
       <use xlink:href="#ArialMT-69" x="1982.4375"/>
       <use xlink:href="#ArialMT-63" x="2004.654297"/>
       <use xlink:href="#ArialMT-61" x="2054.654297"/>
       <use xlink:href="#ArialMT-74" x="2110.269531"/>
       <use xlink:href="#ArialMT-69" x="2138.052734"/>
       <use xlink:href="#ArialMT-6f" x="2160.269531"/>
       <use xlink:href="#ArialMT-6e" x="2215.884766"/>
       <use xlink:href="#ArialMT-73" x="2271.5"/>
      </g>
     </g>
    </g>
    <g id="ytick_9">
     <g id="line2d_31">
      <path d="M 333.66625 170.7075 
L 780.06625 170.7075 
" clip-path="url(#pbad8d850fa)" style="fill: none; stroke: #cccccc; stroke-width: 0.8; stroke-linecap: round"/>
     </g>
     <g id="line2d_32">
      <g>
       <use xlink:href="#m861bc50ac5" x="333.66625" y="170.7075" style="fill: #262626; stroke: #262626; stroke-width: 0.8"/>
      </g>
     </g>
     <g id="text_17">
      <!-- Dalian University of Technology -->
      <g style="fill: #262626" transform="translate(144.04375 175.439297) scale(0.13 -0.13)">
       <use xlink:href="#ArialMT-44"/>
       <use xlink:href="#ArialMT-61" x="72.216797"/>
       <use xlink:href="#ArialMT-6c" x="127.832031"/>
       <use xlink:href="#ArialMT-69" x="150.048828"/>
       <use xlink:href="#ArialMT-61" x="172.265625"/>
       <use xlink:href="#ArialMT-6e" x="227.880859"/>
       <use xlink:href="#ArialMT-20" x="283.496094"/>
       <use xlink:href="#ArialMT-55" x="311.279297"/>
       <use xlink:href="#ArialMT-6e" x="383.496094"/>
       <use xlink:href="#ArialMT-69" x="439.111328"/>
       <use xlink:href="#ArialMT-76" x="461.328125"/>
       <use xlink:href="#ArialMT-65" x="511.328125"/>
       <use xlink:href="#ArialMT-72" x="566.943359"/>
       <use xlink:href="#ArialMT-73" x="600.244141"/>
       <use xlink:href="#ArialMT-69" x="650.244141"/>
       <use xlink:href="#ArialMT-74" x="672.460938"/>
       <use xlink:href="#ArialMT-79" x="700.244141"/>
       <use xlink:href="#ArialMT-20" x="750.244141"/>
       <use xlink:href="#ArialMT-6f" x="778.027344"/>
       <use xlink:href="#ArialMT-66" x="833.642578"/>
       <use xlink:href="#ArialMT-20" x="861.425781"/>
       <use xlink:href="#ArialMT-54" x="887.458984"/>
       <use xlink:href="#ArialMT-65" x="937.417969"/>
       <use xlink:href="#ArialMT-63" x="993.033203"/>
       <use xlink:href="#ArialMT-68" x="1043.033203"/>
       <use xlink:href="#ArialMT-6e" x="1098.648438"/>
       <use xlink:href="#ArialMT-6f" x="1154.263672"/>
       <use xlink:href="#ArialMT-6c" x="1209.878906"/>
       <use xlink:href="#ArialMT-6f" x="1232.095703"/>
       <use xlink:href="#ArialMT-67" x="1287.710938"/>
       <use xlink:href="#ArialMT-79" x="1343.326172"/>
      </g>
     </g>
    </g>
    <g id="ytick_10">
     <g id="line2d_33">
      <path d="M 333.66625 149.7075 
L 780.06625 149.7075 
" clip-path="url(#pbad8d850fa)" style="fill: none; stroke: #cccccc; stroke-width: 0.8; stroke-linecap: round"/>
     </g>
     <g id="line2d_34">
      <g>
       <use xlink:href="#m861bc50ac5" x="333.66625" y="149.7075" style="fill: #262626; stroke: #262626; stroke-width: 0.8"/>
      </g>
     </g>
     <g id="text_18">
      <!-- Northwestern Polytechnical University -->
      <g style="fill: #262626" transform="translate(106.981562 154.360078) scale(0.13 -0.13)">
       <defs>
        <path id="ArialMT-77" d="M 1034 0 
L 19 3319 
L 600 3319 
L 1128 1403 
L 1325 691 
Q 1338 744 1497 1375 
L 2025 3319 
L 2603 3319 
L 3100 1394 
L 3266 759 
L 3456 1400 
L 4025 3319 
L 4572 3319 
L 3534 0 
L 2950 0 
L 2422 1988 
L 2294 2553 
L 1622 0 
L 1034 0 
z
" transform="scale(0.015625)"/>
       </defs>
       <use xlink:href="#ArialMT-4e"/>
       <use xlink:href="#ArialMT-6f" x="72.216797"/>
       <use xlink:href="#ArialMT-72" x="127.832031"/>
       <use xlink:href="#ArialMT-74" x="161.132812"/>
       <use xlink:href="#ArialMT-68" x="188.916016"/>
       <use xlink:href="#ArialMT-77" x="244.53125"/>
       <use xlink:href="#ArialMT-65" x="316.748047"/>
       <use xlink:href="#ArialMT-73" x="372.363281"/>
       <use xlink:href="#ArialMT-74" x="422.363281"/>
       <use xlink:href="#ArialMT-65" x="450.146484"/>
       <use xlink:href="#ArialMT-72" x="505.761719"/>
       <use xlink:href="#ArialMT-6e" x="539.0625"/>
       <use xlink:href="#ArialMT-20" x="594.677734"/>
       <use xlink:href="#ArialMT-50" x="622.460938"/>
       <use xlink:href="#ArialMT-6f" x="689.160156"/>
       <use xlink:href="#ArialMT-6c" x="744.775391"/>
       <use xlink:href="#ArialMT-79" x="766.992188"/>
       <use xlink:href="#ArialMT-74" x="816.992188"/>
       <use xlink:href="#ArialMT-65" x="844.775391"/>
       <use xlink:href="#ArialMT-63" x="900.390625"/>
       <use xlink:href="#ArialMT-68" x="950.390625"/>
       <use xlink:href="#ArialMT-6e" x="1006.005859"/>
       <use xlink:href="#ArialMT-69" x="1061.621094"/>
       <use xlink:href="#ArialMT-63" x="1083.837891"/>
       <use xlink:href="#ArialMT-61" x="1133.837891"/>
       <use xlink:href="#ArialMT-6c" x="1189.453125"/>
       <use xlink:href="#ArialMT-20" x="1211.669922"/>
       <use xlink:href="#ArialMT-55" x="1239.453125"/>
       <use xlink:href="#ArialMT-6e" x="1311.669922"/>
       <use xlink:href="#ArialMT-69" x="1367.285156"/>
       <use xlink:href="#ArialMT-76" x="1389.501953"/>
       <use xlink:href="#ArialMT-65" x="1439.501953"/>
       <use xlink:href="#ArialMT-72" x="1495.117188"/>
       <use xlink:href="#ArialMT-73" x="1528.417969"/>
       <use xlink:href="#ArialMT-69" x="1578.417969"/>
       <use xlink:href="#ArialMT-74" x="1600.634766"/>
       <use xlink:href="#ArialMT-79" x="1628.417969"/>
      </g>
     </g>
    </g>
    <g id="ytick_11">
     <g id="line2d_35">
      <path d="M 333.66625 128.7075 
L 780.06625 128.7075 
" clip-path="url(#pbad8d850fa)" style="fill: none; stroke: #cccccc; stroke-width: 0.8; stroke-linecap: round"/>
     </g>
     <g id="line2d_36">
      <g>
       <use xlink:href="#m861bc50ac5" x="333.66625" y="128.7075" style="fill: #262626; stroke: #262626; stroke-width: 0.8"/>
      </g>
     </g>
     <g id="text_19">
      <!-- Huazhong University of Science and Technology -->
      <g style="fill: #262626" transform="translate(46.474687 133.439297) scale(0.13 -0.13)">
       <defs>
        <path id="ArialMT-7a" d="M 125 0 
L 125 456 
L 2238 2881 
Q 1878 2863 1603 2863 
L 250 2863 
L 250 3319 
L 2963 3319 
L 2963 2947 
L 1166 841 
L 819 456 
Q 1197 484 1528 484 
L 3063 484 
L 3063 0 
L 125 0 
z
" transform="scale(0.015625)"/>
       </defs>
       <use xlink:href="#ArialMT-48"/>
       <use xlink:href="#ArialMT-75" x="72.216797"/>
       <use xlink:href="#ArialMT-61" x="127.832031"/>
       <use xlink:href="#ArialMT-7a" x="183.447266"/>
       <use xlink:href="#ArialMT-68" x="233.447266"/>
       <use xlink:href="#ArialMT-6f" x="289.0625"/>
       <use xlink:href="#ArialMT-6e" x="344.677734"/>
       <use xlink:href="#ArialMT-67" x="400.292969"/>
       <use xlink:href="#ArialMT-20" x="455.908203"/>
       <use xlink:href="#ArialMT-55" x="483.691406"/>
       <use xlink:href="#ArialMT-6e" x="555.908203"/>
       <use xlink:href="#ArialMT-69" x="611.523438"/>
       <use xlink:href="#ArialMT-76" x="633.740234"/>
       <use xlink:href="#ArialMT-65" x="683.740234"/>
       <use xlink:href="#ArialMT-72" x="739.355469"/>
       <use xlink:href="#ArialMT-73" x="772.65625"/>
       <use xlink:href="#ArialMT-69" x="822.65625"/>
       <use xlink:href="#ArialMT-74" x="844.873047"/>
       <use xlink:href="#ArialMT-79" x="872.65625"/>
       <use xlink:href="#ArialMT-20" x="922.65625"/>
       <use xlink:href="#ArialMT-6f" x="950.439453"/>
       <use xlink:href="#ArialMT-66" x="1006.054688"/>
       <use xlink:href="#ArialMT-20" x="1033.837891"/>
       <use xlink:href="#ArialMT-53" x="1061.621094"/>
       <use xlink:href="#ArialMT-63" x="1128.320312"/>
       <use xlink:href="#ArialMT-69" x="1178.320312"/>
       <use xlink:href="#ArialMT-65" x="1200.537109"/>
       <use xlink:href="#ArialMT-6e" x="1256.152344"/>
       <use xlink:href="#ArialMT-63" x="1311.767578"/>
       <use xlink:href="#ArialMT-65" x="1361.767578"/>
       <use xlink:href="#ArialMT-20" x="1417.382812"/>
       <use xlink:href="#ArialMT-61" x="1445.166016"/>
       <use xlink:href="#ArialMT-6e" x="1500.78125"/>
       <use xlink:href="#ArialMT-64" x="1556.396484"/>
       <use xlink:href="#ArialMT-20" x="1612.011719"/>
       <use xlink:href="#ArialMT-54" x="1638.044922"/>
       <use xlink:href="#ArialMT-65" x="1688.003906"/>
       <use xlink:href="#ArialMT-63" x="1743.619141"/>
       <use xlink:href="#ArialMT-68" x="1793.619141"/>
       <use xlink:href="#ArialMT-6e" x="1849.234375"/>
       <use xlink:href="#ArialMT-6f" x="1904.849609"/>
       <use xlink:href="#ArialMT-6c" x="1960.464844"/>
       <use xlink:href="#ArialMT-6f" x="1982.681641"/>
       <use xlink:href="#ArialMT-67" x="2038.296875"/>
       <use xlink:href="#ArialMT-79" x="2093.912109"/>
      </g>
     </g>
    </g>
    <g id="ytick_12">
     <g id="line2d_37">
      <path d="M 333.66625 107.7075 
L 780.06625 107.7075 
" clip-path="url(#pbad8d850fa)" style="fill: none; stroke: #cccccc; stroke-width: 0.8; stroke-linecap: round"/>
     </g>
     <g id="line2d_38">
      <g>
       <use xlink:href="#m861bc50ac5" x="333.66625" y="107.7075" style="fill: #262626; stroke: #262626; stroke-width: 0.8"/>
      </g>
     </g>
     <g id="text_20">
      <!-- Jilin University -->
      <g style="fill: #262626" transform="translate(242.09625 112.360078) scale(0.13 -0.13)">
       <use xlink:href="#ArialMT-4a"/>
       <use xlink:href="#ArialMT-69" x="50"/>
       <use xlink:href="#ArialMT-6c" x="72.216797"/>
       <use xlink:href="#ArialMT-69" x="94.433594"/>
       <use xlink:href="#ArialMT-6e" x="116.650391"/>
       <use xlink:href="#ArialMT-20" x="172.265625"/>
       <use xlink:href="#ArialMT-55" x="200.048828"/>
       <use xlink:href="#ArialMT-6e" x="272.265625"/>
       <use xlink:href="#ArialMT-69" x="327.880859"/>
       <use xlink:href="#ArialMT-76" x="350.097656"/>
       <use xlink:href="#ArialMT-65" x="400.097656"/>
       <use xlink:href="#ArialMT-72" x="455.712891"/>
       <use xlink:href="#ArialMT-73" x="489.013672"/>
       <use xlink:href="#ArialMT-69" x="539.013672"/>
       <use xlink:href="#ArialMT-74" x="561.230469"/>
       <use xlink:href="#ArialMT-79" x="589.013672"/>
      </g>
     </g>
    </g>
    <g id="ytick_13">
     <g id="line2d_39">
      <path d="M 333.66625 86.7075 
L 780.06625 86.7075 
" clip-path="url(#pbad8d850fa)" style="fill: none; stroke: #cccccc; stroke-width: 0.8; stroke-linecap: round"/>
     </g>
     <g id="line2d_40">
      <g>
       <use xlink:href="#m861bc50ac5" x="333.66625" y="86.7075" style="fill: #262626; stroke: #262626; stroke-width: 0.8"/>
      </g>
     </g>
     <g id="text_21">
      <!-- Beihang University -->
      <g style="fill: #262626" transform="translate(216.784844 91.360078) scale(0.13 -0.13)">
       <use xlink:href="#ArialMT-42"/>
       <use xlink:href="#ArialMT-65" x="66.699219"/>
       <use xlink:href="#ArialMT-69" x="122.314453"/>
       <use xlink:href="#ArialMT-68" x="144.53125"/>
       <use xlink:href="#ArialMT-61" x="200.146484"/>
       <use xlink:href="#ArialMT-6e" x="255.761719"/>
       <use xlink:href="#ArialMT-67" x="311.376953"/>
       <use xlink:href="#ArialMT-20" x="366.992188"/>
       <use xlink:href="#ArialMT-55" x="394.775391"/>
       <use xlink:href="#ArialMT-6e" x="466.992188"/>
       <use xlink:href="#ArialMT-69" x="522.607422"/>
       <use xlink:href="#ArialMT-76" x="544.824219"/>
       <use xlink:href="#ArialMT-65" x="594.824219"/>
       <use xlink:href="#ArialMT-72" x="650.439453"/>
       <use xlink:href="#ArialMT-73" x="683.740234"/>
       <use xlink:href="#ArialMT-69" x="733.740234"/>
       <use xlink:href="#ArialMT-74" x="755.957031"/>
       <use xlink:href="#ArialMT-79" x="783.740234"/>
      </g>
     </g>
    </g>
    <g id="ytick_14">
     <g id="line2d_41">
      <path d="M 333.66625 65.7075 
L 780.06625 65.7075 
" clip-path="url(#pbad8d850fa)" style="fill: none; stroke: #cccccc; stroke-width: 0.8; stroke-linecap: round"/>
     </g>
     <g id="line2d_42">
      <g>
       <use xlink:href="#m861bc50ac5" x="333.66625" y="65.7075" style="fill: #262626; stroke: #262626; stroke-width: 0.8"/>
      </g>
     </g>
     <g id="text_22">
      <!-- XIDIAN UNIVERSITY -->
      <g style="fill: #262626" transform="translate(200.197656 70.360078) scale(0.13 -0.13)">
       <defs>
        <path id="ArialMT-58" d="M 28 0 
L 1800 2388 
L 238 4581 
L 959 4581 
L 1791 3406 
Q 2050 3041 2159 2844 
Q 2313 3094 2522 3366 
L 3444 4581 
L 4103 4581 
L 2494 2422 
L 4228 0 
L 3478 0 
L 2325 1634 
Q 2228 1775 2125 1941 
Q 1972 1691 1906 1597 
L 756 0 
L 28 0 
z
" transform="scale(0.015625)"/>
        <path id="ArialMT-41" d="M -9 0 
L 1750 4581 
L 2403 4581 
L 4278 0 
L 3588 0 
L 3053 1388 
L 1138 1388 
L 634 0 
L -9 0 
z
M 1313 1881 
L 2866 1881 
L 2388 3150 
Q 2169 3728 2063 4100 
Q 1975 3659 1816 3225 
L 1313 1881 
z
" transform="scale(0.015625)"/>
        <path id="ArialMT-56" d="M 1803 0 
L 28 4581 
L 684 4581 
L 1875 1253 
Q 2019 853 2116 503 
Q 2222 878 2363 1253 
L 3600 4581 
L 4219 4581 
L 2425 0 
L 1803 0 
z
" transform="scale(0.015625)"/>
        <path id="ArialMT-45" d="M 506 0 
L 506 4581 
L 3819 4581 
L 3819 4041 
L 1113 4041 
L 1113 2638 
L 3647 2638 
L 3647 2100 
L 1113 2100 
L 1113 541 
L 3925 541 
L 3925 0 
L 506 0 
z
" transform="scale(0.015625)"/>
        <path id="ArialMT-52" d="M 503 0 
L 503 4581 
L 2534 4581 
Q 3147 4581 3465 4457 
Q 3784 4334 3975 4021 
Q 4166 3709 4166 3331 
Q 4166 2844 3850 2509 
Q 3534 2175 2875 2084 
Q 3116 1969 3241 1856 
Q 3506 1613 3744 1247 
L 4541 0 
L 3778 0 
L 3172 953 
Q 2906 1366 2734 1584 
Q 2563 1803 2427 1890 
Q 2291 1978 2150 2013 
Q 2047 2034 1813 2034 
L 1109 2034 
L 1109 0 
L 503 0 
z
M 1109 2559 
L 2413 2559 
Q 2828 2559 3062 2645 
Q 3297 2731 3419 2920 
Q 3541 3109 3541 3331 
Q 3541 3656 3305 3865 
Q 3069 4075 2559 4075 
L 1109 4075 
L 1109 2559 
z
" transform="scale(0.015625)"/>
        <path id="ArialMT-59" d="M 1784 0 
L 1784 1941 
L 19 4581 
L 756 4581 
L 1659 3200 
Q 1909 2813 2125 2425 
Q 2331 2784 2625 3234 
L 3513 4581 
L 4219 4581 
L 2391 1941 
L 2391 0 
L 1784 0 
z
" transform="scale(0.015625)"/>
       </defs>
       <use xlink:href="#ArialMT-58"/>
       <use xlink:href="#ArialMT-49" x="66.699219"/>
       <use xlink:href="#ArialMT-44" x="94.482422"/>
       <use xlink:href="#ArialMT-49" x="166.699219"/>
       <use xlink:href="#ArialMT-41" x="194.482422"/>
       <use xlink:href="#ArialMT-4e" x="261.181641"/>
       <use xlink:href="#ArialMT-20" x="333.398438"/>
       <use xlink:href="#ArialMT-55" x="361.181641"/>
       <use xlink:href="#ArialMT-4e" x="433.398438"/>
       <use xlink:href="#ArialMT-49" x="505.615234"/>
       <use xlink:href="#ArialMT-56" x="533.398438"/>
       <use xlink:href="#ArialMT-45" x="600.097656"/>
       <use xlink:href="#ArialMT-52" x="666.796875"/>
       <use xlink:href="#ArialMT-53" x="739.013672"/>
       <use xlink:href="#ArialMT-49" x="805.712891"/>
       <use xlink:href="#ArialMT-54" x="833.496094"/>
       <use xlink:href="#ArialMT-59" x="894.580078"/>
      </g>
     </g>
    </g>
    <g id="ytick_15">
     <g id="line2d_43">
      <path d="M 333.66625 44.7075 
L 780.06625 44.7075 
" clip-path="url(#pbad8d850fa)" style="fill: none; stroke: #cccccc; stroke-width: 0.8; stroke-linecap: round"/>
     </g>
     <g id="line2d_44">
      <g>
       <use xlink:href="#m861bc50ac5" x="333.66625" y="44.7075" style="fill: #262626; stroke: #262626; stroke-width: 0.8"/>
      </g>
     </g>
     <g id="text_23">
      <!-- Harbin Engineering University -->
      <g style="fill: #262626" transform="translate(153.204687 49.360078) scale(0.13 -0.13)">
       <use xlink:href="#ArialMT-48"/>
       <use xlink:href="#ArialMT-61" x="72.216797"/>
       <use xlink:href="#ArialMT-72" x="127.832031"/>
       <use xlink:href="#ArialMT-62" x="161.132812"/>
       <use xlink:href="#ArialMT-69" x="216.748047"/>
       <use xlink:href="#ArialMT-6e" x="238.964844"/>
       <use xlink:href="#ArialMT-20" x="294.580078"/>
       <use xlink:href="#ArialMT-45" x="322.363281"/>
       <use xlink:href="#ArialMT-6e" x="389.0625"/>
       <use xlink:href="#ArialMT-67" x="444.677734"/>
       <use xlink:href="#ArialMT-69" x="500.292969"/>
       <use xlink:href="#ArialMT-6e" x="522.509766"/>
       <use xlink:href="#ArialMT-65" x="578.125"/>
       <use xlink:href="#ArialMT-65" x="633.740234"/>
       <use xlink:href="#ArialMT-72" x="689.355469"/>
       <use xlink:href="#ArialMT-69" x="722.65625"/>
       <use xlink:href="#ArialMT-6e" x="744.873047"/>
       <use xlink:href="#ArialMT-67" x="800.488281"/>
       <use xlink:href="#ArialMT-20" x="856.103516"/>
       <use xlink:href="#ArialMT-55" x="883.886719"/>
       <use xlink:href="#ArialMT-6e" x="956.103516"/>
       <use xlink:href="#ArialMT-69" x="1011.71875"/>
       <use xlink:href="#ArialMT-76" x="1033.935547"/>
       <use xlink:href="#ArialMT-65" x="1083.935547"/>
       <use xlink:href="#ArialMT-72" x="1139.550781"/>
       <use xlink:href="#ArialMT-73" x="1172.851562"/>
       <use xlink:href="#ArialMT-69" x="1222.851562"/>
       <use xlink:href="#ArialMT-74" x="1245.068359"/>
       <use xlink:href="#ArialMT-79" x="1272.851562"/>
      </g>
     </g>
    </g>
    <g id="text_24">
     <!-- 学校名称 -->
     <g style="fill: #262626" transform="translate(17.7625 217.7075) rotate(-90) scale(0.13 -0.13)">
      <defs>
       <path id="SimHei-5b66" d="M 4875 2675 
L 4875 2150 
Q 4525 2075 4237 1912 
Q 3950 1750 3575 1575 
L 3575 1350 
L 5150 1350 
Q 5450 1350 5925 1375 
L 5925 875 
Q 5425 900 5150 900 
L 3575 900 
L 3575 -125 
Q 3575 -475 3300 -562 
Q 3025 -650 2400 -700 
Q 2325 -425 2150 -150 
L 2825 -150 
Q 3075 -150 3075 125 
L 3075 900 
L 1350 900 
Q 950 900 450 875 
L 450 1375 
Q 975 1350 1325 1350 
L 3075 1350 
Q 3075 1550 3025 1800 
L 3925 2250 
L 2550 2250 
Q 2075 2250 1475 2225 
L 1475 2700 
Q 2025 2675 2525 2675 
L 4875 2675 
z
M 5350 4975 
Q 4850 4400 4500 3800 
L 5875 3800 
Q 5850 3575 5850 3275 
Q 5850 2975 5875 2700 
L 5350 2700 
L 5350 3375 
L 1025 3375 
L 1025 2675 
L 500 2675 
Q 525 2975 525 3275 
Q 525 3575 500 3800 
L 3975 3800 
Q 4175 4150 4387 4537 
Q 4600 4925 4725 5300 
Q 5125 5075 5350 4975 
z
M 2950 5225 
Q 3425 4625 3575 4350 
Q 3350 4175 3100 4025 
Q 2900 4425 2500 4925 
Q 2750 5100 2950 5225 
z
M 1250 5050 
Q 1700 4675 2025 4275 
Q 1750 4075 1600 3900 
Q 1275 4375 850 4725 
Q 1125 4925 1250 5050 
z
" transform="scale(0.015625)"/>
       <path id="SimHei-6821" d="M 1250 3825 
Q 1250 4800 1225 5125 
L 1750 5125 
Q 1725 4800 1725 3825 
Q 2025 3825 2375 3850 
L 2375 3400 
Q 2050 3425 1725 3425 
L 1725 2475 
Q 1900 2600 2100 2700 
Q 2375 2225 2600 1875 
Q 2350 1750 2125 1600 
Q 1975 2000 1725 2425 
L 1725 475 
Q 1725 -25 1750 -550 
L 1225 -550 
Q 1250 -25 1250 475 
L 1250 2325 
Q 1025 1575 625 800 
Q 425 1100 200 1275 
Q 850 2125 1150 3425 
Q 775 3425 350 3400 
L 350 3850 
Q 775 3825 1250 3825 
z
M 3550 2225 
Q 3875 1375 4200 1000 
Q 4575 1425 4850 2300 
Q 5075 2150 5400 2100 
Q 5225 1800 5062 1450 
Q 4900 1100 4525 650 
Q 4750 400 5175 200 
Q 5600 0 6200 -100 
Q 5875 -350 5800 -600 
Q 5275 -425 4862 -200 
Q 4450 25 4200 300 
Q 3875 25 3525 -175 
Q 3175 -375 2475 -650 
Q 2325 -375 2100 -200 
Q 2850 0 3212 200 
Q 3575 400 3875 650 
Q 3400 1225 3125 2025 
Q 3350 2075 3550 2225 
z
M 5150 4275 
Q 5650 4275 6100 4300 
L 6100 3850 
Q 5700 3875 5150 3875 
L 3375 3875 
Q 2875 3875 2500 3850 
L 2500 4300 
Q 2875 4275 3375 4275 
L 5150 4275 
z
M 4025 3250 
Q 3850 3125 3525 2762 
Q 3200 2400 3000 2175 
Q 2800 2350 2550 2475 
Q 3200 3050 3500 3575 
L 4025 3250 
z
M 5025 3525 
Q 5775 2925 6100 2650 
Q 5850 2450 5650 2250 
Q 5400 2600 4675 3200 
Q 4900 3350 5025 3525 
z
M 4225 5250 
Q 4425 4975 4625 4550 
Q 4400 4475 4125 4325 
Q 4050 4650 3800 5050 
L 4225 5250 
z
" transform="scale(0.015625)"/>
       <path id="SimHei-540d" d="M 2900 5000 
Q 2775 4875 2687 4750 
Q 2600 4625 2475 4450 
L 5350 4450 
Q 5050 4000 4512 3312 
Q 3975 2625 2975 2000 
L 5500 2000 
Q 5475 1625 5475 1225 
L 5475 200 
Q 5475 -225 5500 -625 
L 4975 -625 
L 4975 -75 
L 2250 -75 
L 2250 -650 
L 1750 -650 
Q 1775 -300 1775 150 
L 1775 1400 
Q 950 1050 625 950 
Q 525 1200 300 1425 
Q 950 1550 1737 1875 
Q 2525 2200 2950 2525 
Q 2400 3025 1975 3300 
Q 2150 3450 2325 3675 
Q 3125 3025 3375 2825 
Q 4000 3300 4500 4050 
L 2225 4050 
Q 1475 3150 1050 2825 
Q 900 2975 600 3150 
Q 1175 3525 1587 4012 
Q 2000 4500 2350 5250 
Q 2675 5075 2900 5000 
z
M 4975 325 
L 4975 1600 
L 2250 1600 
L 2250 325 
L 4975 325 
z
" transform="scale(0.015625)"/>
       <path id="SimHei-79f0" d="M 250 775 
Q 525 1125 775 1637 
Q 1025 2150 1175 2825 
Q 650 2825 375 2800 
L 375 3250 
Q 925 3225 1425 3225 
L 1425 4275 
Q 1175 4225 600 4100 
Q 500 4375 400 4550 
Q 725 4575 975 4612 
Q 1225 4650 1475 4700 
Q 1725 4750 1950 4825 
Q 2175 4900 2450 5050 
Q 2600 4725 2775 4525 
Q 2350 4475 1875 4350 
L 1875 3225 
Q 2150 3225 2675 3250 
L 2675 2750 
Q 2150 2800 1875 2800 
L 1875 2050 
Q 2025 2175 2200 2325 
Q 2450 1950 2675 1550 
Q 2500 1450 2300 1275 
Q 2050 1775 1875 2000 
L 1875 150 
Q 1875 -100 1900 -625 
L 1375 -625 
Q 1425 -125 1425 150 
L 1425 2175 
Q 1200 1475 1000 1100 
Q 800 725 550 350 
Q 400 575 250 775 
z
M 4100 5075 
Q 3975 4800 3750 4150 
L 5925 4150 
L 5525 2750 
Q 5275 2800 5050 2875 
Q 5150 3175 5275 3725 
L 3625 3725 
Q 3450 3200 3225 2625 
Q 2925 2750 2725 2800 
Q 3050 3375 3237 4012 
Q 3425 4650 3550 5275 
Q 3875 5125 4100 5075 
z
M 4600 3175 
Q 4575 2925 4575 2300 
L 4575 50 
Q 4575 -425 4325 -512 
Q 4075 -600 3625 -675 
Q 3550 -350 3425 -100 
Q 3850 -125 3987 -100 
Q 4125 -75 4125 200 
L 4125 2300 
Q 4125 2875 4100 3175 
L 4600 3175 
z
M 3675 1975 
Q 3525 1675 3375 1262 
Q 3225 850 2925 125 
Q 2625 275 2425 350 
Q 2825 1050 3150 2200 
Q 3400 2075 3675 1975 
z
M 5300 2125 
Q 5500 1800 5750 1375 
Q 6000 950 6175 525 
Q 5875 400 5700 250 
Q 5450 800 5250 1212 
Q 5050 1625 4875 1850 
Q 5100 1975 5300 2125 
z
" transform="scale(0.015625)"/>
      </defs>
      <use xlink:href="#SimHei-5b66"/>
      <use xlink:href="#SimHei-6821" x="100"/>
      <use xlink:href="#SimHei-540d" x="200"/>
      <use xlink:href="#SimHei-79f0" x="300"/>
     </g>
    </g>
   </g>
   <g id="patch_3">
    <path d="M 333.66625 342.9075 
L 479.283167 342.9075 
L 479.283167 334.5075 
L 333.66625 334.5075 
z
" clip-path="url(#pbad8d850fa)" style="fill: #bf0000"/>
   </g>
   <g id="patch_4">
    <path d="M 333.66625 321.9075 
L 480.01491 321.9075 
L 480.01491 313.5075 
L 333.66625 313.5075 
z
" clip-path="url(#pbad8d850fa)" style="fill: #bf0000"/>
   </g>
   <g id="patch_5">
    <path d="M 333.66625 300.9075 
L 481.478397 300.9075 
L 481.478397 292.5075 
L 333.66625 292.5075 
z
" clip-path="url(#pbad8d850fa)" style="fill: #bf0000"/>
   </g>
   <g id="patch_6">
    <path d="M 333.66625 279.9075 
L 485.137113 279.9075 
L 485.137113 271.5075 
L 333.66625 271.5075 
z
" clip-path="url(#pbad8d850fa)" style="fill: #bf0000"/>
   </g>
   <g id="patch_7">
    <path d="M 333.66625 258.9075 
L 490.991059 258.9075 
L 490.991059 250.5075 
L 333.66625 250.5075 
z
" clip-path="url(#pbad8d850fa)" style="fill: #bf0000"/>
   </g>
   <g id="patch_8">
    <path d="M 333.66625 237.9075 
L 499.040236 237.9075 
L 499.040236 229.5075 
L 333.66625 229.5075 
z
" clip-path="url(#pbad8d850fa)" style="fill: #bf0000"/>
   </g>
   <g id="patch_9">
    <path d="M 333.66625 216.9075 
L 524.651251 216.9075 
L 524.651251 208.5075 
L 333.66625 208.5075 
z
" clip-path="url(#pbad8d850fa)" style="fill: #bf0000"/>
   </g>
   <g id="patch_10">
    <path d="M 333.66625 195.9075 
L 531.968684 195.9075 
L 531.968684 187.5075 
L 333.66625 187.5075 
z
" clip-path="url(#pbad8d850fa)" style="fill: #bf0000"/>
   </g>
   <g id="patch_11">
    <path d="M 333.66625 174.9075 
L 548.79878 174.9075 
L 548.79878 166.5075 
L 333.66625 166.5075 
z
" clip-path="url(#pbad8d850fa)" style="fill: #bf0000"/>
   </g>
   <g id="patch_12">
    <path d="M 333.66625 153.9075 
L 570.019336 153.9075 
L 570.019336 145.5075 
L 333.66625 145.5075 
z
" clip-path="url(#pbad8d850fa)" style="fill: #bf0000"/>
   </g>
   <g id="patch_13">
    <path d="M 333.66625 132.9075 
L 579.531999 132.9075 
L 579.531999 124.5075 
L 333.66625 124.5075 
z
" clip-path="url(#pbad8d850fa)" style="fill: #bf0000"/>
   </g>
   <g id="patch_14">
    <path d="M 333.66625 111.9075 
L 591.239892 111.9075 
L 591.239892 103.5075 
L 333.66625 103.5075 
z
" clip-path="url(#pbad8d850fa)" style="fill: #bf0000"/>
   </g>
   <g id="patch_15">
    <path d="M 333.66625 90.9075 
L 631.485773 90.9075 
L 631.485773 82.5075 
L 333.66625 82.5075 
z
" clip-path="url(#pbad8d850fa)" style="fill: #bf0000"/>
   </g>
   <g id="patch_16">
    <path d="M 333.66625 69.9075 
L 654.169815 69.9075 
L 654.169815 61.5075 
L 333.66625 61.5075 
z
" clip-path="url(#pbad8d850fa)" style="fill: #bf0000"/>
   </g>
   <g id="patch_17">
    <path d="M 333.66625 48.9075 
L 758.809107 48.9075 
L 758.809107 40.5075 
L 333.66625 40.5075 
z
" clip-path="url(#pbad8d850fa)" style="fill: #bf0000"/>
   </g>
   <g id="patch_18">
    <path d="M 333.66625 358.0275 
L 333.66625 25.3875 
" style="fill: none; stroke: #cccccc; stroke-linejoin: miter; stroke-linecap: square"/>
   </g>
   <g id="patch_19">
    <path d="M 780.06625 358.0275 
L 780.06625 25.3875 
" style="fill: none; stroke: #cccccc; stroke-linejoin: miter; stroke-linecap: square"/>
   </g>
   <g id="patch_20">
    <path d="M 333.66625 358.0275 
L 780.06625 358.0275 
" style="fill: none; stroke: #cccccc; stroke-linejoin: miter; stroke-linecap: square"/>
   </g>
   <g id="patch_21">
    <path d="M 333.66625 25.3875 
L 780.06625 25.3875 
" style="fill: none; stroke: #cccccc; stroke-linejoin: miter; stroke-linecap: square"/>
   </g>
   <g id="text_25">
    <!-- 199 -->
    <g style="fill: #262626" transform="translate(479.283167 342.2775) scale(0.13 -0.13)">
     <defs>
      <path id="TimesNewRomanPSMT-31" d="M 750 3822 
L 1781 4325 
L 1884 4325 
L 1884 747 
Q 1884 391 1914 303 
Q 1944 216 2037 169 
Q 2131 122 2419 116 
L 2419 0 
L 825 0 
L 825 116 
Q 1125 122 1212 167 
Q 1300 213 1334 289 
Q 1369 366 1369 747 
L 1369 3034 
Q 1369 3497 1338 3628 
Q 1316 3728 1258 3775 
Q 1200 3822 1119 3822 
Q 1003 3822 797 3725 
L 750 3822 
z
" transform="scale(0.015625)"/>
      <path id="TimesNewRomanPSMT-39" d="M 338 -88 
L 338 28 
Q 744 34 1094 217 
Q 1444 400 1770 856 
Q 2097 1313 2225 1859 
Q 1734 1544 1338 1544 
Q 891 1544 572 1889 
Q 253 2234 253 2806 
Q 253 3363 572 3797 
Q 956 4325 1575 4325 
Q 2097 4325 2469 3894 
Q 2925 3359 2925 2575 
Q 2925 1869 2578 1258 
Q 2231 647 1613 244 
Q 1109 -88 516 -88 
L 338 -88 
z
M 2275 2091 
Q 2331 2497 2331 2741 
Q 2331 3044 2228 3395 
Q 2125 3747 1936 3934 
Q 1747 4122 1506 4122 
Q 1228 4122 1018 3872 
Q 809 3622 809 3128 
Q 809 2469 1088 2097 
Q 1291 1828 1588 1828 
Q 1731 1828 1928 1897 
Q 2125 1966 2275 2091 
z
" transform="scale(0.015625)"/>
     </defs>
     <use xlink:href="#TimesNewRomanPSMT-31"/>
     <use xlink:href="#TimesNewRomanPSMT-39" x="50"/>
     <use xlink:href="#TimesNewRomanPSMT-39" x="100"/>
    </g>
   </g>
   <g id="text_26">
    <!-- 200 -->
    <g style="fill: #262626" transform="translate(480.01491 321.2775) scale(0.13 -0.13)">
     <defs>
      <path id="TimesNewRomanPSMT-32" d="M 2934 816 
L 2638 0 
L 138 0 
L 138 116 
Q 1241 1122 1691 1759 
Q 2141 2397 2141 2925 
Q 2141 3328 1894 3587 
Q 1647 3847 1303 3847 
Q 991 3847 742 3664 
Q 494 3481 375 3128 
L 259 3128 
Q 338 3706 661 4015 
Q 984 4325 1469 4325 
Q 1984 4325 2329 3994 
Q 2675 3663 2675 3213 
Q 2675 2891 2525 2569 
Q 2294 2063 1775 1497 
Q 997 647 803 472 
L 1909 472 
Q 2247 472 2383 497 
Q 2519 522 2628 598 
Q 2738 675 2819 816 
L 2934 816 
z
" transform="scale(0.015625)"/>
      <path id="TimesNewRomanPSMT-30" d="M 231 2094 
Q 231 2819 450 3342 
Q 669 3866 1031 4122 
Q 1313 4325 1613 4325 
Q 2100 4325 2488 3828 
Q 2972 3213 2972 2159 
Q 2972 1422 2759 906 
Q 2547 391 2217 158 
Q 1888 -75 1581 -75 
Q 975 -75 572 641 
Q 231 1244 231 2094 
z
M 844 2016 
Q 844 1141 1059 588 
Q 1238 122 1591 122 
Q 1759 122 1940 273 
Q 2122 425 2216 781 
Q 2359 1319 2359 2297 
Q 2359 3022 2209 3506 
Q 2097 3866 1919 4016 
Q 1791 4119 1609 4119 
Q 1397 4119 1231 3928 
Q 1006 3669 925 3112 
Q 844 2556 844 2016 
z
" transform="scale(0.015625)"/>
     </defs>
     <use xlink:href="#TimesNewRomanPSMT-32"/>
     <use xlink:href="#TimesNewRomanPSMT-30" x="50"/>
     <use xlink:href="#TimesNewRomanPSMT-30" x="100"/>
    </g>
   </g>
   <g id="text_27">
    <!-- 202 -->
    <g style="fill: #262626" transform="translate(481.478397 300.2775) scale(0.13 -0.13)">
     <use xlink:href="#TimesNewRomanPSMT-32"/>
     <use xlink:href="#TimesNewRomanPSMT-30" x="50"/>
     <use xlink:href="#TimesNewRomanPSMT-32" x="100"/>
    </g>
   </g>
   <g id="text_28">
    <!-- 207 -->
    <g style="fill: #262626" transform="translate(485.137113 279.2775) scale(0.13 -0.13)">
     <defs>
      <path id="TimesNewRomanPSMT-37" d="M 644 4238 
L 2916 4238 
L 2916 4119 
L 1503 -88 
L 1153 -88 
L 2419 3728 
L 1253 3728 
Q 900 3728 750 3644 
Q 488 3500 328 3200 
L 238 3234 
L 644 4238 
z
" transform="scale(0.015625)"/>
     </defs>
     <use xlink:href="#TimesNewRomanPSMT-32"/>
     <use xlink:href="#TimesNewRomanPSMT-30" x="50"/>
     <use xlink:href="#TimesNewRomanPSMT-37" x="100"/>
    </g>
   </g>
   <g id="text_29">
    <!-- 215 -->
    <g style="fill: #262626" transform="translate(490.991059 258.2775) scale(0.13 -0.13)">
     <defs>
      <path id="TimesNewRomanPSMT-35" d="M 2778 4238 
L 2534 3706 
L 1259 3706 
L 981 3138 
Q 1809 3016 2294 2522 
Q 2709 2097 2709 1522 
Q 2709 1188 2573 903 
Q 2438 619 2231 419 
Q 2025 219 1772 97 
Q 1413 -75 1034 -75 
Q 653 -75 479 54 
Q 306 184 306 341 
Q 306 428 378 495 
Q 450 563 559 563 
Q 641 563 702 538 
Q 763 513 909 409 
Q 1144 247 1384 247 
Q 1750 247 2026 523 
Q 2303 800 2303 1197 
Q 2303 1581 2056 1914 
Q 1809 2247 1375 2428 
Q 1034 2569 447 2591 
L 1259 4238 
L 2778 4238 
z
" transform="scale(0.015625)"/>
     </defs>
     <use xlink:href="#TimesNewRomanPSMT-32"/>
     <use xlink:href="#TimesNewRomanPSMT-31" x="50"/>
     <use xlink:href="#TimesNewRomanPSMT-35" x="100"/>
    </g>
   </g>
   <g id="text_30">
    <!-- 226 -->
    <g style="fill: #262626" transform="translate(499.040236 237.2775) scale(0.13 -0.13)">
     <defs>
      <path id="TimesNewRomanPSMT-36" d="M 2869 4325 
L 2869 4209 
Q 2456 4169 2195 4045 
Q 1934 3922 1679 3669 
Q 1425 3416 1258 3105 
Q 1091 2794 978 2366 
Q 1428 2675 1881 2675 
Q 2316 2675 2634 2325 
Q 2953 1975 2953 1425 
Q 2953 894 2631 456 
Q 2244 -75 1606 -75 
Q 1172 -75 869 213 
Q 275 772 275 1663 
Q 275 2231 503 2743 
Q 731 3256 1154 3653 
Q 1578 4050 1965 4187 
Q 2353 4325 2688 4325 
L 2869 4325 
z
M 925 2138 
Q 869 1716 869 1456 
Q 869 1156 980 804 
Q 1091 453 1309 247 
Q 1469 100 1697 100 
Q 1969 100 2183 356 
Q 2397 613 2397 1088 
Q 2397 1622 2184 2012 
Q 1972 2403 1581 2403 
Q 1463 2403 1327 2353 
Q 1191 2303 925 2138 
z
" transform="scale(0.015625)"/>
     </defs>
     <use xlink:href="#TimesNewRomanPSMT-32"/>
     <use xlink:href="#TimesNewRomanPSMT-32" x="50"/>
     <use xlink:href="#TimesNewRomanPSMT-36" x="100"/>
    </g>
   </g>
   <g id="text_31">
    <!-- 261 -->
    <g style="fill: #262626" transform="translate(524.651251 216.2775) scale(0.13 -0.13)">
     <use xlink:href="#TimesNewRomanPSMT-32"/>
     <use xlink:href="#TimesNewRomanPSMT-36" x="50"/>
     <use xlink:href="#TimesNewRomanPSMT-31" x="100"/>
    </g>
   </g>
   <g id="text_32">
    <!-- 271 -->
    <g style="fill: #262626" transform="translate(531.968684 195.2775) scale(0.13 -0.13)">
     <use xlink:href="#TimesNewRomanPSMT-32"/>
     <use xlink:href="#TimesNewRomanPSMT-37" x="50"/>
     <use xlink:href="#TimesNewRomanPSMT-31" x="100"/>
    </g>
   </g>
   <g id="text_33">
    <!-- 294 -->
    <g style="fill: #262626" transform="translate(548.79878 174.2775) scale(0.13 -0.13)">
     <defs>
      <path id="TimesNewRomanPSMT-34" d="M 2978 1563 
L 2978 1119 
L 2409 1119 
L 2409 0 
L 1894 0 
L 1894 1119 
L 100 1119 
L 100 1519 
L 2066 4325 
L 2409 4325 
L 2409 1563 
L 2978 1563 
z
M 1894 1563 
L 1894 3666 
L 406 1563 
L 1894 1563 
z
" transform="scale(0.015625)"/>
     </defs>
     <use xlink:href="#TimesNewRomanPSMT-32"/>
     <use xlink:href="#TimesNewRomanPSMT-39" x="50"/>
     <use xlink:href="#TimesNewRomanPSMT-34" x="100"/>
    </g>
   </g>
   <g id="text_34">
    <!-- 323 -->
    <g style="fill: #262626" transform="translate(570.019336 153.2775) scale(0.13 -0.13)">
     <defs>
      <path id="TimesNewRomanPSMT-33" d="M 325 3431 
Q 506 3859 782 4092 
Q 1059 4325 1472 4325 
Q 1981 4325 2253 3994 
Q 2459 3747 2459 3466 
Q 2459 3003 1878 2509 
Q 2269 2356 2469 2072 
Q 2669 1788 2669 1403 
Q 2669 853 2319 450 
Q 1863 -75 997 -75 
Q 569 -75 414 31 
Q 259 138 259 259 
Q 259 350 332 419 
Q 406 488 509 488 
Q 588 488 669 463 
Q 722 447 909 348 
Q 1097 250 1169 231 
Q 1284 197 1416 197 
Q 1734 197 1970 444 
Q 2206 691 2206 1028 
Q 2206 1275 2097 1509 
Q 2016 1684 1919 1775 
Q 1784 1900 1550 2001 
Q 1316 2103 1072 2103 
L 972 2103 
L 972 2197 
Q 1219 2228 1467 2375 
Q 1716 2522 1828 2728 
Q 1941 2934 1941 3181 
Q 1941 3503 1739 3701 
Q 1538 3900 1238 3900 
Q 753 3900 428 3381 
L 325 3431 
z
" transform="scale(0.015625)"/>
     </defs>
     <use xlink:href="#TimesNewRomanPSMT-33"/>
     <use xlink:href="#TimesNewRomanPSMT-32" x="50"/>
     <use xlink:href="#TimesNewRomanPSMT-33" x="100"/>
    </g>
   </g>
   <g id="text_35">
    <!-- 336 -->
    <g style="fill: #262626" transform="translate(579.531999 132.2775) scale(0.13 -0.13)">
     <use xlink:href="#TimesNewRomanPSMT-33"/>
     <use xlink:href="#TimesNewRomanPSMT-33" x="50"/>
     <use xlink:href="#TimesNewRomanPSMT-36" x="100"/>
    </g>
   </g>
   <g id="text_36">
    <!-- 352 -->
    <g style="fill: #262626" transform="translate(591.239892 111.2775) scale(0.13 -0.13)">
     <use xlink:href="#TimesNewRomanPSMT-33"/>
     <use xlink:href="#TimesNewRomanPSMT-35" x="50"/>
     <use xlink:href="#TimesNewRomanPSMT-32" x="100"/>
    </g>
   </g>
   <g id="text_37">
    <!-- 407 -->
    <g style="fill: #262626" transform="translate(631.485773 90.2775) scale(0.13 -0.13)">
     <use xlink:href="#TimesNewRomanPSMT-34"/>
     <use xlink:href="#TimesNewRomanPSMT-30" x="50"/>
     <use xlink:href="#TimesNewRomanPSMT-37" x="100"/>
    </g>
   </g>
   <g id="text_38">
    <!-- 438 -->
    <g style="fill: #262626" transform="translate(654.169815 69.2775) scale(0.13 -0.13)">
     <defs>
      <path id="TimesNewRomanPSMT-38" d="M 1228 2134 
Q 725 2547 579 2797 
Q 434 3047 434 3316 
Q 434 3728 753 4026 
Q 1072 4325 1600 4325 
Q 2113 4325 2425 4047 
Q 2738 3769 2738 3413 
Q 2738 3175 2569 2928 
Q 2400 2681 1866 2347 
Q 2416 1922 2594 1678 
Q 2831 1359 2831 1006 
Q 2831 559 2490 242 
Q 2150 -75 1597 -75 
Q 994 -75 656 303 
Q 388 606 388 966 
Q 388 1247 577 1523 
Q 766 1800 1228 2134 
z
M 1719 2469 
Q 2094 2806 2194 3001 
Q 2294 3197 2294 3444 
Q 2294 3772 2109 3958 
Q 1925 4144 1606 4144 
Q 1288 4144 1088 3959 
Q 888 3775 888 3528 
Q 888 3366 970 3203 
Q 1053 3041 1206 2894 
L 1719 2469 
z
M 1375 2016 
Q 1116 1797 991 1539 
Q 866 1281 866 981 
Q 866 578 1086 336 
Q 1306 94 1647 94 
Q 1984 94 2187 284 
Q 2391 475 2391 747 
Q 2391 972 2272 1150 
Q 2050 1481 1375 2016 
z
" transform="scale(0.015625)"/>
     </defs>
     <use xlink:href="#TimesNewRomanPSMT-34"/>
     <use xlink:href="#TimesNewRomanPSMT-33" x="50"/>
     <use xlink:href="#TimesNewRomanPSMT-38" x="100"/>
    </g>
   </g>
   <g id="text_39">
    <!-- 581 -->
    <g style="fill: #262626" transform="translate(758.809107 48.2775) scale(0.13 -0.13)">
     <use xlink:href="#TimesNewRomanPSMT-35"/>
     <use xlink:href="#TimesNewRomanPSMT-38" x="50"/>
     <use xlink:href="#TimesNewRomanPSMT-31" x="100"/>
    </g>
   </g>
   <g id="text_40">
    <!-- 美赛各参加学校参赛计数前十五名 -->
    <g style="fill: #262626" transform="translate(444.36625 19.3875) scale(0.15 -0.15)">
     <defs>
      <path id="SimHei-7f8e" d="M 4650 5000 
Q 4525 4900 4150 4350 
L 4800 4350 
Q 5300 4350 5575 4375 
L 5575 3950 
Q 5300 3975 4800 3975 
L 3450 3975 
L 3450 3375 
L 4475 3375 
Q 4875 3375 5250 3400 
L 5250 3000 
Q 4875 3025 4475 3025 
L 3450 3025 
L 3450 2450 
L 5025 2450 
Q 5500 2450 5900 2475 
L 5900 2050 
Q 5525 2075 5025 2075 
L 1425 2075 
Q 900 2075 525 2050 
L 525 2475 
Q 900 2450 1425 2450 
L 3000 2450 
L 3000 3025 
L 2050 3025 
Q 1625 3025 1200 3000 
L 1200 3400 
Q 1625 3375 2050 3375 
L 3000 3375 
L 3000 3975 
L 1725 3975 
Q 1325 3975 850 3950 
L 850 4375 
Q 1325 4350 1725 4350 
L 2250 4350 
Q 2100 4625 1800 4975 
Q 2000 5100 2175 5225 
L 2700 4550 
Q 2475 4450 2325 4350 
L 3675 4350 
Q 3900 4700 4150 5275 
Q 4350 5125 4650 5000 
z
M 525 -225 
Q 950 -175 1425 -25 
Q 1900 125 2275 412 
Q 2650 700 2800 1050 
L 1875 1050 
Q 1325 1050 725 1025 
L 725 1450 
Q 1325 1425 1875 1425 
L 2900 1425 
Q 2925 1750 2925 1975 
Q 3250 1875 3500 1875 
Q 3425 1650 3375 1425 
L 4600 1425 
Q 5250 1425 5725 1450 
L 5725 1025 
Q 5250 1050 4625 1050 
L 3600 1050 
Q 3900 700 4187 500 
Q 4475 300 4700 200 
Q 4925 100 5225 12 
Q 5525 -75 6050 -150 
Q 5900 -375 5750 -675 
Q 5175 -550 4775 -362 
Q 4375 -175 3962 137 
Q 3550 450 3225 900 
Q 3000 525 2787 300 
Q 2575 75 2250 -125 
Q 1925 -325 1575 -462 
Q 1225 -600 825 -700 
Q 750 -475 525 -225 
z
" transform="scale(0.015625)"/>
      <path id="SimHei-8d5b" d="M 5850 1025 
Q 5275 1150 4800 1375 
Q 4800 1200 4775 1025 
Q 4775 725 4800 425 
L 4300 425 
L 4300 1200 
L 2100 1200 
L 2100 300 
L 1600 300 
Q 1625 675 1625 1025 
Q 1625 1300 1600 1450 
Q 1100 1175 600 1075 
Q 500 1275 300 1475 
Q 875 1550 1375 1800 
Q 1875 2050 1975 2200 
Q 800 2200 450 2175 
L 450 2575 
Q 825 2550 2075 2550 
L 2075 2875 
Q 1650 2875 1325 2850 
L 1325 3250 
Q 1700 3225 2075 3225 
L 2075 3550 
Q 1575 3550 1225 3525 
L 1225 3925 
Q 1575 3900 2075 3900 
Q 2075 4050 2050 4225 
L 2575 4225 
Q 2550 4050 2550 3900 
L 3825 3900 
Q 3825 4075 3800 4250 
L 4325 4250 
Q 4300 4075 4300 3900 
Q 4900 3900 5200 3925 
L 5200 3525 
Q 4825 3550 4300 3550 
L 4300 3225 
Q 4725 3225 5200 3250 
L 5200 2850 
Q 4750 2875 4300 2875 
L 4300 2550 
Q 5175 2550 5850 2575 
L 5850 2175 
Q 5200 2200 4350 2200 
Q 4625 1925 5025 1750 
Q 5425 1575 6175 1475 
Q 5975 1275 5850 1025 
z
M 1125 3825 
L 625 3825 
Q 650 4050 650 4275 
Q 650 4525 625 4775 
L 3125 4775 
Q 3050 5000 2975 5175 
Q 3225 5225 3450 5300 
Q 3550 5050 3625 4775 
L 5900 4775 
Q 5875 4525 5875 4275 
Q 5875 4050 5900 3750 
L 5400 3750 
L 5400 4425 
L 1125 4425 
L 1125 3825 
z
M 3525 1000 
Q 3050 50 2675 -150 
Q 2300 -350 2012 -450 
Q 1725 -550 1100 -650 
Q 1025 -450 800 -200 
Q 1450 -125 1750 -62 
Q 2050 0 2387 212 
Q 2725 425 3000 1150 
Q 3225 1050 3525 1000 
z
M 4450 1575 
Q 4050 1825 3825 2200 
L 2600 2200 
Q 2275 1825 1825 1575 
L 4450 1575 
z
M 3825 500 
Q 4250 325 5250 -200 
Q 5075 -425 4950 -650 
Q 4475 -300 3600 150 
Q 3725 300 3825 500 
z
M 3825 2550 
L 3825 2875 
L 2550 2875 
L 2550 2550 
L 3825 2550 
z
M 3825 3225 
L 3825 3550 
L 2550 3550 
L 2550 3225 
L 3825 3225 
z
" transform="scale(0.015625)"/>
      <path id="SimHei-5404" d="M 5100 4425 
Q 4850 4000 4525 3600 
Q 4200 3200 3675 2750 
Q 4050 2500 4750 2325 
Q 5450 2150 6050 2125 
Q 5825 1825 5775 1600 
Q 5050 1750 4412 1962 
Q 3775 2175 3300 2475 
Q 2750 2150 2000 1875 
Q 1250 1600 550 1425 
Q 475 1625 275 1850 
Q 900 1950 1662 2200 
Q 2425 2450 2950 2750 
Q 2525 3150 2100 3900 
Q 1900 3575 1675 3300 
Q 1450 3025 1250 2800 
Q 1050 3000 850 3100 
Q 1200 3400 1587 3950 
Q 1975 4500 2175 5225 
Q 2450 5075 2725 5000 
Q 2600 4850 2375 4425 
L 5100 4425 
z
M 4975 1675 
Q 4950 1125 4950 400 
Q 4950 -325 4975 -575 
L 4475 -575 
L 4475 -225 
L 2050 -225 
L 2050 -625 
L 1550 -625 
Q 1575 -275 1575 400 
Q 1575 1075 1550 1675 
L 4975 1675 
z
M 4475 200 
L 4475 1250 
L 2050 1250 
L 2050 200 
L 4475 200 
z
M 3325 3000 
Q 3875 3450 4300 4025 
L 2500 4025 
Q 2975 3275 3325 3000 
z
" transform="scale(0.015625)"/>
      <path id="SimHei-53c2" d="M 3325 4850 
Q 3100 4725 2850 4500 
Q 2600 4275 2175 3925 
Q 2850 3950 3275 3950 
Q 3700 3950 4200 3975 
Q 3950 4200 3600 4450 
Q 3800 4625 3925 4775 
Q 4900 4100 5325 3675 
Q 5100 3475 4925 3300 
Q 4750 3475 4550 3625 
Q 3625 3600 3200 3575 
Q 3025 3250 2925 3125 
L 5075 3125 
Q 5575 3125 5950 3150 
L 5950 2700 
Q 5600 2725 5075 2725 
L 4325 2725 
Q 4675 2350 5187 2075 
Q 5700 1800 6150 1700 
Q 5850 1550 5675 1225 
Q 5100 1525 4612 1900 
Q 4125 2275 3800 2725 
L 2725 2725 
Q 2325 2300 1812 1962 
Q 1300 1625 650 1325 
Q 525 1525 250 1700 
Q 725 1825 1237 2100 
Q 1750 2375 2100 2725 
L 1475 2725 
Q 950 2725 375 2700 
L 375 3150 
Q 875 3125 1475 3125 
L 2400 3125 
L 2550 3350 
L 2650 3550 
Q 1925 3500 1775 3475 
Q 1625 3450 1500 3425 
Q 1375 3725 1300 3875 
Q 1600 3950 2050 4337 
Q 2500 4725 2825 5225 
Q 3025 5050 3325 4850 
z
M 5350 800 
Q 5025 650 4612 437 
Q 4200 225 3850 75 
Q 3500 -75 3062 -212 
Q 2625 -350 2150 -450 
Q 1675 -550 1225 -600 
Q 1150 -350 900 -150 
Q 1675 -125 2362 25 
Q 3050 175 3512 387 
Q 3975 600 4312 800 
Q 4650 1000 4900 1250 
Q 5100 1025 5350 800 
z
M 4550 1450 
Q 4350 1375 4037 1200 
Q 3725 1025 3350 862 
Q 2975 700 2512 550 
Q 2050 400 1575 325 
Q 1450 575 1250 775 
Q 1775 800 2175 900 
Q 2575 1000 3075 1212 
Q 3575 1425 4125 1850 
Q 4300 1675 4550 1450 
z
M 3900 2075 
Q 3575 1950 3350 1825 
Q 3125 1700 2687 1525 
Q 2250 1350 1750 1200 
Q 1625 1425 1450 1600 
Q 2025 1700 2587 1937 
Q 3150 2175 3500 2500 
Q 3700 2275 3900 2075 
z
" transform="scale(0.015625)"/>
      <path id="SimHei-52a0" d="M 5700 4150 
Q 5675 3625 5675 3100 
L 5675 900 
Q 5675 300 5700 -350 
L 5225 -350 
L 5225 225 
L 4150 225 
L 4150 -475 
L 3675 -475 
Q 3700 25 3700 550 
L 3700 3100 
Q 3700 3600 3675 4150 
L 5700 4150 
z
M 3125 225 
Q 3050 -250 2725 -337 
Q 2400 -425 2025 -450 
Q 2025 -225 1875 125 
Q 2300 100 2475 137 
Q 2650 175 2675 425 
L 2850 3425 
L 1975 3425 
Q 1925 2450 1812 1875 
Q 1700 1300 1562 875 
Q 1425 450 1187 37 
Q 950 -375 775 -600 
Q 600 -400 275 -250 
Q 750 225 987 787 
Q 1225 1350 1312 1837 
Q 1400 2325 1425 2637 
Q 1450 2950 1475 3425 
L 1125 3425 
Q 850 3425 550 3400 
L 550 3900 
Q 825 3850 1175 3850 
L 1500 3850 
Q 1525 4375 1525 4475 
Q 1525 4600 1500 5075 
Q 1775 5050 2125 5025 
Q 2075 4825 2050 4600 
Q 2025 4375 2000 3850 
L 3350 3850 
Q 3325 3650 3325 3425 
L 3125 225 
z
M 5225 725 
L 5225 3700 
L 4150 3700 
L 4150 725 
L 5225 725 
z
" transform="scale(0.015625)"/>
      <path id="SimHei-524d" d="M 2075 -100 
Q 2400 -100 2537 -87 
Q 2675 -75 2675 100 
L 2675 875 
L 1325 875 
L 1325 -650 
L 800 -650 
Q 850 -200 850 350 
L 850 2350 
Q 850 2850 825 3300 
L 3175 3300 
Q 3150 2875 3150 2375 
L 3150 -150 
Q 3150 -400 2950 -475 
Q 2750 -550 2275 -625 
Q 2200 -350 2075 -100 
z
M 4950 5075 
Q 4825 4975 4687 4750 
Q 4550 4525 4375 4225 
L 5400 4225 
Q 5750 4225 6175 4250 
L 6175 3775 
Q 5775 3825 5300 3825 
L 1350 3825 
Q 700 3825 250 3775 
L 250 4250 
Q 775 4225 1350 4225 
L 3875 4225 
Q 4300 5025 4350 5300 
Q 4625 5150 4950 5075 
z
M 4375 -75 
Q 4825 -100 4937 -75 
Q 5050 -50 5050 150 
L 5050 2750 
Q 5050 3050 5025 3400 
L 5550 3400 
Q 5525 3075 5525 2750 
L 5525 -25 
Q 5525 -350 5362 -450 
Q 5200 -550 4600 -600 
Q 4550 -275 4375 -75 
z
M 3775 575 
Q 3800 950 3800 1225 
L 3800 2375 
Q 3800 2775 3775 3075 
L 4300 3075 
Q 4275 2775 4275 2375 
L 4275 1250 
Q 4275 875 4300 575 
L 3775 575 
z
M 2675 2250 
L 2675 2925 
L 1325 2925 
L 1325 2250 
L 2675 2250 
z
M 2675 1250 
L 2675 1875 
L 1325 1875 
L 1325 1250 
L 2675 1250 
z
M 2225 4300 
Q 2125 4575 1750 5050 
Q 2025 5175 2200 5300 
Q 2550 4850 2725 4550 
Q 2500 4450 2225 4300 
z
" transform="scale(0.015625)"/>
      <path id="SimHei-5341" d="M 2925 2875 
L 2925 4275 
Q 2925 4750 2900 5125 
L 3500 5125 
Q 3475 4750 3475 4300 
L 3475 2875 
L 5150 2875 
Q 5550 2875 6100 2900 
L 6100 2400 
Q 5575 2425 5150 2425 
L 3475 2425 
L 3475 675 
Q 3475 175 3500 -500 
L 2900 -500 
Q 2925 175 2925 700 
L 2925 2425 
L 1275 2425 
Q 875 2425 325 2400 
L 325 2900 
Q 875 2875 1300 2875 
L 2925 2875 
z
" transform="scale(0.015625)"/>
      <path id="SimHei-4e94" d="M 4975 4600 
Q 5325 4600 5650 4625 
L 5650 4175 
Q 5325 4200 5000 4200 
L 3150 4200 
L 3000 2875 
L 4950 2875 
Q 4900 2575 4900 2125 
L 4850 300 
Q 5650 300 6000 325 
L 6000 -200 
Q 5650 -175 4975 -175 
L 1375 -175 
Q 775 -175 425 -225 
L 425 325 
Q 800 300 1325 300 
L 2150 300 
L 2450 2475 
L 1850 2475 
Q 1400 2475 1125 2450 
L 1125 2900 
Q 1425 2875 1850 2875 
L 2525 2875 
L 2675 4200 
L 1550 4200 
Q 1150 4200 800 4175 
L 800 4625 
Q 1125 4600 1550 4600 
L 4975 4600 
z
M 4350 300 
L 4425 2475 
L 2950 2475 
L 2650 300 
L 4350 300 
z
" transform="scale(0.015625)"/>
     </defs>
     <use xlink:href="#SimHei-7f8e"/>
     <use xlink:href="#SimHei-8d5b" x="100"/>
     <use xlink:href="#SimHei-5404" x="200"/>
     <use xlink:href="#SimHei-53c2" x="300"/>
     <use xlink:href="#SimHei-52a0" x="400"/>
     <use xlink:href="#SimHei-5b66" x="500"/>
     <use xlink:href="#SimHei-6821" x="600"/>
     <use xlink:href="#SimHei-53c2" x="700"/>
     <use xlink:href="#SimHei-8d5b" x="800"/>
     <use xlink:href="#SimHei-8ba1" x="900"/>
     <use xlink:href="#SimHei-6570" x="1000"/>
     <use xlink:href="#SimHei-524d" x="1100"/>
     <use xlink:href="#SimHei-5341" x="1200"/>
     <use xlink:href="#SimHei-4e94" x="1300"/>
     <use xlink:href="#SimHei-540d" x="1400"/>
    </g>
   </g>
  </g>
 </g>
 <defs>
  <clipPath id="pbad8d850fa">
   <rect x="333.66625" y="25.3875" width="446.4" height="332.64"/>
  </clipPath>
 </defs>
</svg>
