<?xml version="1.0" encoding="utf-8" standalone="no"?>
<!DOCTYPE svg PUBLIC "-//W3C//DTD SVG 1.1//EN"
  "http://www.w3.org/Graphics/SVG/1.1/DTD/svg11.dtd">
<svg xmlns:xlink="http://www.w3.org/1999/xlink" width="814.019844pt" height="401.58125pt" viewBox="0 0 814.019844 401.58125" xmlns="http://www.w3.org/2000/svg" version="1.1">
 <metadata>
  <rdf:RDF xmlns:dc="http://purl.org/dc/elements/1.1/" xmlns:cc="http://creativecommons.org/ns#" xmlns:rdf="http://www.w3.org/1999/02/22-rdf-syntax-ns#">
   <cc:Work>
    <dc:type rdf:resource="http://purl.org/dc/dcmitype/StillImage"/>
    <dc:date>2023-05-11T19:41:12.321958</dc:date>
    <dc:format>image/svg+xml</dc:format>
    <dc:creator>
     <cc:Agent>
      <dc:title>Matplotlib v3.7.1, https://matplotlib.org/</dc:title>
     </cc:Agent>
    </dc:creator>
   </cc:Work>
  </rdf:RDF>
 </metadata>
 <defs>
  <style type="text/css">*{stroke-linejoin: round; stroke-linecap: butt}</style>
 </defs>
 <g id="figure_1">
  <g id="patch_1">
   <path d="M 0 401.58125 
L 814.019844 401.58125 
L 814.019844 0 
L 0 0 
z
" style="fill: #ffffff"/>
  </g>
  <g id="axes_1">
   <g id="patch_2">
    <path d="M 360.419844 358.261875 
L 806.819844 358.261875 
L 806.819844 25.621875 
L 360.419844 25.621875 
z
" style="fill: #ffffff"/>
   </g>
   <g id="matplotlib.axis_1">
    <g id="xtick_1">
     <g id="line2d_1">
      <path d="M 360.419844 358.261875 
L 360.419844 25.621875 
" clip-path="url(#pb0d64fa120)" style="fill: none; stroke: #cccccc; stroke-width: 0.8; stroke-linecap: round"/>
     </g>
     <g id="line2d_2">
      <defs>
       <path id="m470440e536" d="M 0 0 
L 0 5 
" style="stroke: #262626; stroke-width: 0.8"/>
      </defs>
      <g>
       <use xlink:href="#m470440e536" x="360.419844" y="358.261875" style="fill: #262626; stroke: #262626; stroke-width: 0.8"/>
      </g>
     </g>
     <g id="text_1">
      <!-- 0.0 -->
      <g style="fill: #262626" transform="translate(351.384844 376.067031) scale(0.13 -0.13)">
       <defs>
        <path id="ArialMT-30" d="M 266 2259 
Q 266 3072 433 3567 
Q 600 4063 929 4331 
Q 1259 4600 1759 4600 
Q 2128 4600 2406 4451 
Q 2684 4303 2865 4023 
Q 3047 3744 3150 3342 
Q 3253 2941 3253 2259 
Q 3253 1453 3087 958 
Q 2922 463 2592 192 
Q 2263 -78 1759 -78 
Q 1097 -78 719 397 
Q 266 969 266 2259 
z
M 844 2259 
Q 844 1131 1108 757 
Q 1372 384 1759 384 
Q 2147 384 2411 759 
Q 2675 1134 2675 2259 
Q 2675 3391 2411 3762 
Q 2147 4134 1753 4134 
Q 1366 4134 1134 3806 
Q 844 3388 844 2259 
z
" transform="scale(0.015625)"/>
        <path id="ArialMT-2e" d="M 581 0 
L 581 641 
L 1222 641 
L 1222 0 
L 581 0 
z
" transform="scale(0.015625)"/>
       </defs>
       <use xlink:href="#ArialMT-30"/>
       <use xlink:href="#ArialMT-2e" x="55.615234"/>
       <use xlink:href="#ArialMT-30" x="83.398438"/>
      </g>
     </g>
    </g>
    <g id="xtick_2">
     <g id="line2d_3">
      <path d="M 431.276987 358.261875 
L 431.276987 25.621875 
" clip-path="url(#pb0d64fa120)" style="fill: none; stroke: #cccccc; stroke-width: 0.8; stroke-linecap: round"/>
     </g>
     <g id="line2d_4">
      <g>
       <use xlink:href="#m470440e536" x="431.276987" y="358.261875" style="fill: #262626; stroke: #262626; stroke-width: 0.8"/>
      </g>
     </g>
     <g id="text_2">
      <!-- 0.5 -->
      <g style="fill: #262626" transform="translate(422.241987 376.067031) scale(0.13 -0.13)">
       <defs>
        <path id="ArialMT-35" d="M 266 1200 
L 856 1250 
Q 922 819 1161 601 
Q 1400 384 1738 384 
Q 2144 384 2425 690 
Q 2706 997 2706 1503 
Q 2706 1984 2436 2262 
Q 2166 2541 1728 2541 
Q 1456 2541 1237 2417 
Q 1019 2294 894 2097 
L 366 2166 
L 809 4519 
L 3088 4519 
L 3088 3981 
L 1259 3981 
L 1013 2750 
Q 1425 3038 1878 3038 
Q 2478 3038 2890 2622 
Q 3303 2206 3303 1553 
Q 3303 931 2941 478 
Q 2500 -78 1738 -78 
Q 1113 -78 717 272 
Q 322 622 266 1200 
z
" transform="scale(0.015625)"/>
       </defs>
       <use xlink:href="#ArialMT-30"/>
       <use xlink:href="#ArialMT-2e" x="55.615234"/>
       <use xlink:href="#ArialMT-35" x="83.398438"/>
      </g>
     </g>
    </g>
    <g id="xtick_3">
     <g id="line2d_5">
      <path d="M 502.134129 358.261875 
L 502.134129 25.621875 
" clip-path="url(#pb0d64fa120)" style="fill: none; stroke: #cccccc; stroke-width: 0.8; stroke-linecap: round"/>
     </g>
     <g id="line2d_6">
      <g>
       <use xlink:href="#m470440e536" x="502.134129" y="358.261875" style="fill: #262626; stroke: #262626; stroke-width: 0.8"/>
      </g>
     </g>
     <g id="text_3">
      <!-- 1.0 -->
      <g style="fill: #262626" transform="translate(493.099129 376.067031) scale(0.13 -0.13)">
       <defs>
        <path id="ArialMT-31" d="M 2384 0 
L 1822 0 
L 1822 3584 
Q 1619 3391 1289 3197 
Q 959 3003 697 2906 
L 697 3450 
Q 1169 3672 1522 3987 
Q 1875 4303 2022 4600 
L 2384 4600 
L 2384 0 
z
" transform="scale(0.015625)"/>
       </defs>
       <use xlink:href="#ArialMT-31"/>
       <use xlink:href="#ArialMT-2e" x="55.615234"/>
       <use xlink:href="#ArialMT-30" x="83.398438"/>
      </g>
     </g>
    </g>
    <g id="xtick_4">
     <g id="line2d_7">
      <path d="M 572.991272 358.261875 
L 572.991272 25.621875 
" clip-path="url(#pb0d64fa120)" style="fill: none; stroke: #cccccc; stroke-width: 0.8; stroke-linecap: round"/>
     </g>
     <g id="line2d_8">
      <g>
       <use xlink:href="#m470440e536" x="572.991272" y="358.261875" style="fill: #262626; stroke: #262626; stroke-width: 0.8"/>
      </g>
     </g>
     <g id="text_4">
      <!-- 1.5 -->
      <g style="fill: #262626" transform="translate(563.956272 376.067031) scale(0.13 -0.13)">
       <use xlink:href="#ArialMT-31"/>
       <use xlink:href="#ArialMT-2e" x="55.615234"/>
       <use xlink:href="#ArialMT-35" x="83.398438"/>
      </g>
     </g>
    </g>
    <g id="xtick_5">
     <g id="line2d_9">
      <path d="M 643.848415 358.261875 
L 643.848415 25.621875 
" clip-path="url(#pb0d64fa120)" style="fill: none; stroke: #cccccc; stroke-width: 0.8; stroke-linecap: round"/>
     </g>
     <g id="line2d_10">
      <g>
       <use xlink:href="#m470440e536" x="643.848415" y="358.261875" style="fill: #262626; stroke: #262626; stroke-width: 0.8"/>
      </g>
     </g>
     <g id="text_5">
      <!-- 2.0 -->
      <g style="fill: #262626" transform="translate(634.813415 376.067031) scale(0.13 -0.13)">
       <defs>
        <path id="ArialMT-32" d="M 3222 541 
L 3222 0 
L 194 0 
Q 188 203 259 391 
Q 375 700 629 1000 
Q 884 1300 1366 1694 
Q 2113 2306 2375 2664 
Q 2638 3022 2638 3341 
Q 2638 3675 2398 3904 
Q 2159 4134 1775 4134 
Q 1369 4134 1125 3890 
Q 881 3647 878 3216 
L 300 3275 
Q 359 3922 746 4261 
Q 1134 4600 1788 4600 
Q 2447 4600 2831 4234 
Q 3216 3869 3216 3328 
Q 3216 3053 3103 2787 
Q 2991 2522 2730 2228 
Q 2469 1934 1863 1422 
Q 1356 997 1212 845 
Q 1069 694 975 541 
L 3222 541 
z
" transform="scale(0.015625)"/>
       </defs>
       <use xlink:href="#ArialMT-32"/>
       <use xlink:href="#ArialMT-2e" x="55.615234"/>
       <use xlink:href="#ArialMT-30" x="83.398438"/>
      </g>
     </g>
    </g>
    <g id="xtick_6">
     <g id="line2d_11">
      <path d="M 714.705558 358.261875 
L 714.705558 25.621875 
" clip-path="url(#pb0d64fa120)" style="fill: none; stroke: #cccccc; stroke-width: 0.8; stroke-linecap: round"/>
     </g>
     <g id="line2d_12">
      <g>
       <use xlink:href="#m470440e536" x="714.705558" y="358.261875" style="fill: #262626; stroke: #262626; stroke-width: 0.8"/>
      </g>
     </g>
     <g id="text_6">
      <!-- 2.5 -->
      <g style="fill: #262626" transform="translate(705.670558 376.067031) scale(0.13 -0.13)">
       <use xlink:href="#ArialMT-32"/>
       <use xlink:href="#ArialMT-2e" x="55.615234"/>
       <use xlink:href="#ArialMT-35" x="83.398438"/>
      </g>
     </g>
    </g>
    <g id="xtick_7">
     <g id="line2d_13">
      <path d="M 785.562701 358.261875 
L 785.562701 25.621875 
" clip-path="url(#pb0d64fa120)" style="fill: none; stroke: #cccccc; stroke-width: 0.8; stroke-linecap: round"/>
     </g>
     <g id="line2d_14">
      <g>
       <use xlink:href="#m470440e536" x="785.562701" y="358.261875" style="fill: #262626; stroke: #262626; stroke-width: 0.8"/>
      </g>
     </g>
     <g id="text_7">
      <!-- 3.0 -->
      <g style="fill: #262626" transform="translate(776.527701 376.067031) scale(0.13 -0.13)">
       <defs>
        <path id="ArialMT-33" d="M 269 1209 
L 831 1284 
Q 928 806 1161 595 
Q 1394 384 1728 384 
Q 2125 384 2398 659 
Q 2672 934 2672 1341 
Q 2672 1728 2419 1979 
Q 2166 2231 1775 2231 
Q 1616 2231 1378 2169 
L 1441 2663 
Q 1497 2656 1531 2656 
Q 1891 2656 2178 2843 
Q 2466 3031 2466 3422 
Q 2466 3731 2256 3934 
Q 2047 4138 1716 4138 
Q 1388 4138 1169 3931 
Q 950 3725 888 3313 
L 325 3413 
Q 428 3978 793 4289 
Q 1159 4600 1703 4600 
Q 2078 4600 2393 4439 
Q 2709 4278 2876 4000 
Q 3044 3722 3044 3409 
Q 3044 3113 2884 2869 
Q 2725 2625 2413 2481 
Q 2819 2388 3044 2092 
Q 3269 1797 3269 1353 
Q 3269 753 2831 336 
Q 2394 -81 1725 -81 
Q 1122 -81 723 278 
Q 325 638 269 1209 
z
" transform="scale(0.015625)"/>
       </defs>
       <use xlink:href="#ArialMT-33"/>
       <use xlink:href="#ArialMT-2e" x="55.615234"/>
       <use xlink:href="#ArialMT-30" x="83.398438"/>
      </g>
     </g>
    </g>
    <g id="text_8">
     <!-- 计数 -->
     <g style="fill: #262626" transform="translate(570.619844 392.75625) scale(0.13 -0.13)">
      <defs>
       <path id="SimHei-8ba1" d="M 3925 3100 
L 3925 4350 
Q 3925 4850 3900 5125 
L 4425 5125 
Q 4400 4800 4400 4550 
L 4400 3100 
L 5425 3100 
Q 5725 3100 6075 3125 
L 6075 2650 
Q 5700 2675 5450 2675 
L 4400 2675 
L 4400 175 
Q 4400 -125 4425 -550 
L 3900 -550 
Q 3925 -125 3925 150 
L 3925 2675 
L 2950 2675 
Q 2575 2675 2200 2650 
L 2200 3125 
Q 2575 3100 2900 3100 
L 3925 3100 
z
M 1775 3150 
Q 1750 2675 1750 2150 
L 1750 625 
Q 2175 1050 2425 1400 
Q 2575 1200 2775 1000 
L 2075 300 
Q 1750 -25 1450 -350 
Q 1275 -125 1125 50 
Q 1300 250 1275 650 
L 1275 2725 
Q 600 2725 275 2700 
L 275 3175 
Q 675 3150 825 3150 
L 1775 3150 
z
M 1150 5050 
Q 1475 4725 2175 4000 
Q 1950 3800 1750 3625 
Q 1425 4100 775 4750 
Q 950 4875 1150 5050 
z
" transform="scale(0.015625)"/>
       <path id="SimHei-6570" d="M 4525 4925 
Q 4475 4800 4400 4587 
Q 4325 4375 4175 3825 
L 5325 3825 
Q 5575 3825 5925 3850 
L 5925 3400 
Q 5650 3425 5500 3425 
Q 5500 3025 5362 2162 
Q 5225 1300 4875 675 
Q 5125 375 5437 137 
Q 5750 -100 6025 -200 
Q 5725 -425 5625 -625 
Q 5325 -450 5075 -225 
Q 4825 0 4575 325 
Q 4300 25 3987 -187 
Q 3675 -400 3200 -650 
Q 3075 -425 2850 -300 
Q 3225 -150 3650 125 
Q 4075 400 4300 675 
Q 4125 1025 3962 1425 
Q 3800 1825 3675 2475 
Q 3600 2275 3425 1950 
Q 3250 2050 3000 2150 
Q 3400 2850 3650 3675 
Q 3900 4500 3975 5100 
Q 4275 4975 4525 4925 
z
M 2100 2250 
Q 2000 2150 1875 1925 
L 3250 1925 
Q 3100 1300 2725 675 
Q 3125 525 3350 400 
Q 3225 225 3125 25 
Q 2900 175 2450 325 
Q 1950 -225 725 -650 
Q 600 -375 400 -275 
Q 1575 0 2000 475 
Q 1300 650 850 775 
Q 1000 1000 1250 1525 
Q 1000 1525 425 1500 
L 425 1950 
Q 900 1925 1400 1925 
Q 1500 2150 1550 2425 
Q 1825 2325 2100 2250 
z
M 1775 3950 
Q 1775 4550 1750 5100 
L 2250 5100 
Q 2225 4575 2225 3950 
Q 3075 3950 3425 3975 
L 3425 3525 
Q 3075 3550 2225 3550 
Q 2225 2825 2250 2425 
L 1750 2425 
Q 1775 2775 1775 3300 
Q 1650 3100 1300 2787 
Q 950 2475 650 2300 
Q 525 2525 275 2625 
Q 500 2700 875 2975 
Q 1250 3250 1450 3550 
Q 950 3550 500 3525 
L 500 3975 
Q 925 3950 1775 3950 
z
M 3975 3175 
Q 4200 1700 4600 1125 
Q 4850 1700 4937 2287 
Q 5025 2875 5050 3425 
L 4075 3425 
L 3975 3175 
z
M 1450 1000 
Q 1750 925 2275 800 
Q 2475 1050 2650 1525 
L 1725 1525 
Q 1600 1275 1450 1000 
z
M 3325 4825 
Q 3200 4625 3125 4450 
Q 3050 4275 2925 4025 
Q 2725 4125 2525 4175 
Q 2725 4500 2900 5000 
Q 3150 4875 3325 4825 
z
M 2575 3375 
Q 2900 3050 3200 2725 
Q 3050 2600 2875 2425 
Q 2525 2850 2300 3100 
Q 2450 3225 2575 3375 
z
M 925 5000 
Q 1275 4650 1500 4300 
L 1125 4075 
Q 950 4425 600 4725 
Q 825 4875 925 5000 
z
" transform="scale(0.015625)"/>
      </defs>
      <use xlink:href="#SimHei-8ba1"/>
      <use xlink:href="#SimHei-6570" x="100"/>
     </g>
    </g>
   </g>
   <g id="matplotlib.axis_2">
    <g id="ytick_1">
     <g id="line2d_15">
      <path d="M 360.419844 338.941875 
L 806.819844 338.941875 
" clip-path="url(#pb0d64fa120)" style="fill: none; stroke: #cccccc; stroke-width: 0.8; stroke-linecap: round"/>
     </g>
     <g id="line2d_16">
      <defs>
       <path id="m7398a2dca0" d="M 0 0 
L -5 0 
" style="stroke: #262626; stroke-width: 0.8"/>
      </defs>
      <g>
       <use xlink:href="#m7398a2dca0" x="360.419844" y="338.941875" style="fill: #262626; stroke: #262626; stroke-width: 0.8"/>
      </g>
     </g>
     <g id="text_9">
      <!-- Soochow University -->
      <g style="fill: #262626" transform="translate(237.767656 343.673672) scale(0.13 -0.13)">
       <defs>
        <path id="ArialMT-53" d="M 288 1472 
L 859 1522 
Q 900 1178 1048 958 
Q 1197 738 1509 602 
Q 1822 466 2213 466 
Q 2559 466 2825 569 
Q 3091 672 3220 851 
Q 3350 1031 3350 1244 
Q 3350 1459 3225 1620 
Q 3100 1781 2813 1891 
Q 2628 1963 1997 2114 
Q 1366 2266 1113 2400 
Q 784 2572 623 2826 
Q 463 3081 463 3397 
Q 463 3744 659 4045 
Q 856 4347 1234 4503 
Q 1613 4659 2075 4659 
Q 2584 4659 2973 4495 
Q 3363 4331 3572 4012 
Q 3781 3694 3797 3291 
L 3216 3247 
Q 3169 3681 2898 3903 
Q 2628 4125 2100 4125 
Q 1550 4125 1298 3923 
Q 1047 3722 1047 3438 
Q 1047 3191 1225 3031 
Q 1400 2872 2139 2705 
Q 2878 2538 3153 2413 
Q 3553 2228 3743 1945 
Q 3934 1663 3934 1294 
Q 3934 928 3725 604 
Q 3516 281 3123 101 
Q 2731 -78 2241 -78 
Q 1619 -78 1198 103 
Q 778 284 539 648 
Q 300 1013 288 1472 
z
" transform="scale(0.015625)"/>
        <path id="ArialMT-6f" d="M 213 1659 
Q 213 2581 725 3025 
Q 1153 3394 1769 3394 
Q 2453 3394 2887 2945 
Q 3322 2497 3322 1706 
Q 3322 1066 3130 698 
Q 2938 331 2570 128 
Q 2203 -75 1769 -75 
Q 1072 -75 642 372 
Q 213 819 213 1659 
z
M 791 1659 
Q 791 1022 1069 705 
Q 1347 388 1769 388 
Q 2188 388 2466 706 
Q 2744 1025 2744 1678 
Q 2744 2294 2464 2611 
Q 2184 2928 1769 2928 
Q 1347 2928 1069 2612 
Q 791 2297 791 1659 
z
" transform="scale(0.015625)"/>
        <path id="ArialMT-63" d="M 2588 1216 
L 3141 1144 
Q 3050 572 2676 248 
Q 2303 -75 1759 -75 
Q 1078 -75 664 370 
Q 250 816 250 1647 
Q 250 2184 428 2587 
Q 606 2991 970 3192 
Q 1334 3394 1763 3394 
Q 2303 3394 2647 3120 
Q 2991 2847 3088 2344 
L 2541 2259 
Q 2463 2594 2264 2762 
Q 2066 2931 1784 2931 
Q 1359 2931 1093 2626 
Q 828 2322 828 1663 
Q 828 994 1084 691 
Q 1341 388 1753 388 
Q 2084 388 2306 591 
Q 2528 794 2588 1216 
z
" transform="scale(0.015625)"/>
        <path id="ArialMT-68" d="M 422 0 
L 422 4581 
L 984 4581 
L 984 2938 
Q 1378 3394 1978 3394 
Q 2347 3394 2619 3248 
Q 2891 3103 3008 2847 
Q 3125 2591 3125 2103 
L 3125 0 
L 2563 0 
L 2563 2103 
Q 2563 2525 2380 2717 
Q 2197 2909 1863 2909 
Q 1613 2909 1392 2779 
Q 1172 2650 1078 2428 
Q 984 2206 984 1816 
L 984 0 
L 422 0 
z
" transform="scale(0.015625)"/>
        <path id="ArialMT-77" d="M 1034 0 
L 19 3319 
L 600 3319 
L 1128 1403 
L 1325 691 
Q 1338 744 1497 1375 
L 2025 3319 
L 2603 3319 
L 3100 1394 
L 3266 759 
L 3456 1400 
L 4025 3319 
L 4572 3319 
L 3534 0 
L 2950 0 
L 2422 1988 
L 2294 2553 
L 1622 0 
L 1034 0 
z
" transform="scale(0.015625)"/>
        <path id="ArialMT-20" transform="scale(0.015625)"/>
        <path id="ArialMT-55" d="M 3500 4581 
L 4106 4581 
L 4106 1934 
Q 4106 1244 3950 837 
Q 3794 431 3386 176 
Q 2978 -78 2316 -78 
Q 1672 -78 1262 144 
Q 853 366 678 786 
Q 503 1206 503 1934 
L 503 4581 
L 1109 4581 
L 1109 1938 
Q 1109 1341 1220 1058 
Q 1331 775 1601 622 
Q 1872 469 2263 469 
Q 2931 469 3215 772 
Q 3500 1075 3500 1938 
L 3500 4581 
z
" transform="scale(0.015625)"/>
        <path id="ArialMT-6e" d="M 422 0 
L 422 3319 
L 928 3319 
L 928 2847 
Q 1294 3394 1984 3394 
Q 2284 3394 2536 3286 
Q 2788 3178 2913 3003 
Q 3038 2828 3088 2588 
Q 3119 2431 3119 2041 
L 3119 0 
L 2556 0 
L 2556 2019 
Q 2556 2363 2490 2533 
Q 2425 2703 2258 2804 
Q 2091 2906 1866 2906 
Q 1506 2906 1245 2678 
Q 984 2450 984 1813 
L 984 0 
L 422 0 
z
" transform="scale(0.015625)"/>
        <path id="ArialMT-69" d="M 425 3934 
L 425 4581 
L 988 4581 
L 988 3934 
L 425 3934 
z
M 425 0 
L 425 3319 
L 988 3319 
L 988 0 
L 425 0 
z
" transform="scale(0.015625)"/>
        <path id="ArialMT-76" d="M 1344 0 
L 81 3319 
L 675 3319 
L 1388 1331 
Q 1503 1009 1600 663 
Q 1675 925 1809 1294 
L 2547 3319 
L 3125 3319 
L 1869 0 
L 1344 0 
z
" transform="scale(0.015625)"/>
        <path id="ArialMT-65" d="M 2694 1069 
L 3275 997 
Q 3138 488 2766 206 
Q 2394 -75 1816 -75 
Q 1088 -75 661 373 
Q 234 822 234 1631 
Q 234 2469 665 2931 
Q 1097 3394 1784 3394 
Q 2450 3394 2872 2941 
Q 3294 2488 3294 1666 
Q 3294 1616 3291 1516 
L 816 1516 
Q 847 969 1125 678 
Q 1403 388 1819 388 
Q 2128 388 2347 550 
Q 2566 713 2694 1069 
z
M 847 1978 
L 2700 1978 
Q 2663 2397 2488 2606 
Q 2219 2931 1791 2931 
Q 1403 2931 1139 2672 
Q 875 2413 847 1978 
z
" transform="scale(0.015625)"/>
        <path id="ArialMT-72" d="M 416 0 
L 416 3319 
L 922 3319 
L 922 2816 
Q 1116 3169 1280 3281 
Q 1444 3394 1641 3394 
Q 1925 3394 2219 3213 
L 2025 2691 
Q 1819 2813 1613 2813 
Q 1428 2813 1281 2702 
Q 1134 2591 1072 2394 
Q 978 2094 978 1738 
L 978 0 
L 416 0 
z
" transform="scale(0.015625)"/>
        <path id="ArialMT-73" d="M 197 991 
L 753 1078 
Q 800 744 1014 566 
Q 1228 388 1613 388 
Q 2000 388 2187 545 
Q 2375 703 2375 916 
Q 2375 1106 2209 1216 
Q 2094 1291 1634 1406 
Q 1016 1563 777 1677 
Q 538 1791 414 1992 
Q 291 2194 291 2438 
Q 291 2659 392 2848 
Q 494 3038 669 3163 
Q 800 3259 1026 3326 
Q 1253 3394 1513 3394 
Q 1903 3394 2198 3281 
Q 2494 3169 2634 2976 
Q 2775 2784 2828 2463 
L 2278 2388 
Q 2241 2644 2061 2787 
Q 1881 2931 1553 2931 
Q 1166 2931 1000 2803 
Q 834 2675 834 2503 
Q 834 2394 903 2306 
Q 972 2216 1119 2156 
Q 1203 2125 1616 2013 
Q 2213 1853 2448 1751 
Q 2684 1650 2818 1456 
Q 2953 1263 2953 975 
Q 2953 694 2789 445 
Q 2625 197 2315 61 
Q 2006 -75 1616 -75 
Q 969 -75 630 194 
Q 291 463 197 991 
z
" transform="scale(0.015625)"/>
        <path id="ArialMT-74" d="M 1650 503 
L 1731 6 
Q 1494 -44 1306 -44 
Q 1000 -44 831 53 
Q 663 150 594 308 
Q 525 466 525 972 
L 525 2881 
L 113 2881 
L 113 3319 
L 525 3319 
L 525 4141 
L 1084 4478 
L 1084 3319 
L 1650 3319 
L 1650 2881 
L 1084 2881 
L 1084 941 
Q 1084 700 1114 631 
Q 1144 563 1211 522 
Q 1278 481 1403 481 
Q 1497 481 1650 503 
z
" transform="scale(0.015625)"/>
        <path id="ArialMT-79" d="M 397 -1278 
L 334 -750 
Q 519 -800 656 -800 
Q 844 -800 956 -737 
Q 1069 -675 1141 -563 
Q 1194 -478 1313 -144 
Q 1328 -97 1363 -6 
L 103 3319 
L 709 3319 
L 1400 1397 
Q 1534 1031 1641 628 
Q 1738 1016 1872 1384 
L 2581 3319 
L 3144 3319 
L 1881 -56 
Q 1678 -603 1566 -809 
Q 1416 -1088 1222 -1217 
Q 1028 -1347 759 -1347 
Q 597 -1347 397 -1278 
z
" transform="scale(0.015625)"/>
       </defs>
       <use xlink:href="#ArialMT-53"/>
       <use xlink:href="#ArialMT-6f" x="66.699219"/>
       <use xlink:href="#ArialMT-6f" x="122.314453"/>
       <use xlink:href="#ArialMT-63" x="177.929688"/>
       <use xlink:href="#ArialMT-68" x="227.929688"/>
       <use xlink:href="#ArialMT-6f" x="283.544922"/>
       <use xlink:href="#ArialMT-77" x="339.160156"/>
       <use xlink:href="#ArialMT-20" x="411.376953"/>
       <use xlink:href="#ArialMT-55" x="439.160156"/>
       <use xlink:href="#ArialMT-6e" x="511.376953"/>
       <use xlink:href="#ArialMT-69" x="566.992188"/>
       <use xlink:href="#ArialMT-76" x="589.208984"/>
       <use xlink:href="#ArialMT-65" x="639.208984"/>
       <use xlink:href="#ArialMT-72" x="694.824219"/>
       <use xlink:href="#ArialMT-73" x="728.125"/>
       <use xlink:href="#ArialMT-69" x="778.125"/>
       <use xlink:href="#ArialMT-74" x="800.341797"/>
       <use xlink:href="#ArialMT-79" x="828.125"/>
      </g>
     </g>
    </g>
    <g id="ytick_2">
     <g id="line2d_17">
      <path d="M 360.419844 317.941875 
L 806.819844 317.941875 
" clip-path="url(#pb0d64fa120)" style="fill: none; stroke: #cccccc; stroke-width: 0.8; stroke-linecap: round"/>
     </g>
     <g id="line2d_18">
      <g>
       <use xlink:href="#m7398a2dca0" x="360.419844" y="317.941875" style="fill: #262626; stroke: #262626; stroke-width: 0.8"/>
      </g>
     </g>
     <g id="text_10">
      <!-- Tiangong University -->
      <g style="fill: #262626" transform="translate(237.527969 322.594453) scale(0.13 -0.13)">
       <defs>
        <path id="ArialMT-54" d="M 1659 0 
L 1659 4041 
L 150 4041 
L 150 4581 
L 3781 4581 
L 3781 4041 
L 2266 4041 
L 2266 0 
L 1659 0 
z
" transform="scale(0.015625)"/>
        <path id="ArialMT-61" d="M 2588 409 
Q 2275 144 1986 34 
Q 1697 -75 1366 -75 
Q 819 -75 525 192 
Q 231 459 231 875 
Q 231 1119 342 1320 
Q 453 1522 633 1644 
Q 813 1766 1038 1828 
Q 1203 1872 1538 1913 
Q 2219 1994 2541 2106 
Q 2544 2222 2544 2253 
Q 2544 2597 2384 2738 
Q 2169 2928 1744 2928 
Q 1347 2928 1158 2789 
Q 969 2650 878 2297 
L 328 2372 
Q 403 2725 575 2942 
Q 747 3159 1072 3276 
Q 1397 3394 1825 3394 
Q 2250 3394 2515 3294 
Q 2781 3194 2906 3042 
Q 3031 2891 3081 2659 
Q 3109 2516 3109 2141 
L 3109 1391 
Q 3109 606 3145 398 
Q 3181 191 3288 0 
L 2700 0 
Q 2613 175 2588 409 
z
M 2541 1666 
Q 2234 1541 1622 1453 
Q 1275 1403 1131 1340 
Q 988 1278 909 1158 
Q 831 1038 831 891 
Q 831 666 1001 516 
Q 1172 366 1500 366 
Q 1825 366 2078 508 
Q 2331 650 2450 897 
Q 2541 1088 2541 1459 
L 2541 1666 
z
" transform="scale(0.015625)"/>
        <path id="ArialMT-67" d="M 319 -275 
L 866 -356 
Q 900 -609 1056 -725 
Q 1266 -881 1628 -881 
Q 2019 -881 2231 -725 
Q 2444 -569 2519 -288 
Q 2563 -116 2559 434 
Q 2191 0 1641 0 
Q 956 0 581 494 
Q 206 988 206 1678 
Q 206 2153 378 2554 
Q 550 2956 876 3175 
Q 1203 3394 1644 3394 
Q 2231 3394 2613 2919 
L 2613 3319 
L 3131 3319 
L 3131 450 
Q 3131 -325 2973 -648 
Q 2816 -972 2473 -1159 
Q 2131 -1347 1631 -1347 
Q 1038 -1347 672 -1080 
Q 306 -813 319 -275 
z
M 784 1719 
Q 784 1066 1043 766 
Q 1303 466 1694 466 
Q 2081 466 2343 764 
Q 2606 1063 2606 1700 
Q 2606 2309 2336 2618 
Q 2066 2928 1684 2928 
Q 1309 2928 1046 2623 
Q 784 2319 784 1719 
z
" transform="scale(0.015625)"/>
       </defs>
       <use xlink:href="#ArialMT-54"/>
       <use xlink:href="#ArialMT-69" x="57.333984"/>
       <use xlink:href="#ArialMT-61" x="79.550781"/>
       <use xlink:href="#ArialMT-6e" x="135.166016"/>
       <use xlink:href="#ArialMT-67" x="190.78125"/>
       <use xlink:href="#ArialMT-6f" x="246.396484"/>
       <use xlink:href="#ArialMT-6e" x="302.011719"/>
       <use xlink:href="#ArialMT-67" x="357.626953"/>
       <use xlink:href="#ArialMT-20" x="413.242188"/>
       <use xlink:href="#ArialMT-55" x="441.025391"/>
       <use xlink:href="#ArialMT-6e" x="513.242188"/>
       <use xlink:href="#ArialMT-69" x="568.857422"/>
       <use xlink:href="#ArialMT-76" x="591.074219"/>
       <use xlink:href="#ArialMT-65" x="641.074219"/>
       <use xlink:href="#ArialMT-72" x="696.689453"/>
       <use xlink:href="#ArialMT-73" x="729.990234"/>
       <use xlink:href="#ArialMT-69" x="779.990234"/>
       <use xlink:href="#ArialMT-74" x="802.207031"/>
       <use xlink:href="#ArialMT-79" x="829.990234"/>
      </g>
     </g>
    </g>
    <g id="ytick_3">
     <g id="line2d_19">
      <path d="M 360.419844 296.941875 
L 806.819844 296.941875 
" clip-path="url(#pb0d64fa120)" style="fill: none; stroke: #cccccc; stroke-width: 0.8; stroke-linecap: round"/>
     </g>
     <g id="line2d_20">
      <g>
       <use xlink:href="#m7398a2dca0" x="360.419844" y="296.941875" style="fill: #262626; stroke: #262626; stroke-width: 0.8"/>
      </g>
     </g>
     <g id="text_11">
      <!-- Duke University -->
      <g style="fill: #262626" transform="translate(260.8975 301.594453) scale(0.13 -0.13)">
       <defs>
        <path id="ArialMT-44" d="M 494 0 
L 494 4581 
L 2072 4581 
Q 2606 4581 2888 4516 
Q 3281 4425 3559 4188 
Q 3922 3881 4101 3404 
Q 4281 2928 4281 2316 
Q 4281 1794 4159 1391 
Q 4038 988 3847 723 
Q 3656 459 3429 307 
Q 3203 156 2883 78 
Q 2563 0 2147 0 
L 494 0 
z
M 1100 541 
L 2078 541 
Q 2531 541 2789 625 
Q 3047 709 3200 863 
Q 3416 1078 3536 1442 
Q 3656 1806 3656 2325 
Q 3656 3044 3420 3430 
Q 3184 3816 2847 3947 
Q 2603 4041 2063 4041 
L 1100 4041 
L 1100 541 
z
" transform="scale(0.015625)"/>
        <path id="ArialMT-75" d="M 2597 0 
L 2597 488 
Q 2209 -75 1544 -75 
Q 1250 -75 995 37 
Q 741 150 617 320 
Q 494 491 444 738 
Q 409 903 409 1263 
L 409 3319 
L 972 3319 
L 972 1478 
Q 972 1038 1006 884 
Q 1059 663 1231 536 
Q 1403 409 1656 409 
Q 1909 409 2131 539 
Q 2353 669 2445 892 
Q 2538 1116 2538 1541 
L 2538 3319 
L 3100 3319 
L 3100 0 
L 2597 0 
z
" transform="scale(0.015625)"/>
        <path id="ArialMT-6b" d="M 425 0 
L 425 4581 
L 988 4581 
L 988 1969 
L 2319 3319 
L 3047 3319 
L 1778 2088 
L 3175 0 
L 2481 0 
L 1384 1697 
L 988 1316 
L 988 0 
L 425 0 
z
" transform="scale(0.015625)"/>
       </defs>
       <use xlink:href="#ArialMT-44"/>
       <use xlink:href="#ArialMT-75" x="72.216797"/>
       <use xlink:href="#ArialMT-6b" x="127.832031"/>
       <use xlink:href="#ArialMT-65" x="177.832031"/>
       <use xlink:href="#ArialMT-20" x="233.447266"/>
       <use xlink:href="#ArialMT-55" x="261.230469"/>
       <use xlink:href="#ArialMT-6e" x="333.447266"/>
       <use xlink:href="#ArialMT-69" x="389.0625"/>
       <use xlink:href="#ArialMT-76" x="411.279297"/>
       <use xlink:href="#ArialMT-65" x="461.279297"/>
       <use xlink:href="#ArialMT-72" x="516.894531"/>
       <use xlink:href="#ArialMT-73" x="550.195312"/>
       <use xlink:href="#ArialMT-69" x="600.195312"/>
       <use xlink:href="#ArialMT-74" x="622.412109"/>
       <use xlink:href="#ArialMT-79" x="650.195312"/>
      </g>
     </g>
    </g>
    <g id="ytick_4">
     <g id="line2d_21">
      <path d="M 360.419844 275.941875 
L 806.819844 275.941875 
" clip-path="url(#pb0d64fa120)" style="fill: none; stroke: #cccccc; stroke-width: 0.8; stroke-linecap: round"/>
     </g>
     <g id="line2d_22">
      <g>
       <use xlink:href="#m7398a2dca0" x="360.419844" y="275.941875" style="fill: #262626; stroke: #262626; stroke-width: 0.8"/>
      </g>
     </g>
     <g id="text_12">
      <!-- East China Normal University -->
      <g style="fill: #262626" transform="translate(182.152031 280.673672) scale(0.13 -0.13)">
       <defs>
        <path id="ArialMT-45" d="M 506 0 
L 506 4581 
L 3819 4581 
L 3819 4041 
L 1113 4041 
L 1113 2638 
L 3647 2638 
L 3647 2100 
L 1113 2100 
L 1113 541 
L 3925 541 
L 3925 0 
L 506 0 
z
" transform="scale(0.015625)"/>
        <path id="ArialMT-43" d="M 3763 1606 
L 4369 1453 
Q 4178 706 3683 314 
Q 3188 -78 2472 -78 
Q 1731 -78 1267 223 
Q 803 525 561 1097 
Q 319 1669 319 2325 
Q 319 3041 592 3573 
Q 866 4106 1370 4382 
Q 1875 4659 2481 4659 
Q 3169 4659 3637 4309 
Q 4106 3959 4291 3325 
L 3694 3184 
Q 3534 3684 3231 3912 
Q 2928 4141 2469 4141 
Q 1941 4141 1586 3887 
Q 1231 3634 1087 3207 
Q 944 2781 944 2328 
Q 944 1744 1114 1308 
Q 1284 872 1643 656 
Q 2003 441 2422 441 
Q 2931 441 3284 734 
Q 3638 1028 3763 1606 
z
" transform="scale(0.015625)"/>
        <path id="ArialMT-4e" d="M 488 0 
L 488 4581 
L 1109 4581 
L 3516 984 
L 3516 4581 
L 4097 4581 
L 4097 0 
L 3475 0 
L 1069 3600 
L 1069 0 
L 488 0 
z
" transform="scale(0.015625)"/>
        <path id="ArialMT-6d" d="M 422 0 
L 422 3319 
L 925 3319 
L 925 2853 
Q 1081 3097 1340 3245 
Q 1600 3394 1931 3394 
Q 2300 3394 2536 3241 
Q 2772 3088 2869 2813 
Q 3263 3394 3894 3394 
Q 4388 3394 4653 3120 
Q 4919 2847 4919 2278 
L 4919 0 
L 4359 0 
L 4359 2091 
Q 4359 2428 4304 2576 
Q 4250 2725 4106 2815 
Q 3963 2906 3769 2906 
Q 3419 2906 3187 2673 
Q 2956 2441 2956 1928 
L 2956 0 
L 2394 0 
L 2394 2156 
Q 2394 2531 2256 2718 
Q 2119 2906 1806 2906 
Q 1569 2906 1367 2781 
Q 1166 2656 1075 2415 
Q 984 2175 984 1722 
L 984 0 
L 422 0 
z
" transform="scale(0.015625)"/>
        <path id="ArialMT-6c" d="M 409 0 
L 409 4581 
L 972 4581 
L 972 0 
L 409 0 
z
" transform="scale(0.015625)"/>
       </defs>
       <use xlink:href="#ArialMT-45"/>
       <use xlink:href="#ArialMT-61" x="66.699219"/>
       <use xlink:href="#ArialMT-73" x="122.314453"/>
       <use xlink:href="#ArialMT-74" x="172.314453"/>
       <use xlink:href="#ArialMT-20" x="200.097656"/>
       <use xlink:href="#ArialMT-43" x="227.880859"/>
       <use xlink:href="#ArialMT-68" x="300.097656"/>
       <use xlink:href="#ArialMT-69" x="355.712891"/>
       <use xlink:href="#ArialMT-6e" x="377.929688"/>
       <use xlink:href="#ArialMT-61" x="433.544922"/>
       <use xlink:href="#ArialMT-20" x="489.160156"/>
       <use xlink:href="#ArialMT-4e" x="516.943359"/>
       <use xlink:href="#ArialMT-6f" x="589.160156"/>
       <use xlink:href="#ArialMT-72" x="644.775391"/>
       <use xlink:href="#ArialMT-6d" x="678.076172"/>
       <use xlink:href="#ArialMT-61" x="761.376953"/>
       <use xlink:href="#ArialMT-6c" x="816.992188"/>
       <use xlink:href="#ArialMT-20" x="839.208984"/>
       <use xlink:href="#ArialMT-55" x="866.992188"/>
       <use xlink:href="#ArialMT-6e" x="939.208984"/>
       <use xlink:href="#ArialMT-69" x="994.824219"/>
       <use xlink:href="#ArialMT-76" x="1017.041016"/>
       <use xlink:href="#ArialMT-65" x="1067.041016"/>
       <use xlink:href="#ArialMT-72" x="1122.65625"/>
       <use xlink:href="#ArialMT-73" x="1155.957031"/>
       <use xlink:href="#ArialMT-69" x="1205.957031"/>
       <use xlink:href="#ArialMT-74" x="1228.173828"/>
       <use xlink:href="#ArialMT-79" x="1255.957031"/>
      </g>
     </g>
    </g>
    <g id="ytick_5">
     <g id="line2d_23">
      <path d="M 360.419844 254.941875 
L 806.819844 254.941875 
" clip-path="url(#pb0d64fa120)" style="fill: none; stroke: #cccccc; stroke-width: 0.8; stroke-linecap: round"/>
     </g>
     <g id="line2d_24">
      <g>
       <use xlink:href="#m7398a2dca0" x="360.419844" y="254.941875" style="fill: #262626; stroke: #262626; stroke-width: 0.8"/>
      </g>
     </g>
     <g id="text_13">
      <!-- Xi'an Jiaotong University -->
      <g style="fill: #262626" transform="translate(209.98625 259.594453) scale(0.13 -0.13)">
       <defs>
        <path id="ArialMT-58" d="M 28 0 
L 1800 2388 
L 238 4581 
L 959 4581 
L 1791 3406 
Q 2050 3041 2159 2844 
Q 2313 3094 2522 3366 
L 3444 4581 
L 4103 4581 
L 2494 2422 
L 4228 0 
L 3478 0 
L 2325 1634 
Q 2228 1775 2125 1941 
Q 1972 1691 1906 1597 
L 756 0 
L 28 0 
z
" transform="scale(0.015625)"/>
        <path id="ArialMT-27" d="M 425 2959 
L 281 3816 
L 281 4581 
L 922 4581 
L 922 3816 
L 772 2959 
L 425 2959 
z
" transform="scale(0.015625)"/>
        <path id="ArialMT-4a" d="M 184 1300 
L 731 1375 
Q 753 850 928 656 
Q 1103 463 1413 463 
Q 1641 463 1806 567 
Q 1972 672 2034 851 
Q 2097 1031 2097 1425 
L 2097 4581 
L 2703 4581 
L 2703 1459 
Q 2703 884 2564 568 
Q 2425 253 2123 87 
Q 1822 -78 1416 -78 
Q 813 -78 492 269 
Q 172 616 184 1300 
z
" transform="scale(0.015625)"/>
       </defs>
       <use xlink:href="#ArialMT-58"/>
       <use xlink:href="#ArialMT-69" x="66.699219"/>
       <use xlink:href="#ArialMT-27" x="88.916016"/>
       <use xlink:href="#ArialMT-61" x="108.007812"/>
       <use xlink:href="#ArialMT-6e" x="163.623047"/>
       <use xlink:href="#ArialMT-20" x="219.238281"/>
       <use xlink:href="#ArialMT-4a" x="247.021484"/>
       <use xlink:href="#ArialMT-69" x="297.021484"/>
       <use xlink:href="#ArialMT-61" x="319.238281"/>
       <use xlink:href="#ArialMT-6f" x="374.853516"/>
       <use xlink:href="#ArialMT-74" x="430.46875"/>
       <use xlink:href="#ArialMT-6f" x="458.251953"/>
       <use xlink:href="#ArialMT-6e" x="513.867188"/>
       <use xlink:href="#ArialMT-67" x="569.482422"/>
       <use xlink:href="#ArialMT-20" x="625.097656"/>
       <use xlink:href="#ArialMT-55" x="652.880859"/>
       <use xlink:href="#ArialMT-6e" x="725.097656"/>
       <use xlink:href="#ArialMT-69" x="780.712891"/>
       <use xlink:href="#ArialMT-76" x="802.929688"/>
       <use xlink:href="#ArialMT-65" x="852.929688"/>
       <use xlink:href="#ArialMT-72" x="908.544922"/>
       <use xlink:href="#ArialMT-73" x="941.845703"/>
       <use xlink:href="#ArialMT-69" x="991.845703"/>
       <use xlink:href="#ArialMT-74" x="1014.0625"/>
       <use xlink:href="#ArialMT-79" x="1041.845703"/>
      </g>
     </g>
    </g>
    <g id="ytick_6">
     <g id="line2d_25">
      <path d="M 360.419844 233.941875 
L 806.819844 233.941875 
" clip-path="url(#pb0d64fa120)" style="fill: none; stroke: #cccccc; stroke-width: 0.8; stroke-linecap: round"/>
     </g>
     <g id="line2d_26">
      <g>
       <use xlink:href="#m7398a2dca0" x="360.419844" y="233.941875" style="fill: #262626; stroke: #262626; stroke-width: 0.8"/>
      </g>
     </g>
     <g id="text_14">
      <!-- Northeastern University of China -->
      <g style="fill: #262626" transform="translate(164.071875 238.673672) scale(0.13 -0.13)">
       <defs>
        <path id="ArialMT-66" d="M 556 0 
L 556 2881 
L 59 2881 
L 59 3319 
L 556 3319 
L 556 3672 
Q 556 4006 616 4169 
Q 697 4388 901 4523 
Q 1106 4659 1475 4659 
Q 1713 4659 2000 4603 
L 1916 4113 
Q 1741 4144 1584 4144 
Q 1328 4144 1222 4034 
Q 1116 3925 1116 3625 
L 1116 3319 
L 1763 3319 
L 1763 2881 
L 1116 2881 
L 1116 0 
L 556 0 
z
" transform="scale(0.015625)"/>
       </defs>
       <use xlink:href="#ArialMT-4e"/>
       <use xlink:href="#ArialMT-6f" x="72.216797"/>
       <use xlink:href="#ArialMT-72" x="127.832031"/>
       <use xlink:href="#ArialMT-74" x="161.132812"/>
       <use xlink:href="#ArialMT-68" x="188.916016"/>
       <use xlink:href="#ArialMT-65" x="244.53125"/>
       <use xlink:href="#ArialMT-61" x="300.146484"/>
       <use xlink:href="#ArialMT-73" x="355.761719"/>
       <use xlink:href="#ArialMT-74" x="405.761719"/>
       <use xlink:href="#ArialMT-65" x="433.544922"/>
       <use xlink:href="#ArialMT-72" x="489.160156"/>
       <use xlink:href="#ArialMT-6e" x="522.460938"/>
       <use xlink:href="#ArialMT-20" x="578.076172"/>
       <use xlink:href="#ArialMT-55" x="605.859375"/>
       <use xlink:href="#ArialMT-6e" x="678.076172"/>
       <use xlink:href="#ArialMT-69" x="733.691406"/>
       <use xlink:href="#ArialMT-76" x="755.908203"/>
       <use xlink:href="#ArialMT-65" x="805.908203"/>
       <use xlink:href="#ArialMT-72" x="861.523438"/>
       <use xlink:href="#ArialMT-73" x="894.824219"/>
       <use xlink:href="#ArialMT-69" x="944.824219"/>
       <use xlink:href="#ArialMT-74" x="967.041016"/>
       <use xlink:href="#ArialMT-79" x="994.824219"/>
       <use xlink:href="#ArialMT-20" x="1044.824219"/>
       <use xlink:href="#ArialMT-6f" x="1072.607422"/>
       <use xlink:href="#ArialMT-66" x="1128.222656"/>
       <use xlink:href="#ArialMT-20" x="1156.005859"/>
       <use xlink:href="#ArialMT-43" x="1183.789062"/>
       <use xlink:href="#ArialMT-68" x="1256.005859"/>
       <use xlink:href="#ArialMT-69" x="1311.621094"/>
       <use xlink:href="#ArialMT-6e" x="1333.837891"/>
       <use xlink:href="#ArialMT-61" x="1389.453125"/>
      </g>
     </g>
    </g>
    <g id="ytick_7">
     <g id="line2d_27">
      <path d="M 360.419844 212.941875 
L 806.819844 212.941875 
" clip-path="url(#pb0d64fa120)" style="fill: none; stroke: #cccccc; stroke-width: 0.8; stroke-linecap: round"/>
     </g>
     <g id="line2d_28">
      <g>
       <use xlink:href="#m7398a2dca0" x="360.419844" y="212.941875" style="fill: #262626; stroke: #262626; stroke-width: 0.8"/>
      </g>
     </g>
     <g id="text_15">
      <!-- China University of Petroleum -->
      <g style="fill: #262626" transform="translate(179.970469 217.673672) scale(0.13 -0.13)">
       <defs>
        <path id="ArialMT-50" d="M 494 0 
L 494 4581 
L 2222 4581 
Q 2678 4581 2919 4538 
Q 3256 4481 3484 4323 
Q 3713 4166 3852 3881 
Q 3991 3597 3991 3256 
Q 3991 2672 3619 2267 
Q 3247 1863 2275 1863 
L 1100 1863 
L 1100 0 
L 494 0 
z
M 1100 2403 
L 2284 2403 
Q 2872 2403 3119 2622 
Q 3366 2841 3366 3238 
Q 3366 3525 3220 3729 
Q 3075 3934 2838 4000 
Q 2684 4041 2272 4041 
L 1100 4041 
L 1100 2403 
z
" transform="scale(0.015625)"/>
       </defs>
       <use xlink:href="#ArialMT-43"/>
       <use xlink:href="#ArialMT-68" x="72.216797"/>
       <use xlink:href="#ArialMT-69" x="127.832031"/>
       <use xlink:href="#ArialMT-6e" x="150.048828"/>
       <use xlink:href="#ArialMT-61" x="205.664062"/>
       <use xlink:href="#ArialMT-20" x="261.279297"/>
       <use xlink:href="#ArialMT-55" x="289.0625"/>
       <use xlink:href="#ArialMT-6e" x="361.279297"/>
       <use xlink:href="#ArialMT-69" x="416.894531"/>
       <use xlink:href="#ArialMT-76" x="439.111328"/>
       <use xlink:href="#ArialMT-65" x="489.111328"/>
       <use xlink:href="#ArialMT-72" x="544.726562"/>
       <use xlink:href="#ArialMT-73" x="578.027344"/>
       <use xlink:href="#ArialMT-69" x="628.027344"/>
       <use xlink:href="#ArialMT-74" x="650.244141"/>
       <use xlink:href="#ArialMT-79" x="678.027344"/>
       <use xlink:href="#ArialMT-20" x="728.027344"/>
       <use xlink:href="#ArialMT-6f" x="755.810547"/>
       <use xlink:href="#ArialMT-66" x="811.425781"/>
       <use xlink:href="#ArialMT-20" x="839.208984"/>
       <use xlink:href="#ArialMT-50" x="866.992188"/>
       <use xlink:href="#ArialMT-65" x="933.691406"/>
       <use xlink:href="#ArialMT-74" x="989.306641"/>
       <use xlink:href="#ArialMT-72" x="1017.089844"/>
       <use xlink:href="#ArialMT-6f" x="1050.390625"/>
       <use xlink:href="#ArialMT-6c" x="1106.005859"/>
       <use xlink:href="#ArialMT-65" x="1128.222656"/>
       <use xlink:href="#ArialMT-75" x="1183.837891"/>
       <use xlink:href="#ArialMT-6d" x="1239.453125"/>
      </g>
     </g>
    </g>
    <g id="ytick_8">
     <g id="line2d_29">
      <path d="M 360.419844 191.941875 
L 806.819844 191.941875 
" clip-path="url(#pb0d64fa120)" style="fill: none; stroke: #cccccc; stroke-width: 0.8; stroke-linecap: round"/>
     </g>
     <g id="line2d_30">
      <g>
       <use xlink:href="#m7398a2dca0" x="360.419844" y="191.941875" style="fill: #262626; stroke: #262626; stroke-width: 0.8"/>
      </g>
     </g>
     <g id="text_16">
      <!-- Nanjing University of Posts &amp; Telecommunications -->
      <g style="fill: #262626" transform="translate(63.157344 196.673672) scale(0.13 -0.13)">
       <defs>
        <path id="ArialMT-6a" d="M 419 3928 
L 419 4581 
L 981 4581 
L 981 3928 
L 419 3928 
z
M -294 -1288 
L -188 -809 
Q -19 -853 78 -853 
Q 250 -853 334 -739 
Q 419 -625 419 -169 
L 419 3319 
L 981 3319 
L 981 -181 
Q 981 -794 822 -1034 
Q 619 -1347 147 -1347 
Q -81 -1347 -294 -1288 
z
" transform="scale(0.015625)"/>
        <path id="ArialMT-26" d="M 3041 541 
Q 2763 231 2434 76 
Q 2106 -78 1725 -78 
Q 1022 -78 609 397 
Q 275 784 275 1263 
Q 275 1688 548 2030 
Q 822 2372 1366 2631 
Q 1056 2988 953 3209 
Q 850 3431 850 3638 
Q 850 4050 1173 4354 
Q 1497 4659 1988 4659 
Q 2456 4659 2754 4371 
Q 3053 4084 3053 3681 
Q 3053 3028 2188 2566 
L 3009 1519 
Q 3150 1794 3228 2156 
L 3813 2031 
Q 3663 1431 3406 1044 
Q 3722 625 4122 341 
L 3744 -106 
Q 3403 113 3041 541 
z
M 1897 2928 
Q 2263 3144 2370 3306 
Q 2478 3469 2478 3666 
Q 2478 3900 2329 4048 
Q 2181 4197 1959 4197 
Q 1731 4197 1579 4050 
Q 1428 3903 1428 3691 
Q 1428 3584 1483 3467 
Q 1538 3350 1647 3219 
L 1897 2928 
z
M 2688 984 
L 1656 2263 
Q 1200 1991 1040 1758 
Q 881 1525 881 1297 
Q 881 1019 1103 719 
Q 1325 419 1731 419 
Q 1984 419 2254 576 
Q 2525 734 2688 984 
z
" transform="scale(0.015625)"/>
       </defs>
       <use xlink:href="#ArialMT-4e"/>
       <use xlink:href="#ArialMT-61" x="72.216797"/>
       <use xlink:href="#ArialMT-6e" x="127.832031"/>
       <use xlink:href="#ArialMT-6a" x="183.447266"/>
       <use xlink:href="#ArialMT-69" x="205.664062"/>
       <use xlink:href="#ArialMT-6e" x="227.880859"/>
       <use xlink:href="#ArialMT-67" x="283.496094"/>
       <use xlink:href="#ArialMT-20" x="339.111328"/>
       <use xlink:href="#ArialMT-55" x="366.894531"/>
       <use xlink:href="#ArialMT-6e" x="439.111328"/>
       <use xlink:href="#ArialMT-69" x="494.726562"/>
       <use xlink:href="#ArialMT-76" x="516.943359"/>
       <use xlink:href="#ArialMT-65" x="566.943359"/>
       <use xlink:href="#ArialMT-72" x="622.558594"/>
       <use xlink:href="#ArialMT-73" x="655.859375"/>
       <use xlink:href="#ArialMT-69" x="705.859375"/>
       <use xlink:href="#ArialMT-74" x="728.076172"/>
       <use xlink:href="#ArialMT-79" x="755.859375"/>
       <use xlink:href="#ArialMT-20" x="805.859375"/>
       <use xlink:href="#ArialMT-6f" x="833.642578"/>
       <use xlink:href="#ArialMT-66" x="889.257812"/>
       <use xlink:href="#ArialMT-20" x="917.041016"/>
       <use xlink:href="#ArialMT-50" x="944.824219"/>
       <use xlink:href="#ArialMT-6f" x="1011.523438"/>
       <use xlink:href="#ArialMT-73" x="1067.138672"/>
       <use xlink:href="#ArialMT-74" x="1117.138672"/>
       <use xlink:href="#ArialMT-73" x="1144.921875"/>
       <use xlink:href="#ArialMT-20" x="1194.921875"/>
       <use xlink:href="#ArialMT-26" x="1222.705078"/>
       <use xlink:href="#ArialMT-20" x="1289.404297"/>
       <use xlink:href="#ArialMT-54" x="1315.4375"/>
       <use xlink:href="#ArialMT-65" x="1365.396484"/>
       <use xlink:href="#ArialMT-6c" x="1421.011719"/>
       <use xlink:href="#ArialMT-65" x="1443.228516"/>
       <use xlink:href="#ArialMT-63" x="1498.84375"/>
       <use xlink:href="#ArialMT-6f" x="1548.84375"/>
       <use xlink:href="#ArialMT-6d" x="1604.458984"/>
       <use xlink:href="#ArialMT-6d" x="1687.759766"/>
       <use xlink:href="#ArialMT-75" x="1771.060547"/>
       <use xlink:href="#ArialMT-6e" x="1826.675781"/>
       <use xlink:href="#ArialMT-69" x="1882.291016"/>
       <use xlink:href="#ArialMT-63" x="1904.507812"/>
       <use xlink:href="#ArialMT-61" x="1954.507812"/>
       <use xlink:href="#ArialMT-74" x="2010.123047"/>
       <use xlink:href="#ArialMT-69" x="2037.90625"/>
       <use xlink:href="#ArialMT-6f" x="2060.123047"/>
       <use xlink:href="#ArialMT-6e" x="2115.738281"/>
       <use xlink:href="#ArialMT-73" x="2171.353516"/>
      </g>
     </g>
    </g>
    <g id="ytick_9">
     <g id="line2d_31">
      <path d="M 360.419844 170.941875 
L 806.819844 170.941875 
" clip-path="url(#pb0d64fa120)" style="fill: none; stroke: #cccccc; stroke-width: 0.8; stroke-linecap: round"/>
     </g>
     <g id="line2d_32">
      <g>
       <use xlink:href="#m7398a2dca0" x="360.419844" y="170.941875" style="fill: #262626; stroke: #262626; stroke-width: 0.8"/>
      </g>
     </g>
     <g id="text_17">
      <!-- Columbia University -->
      <g style="fill: #262626" transform="translate(236.333594 175.673672) scale(0.13 -0.13)">
       <defs>
        <path id="ArialMT-62" d="M 941 0 
L 419 0 
L 419 4581 
L 981 4581 
L 981 2947 
Q 1338 3394 1891 3394 
Q 2197 3394 2470 3270 
Q 2744 3147 2920 2923 
Q 3097 2700 3197 2384 
Q 3297 2069 3297 1709 
Q 3297 856 2875 390 
Q 2453 -75 1863 -75 
Q 1275 -75 941 416 
L 941 0 
z
M 934 1684 
Q 934 1088 1097 822 
Q 1363 388 1816 388 
Q 2184 388 2453 708 
Q 2722 1028 2722 1663 
Q 2722 2313 2464 2622 
Q 2206 2931 1841 2931 
Q 1472 2931 1203 2611 
Q 934 2291 934 1684 
z
" transform="scale(0.015625)"/>
       </defs>
       <use xlink:href="#ArialMT-43"/>
       <use xlink:href="#ArialMT-6f" x="72.216797"/>
       <use xlink:href="#ArialMT-6c" x="127.832031"/>
       <use xlink:href="#ArialMT-75" x="150.048828"/>
       <use xlink:href="#ArialMT-6d" x="205.664062"/>
       <use xlink:href="#ArialMT-62" x="288.964844"/>
       <use xlink:href="#ArialMT-69" x="344.580078"/>
       <use xlink:href="#ArialMT-61" x="366.796875"/>
       <use xlink:href="#ArialMT-20" x="422.412109"/>
       <use xlink:href="#ArialMT-55" x="450.195312"/>
       <use xlink:href="#ArialMT-6e" x="522.412109"/>
       <use xlink:href="#ArialMT-69" x="578.027344"/>
       <use xlink:href="#ArialMT-76" x="600.244141"/>
       <use xlink:href="#ArialMT-65" x="650.244141"/>
       <use xlink:href="#ArialMT-72" x="705.859375"/>
       <use xlink:href="#ArialMT-73" x="739.160156"/>
       <use xlink:href="#ArialMT-69" x="789.160156"/>
       <use xlink:href="#ArialMT-74" x="811.376953"/>
       <use xlink:href="#ArialMT-79" x="839.160156"/>
      </g>
     </g>
    </g>
    <g id="ytick_10">
     <g id="line2d_33">
      <path d="M 360.419844 149.941875 
L 806.819844 149.941875 
" clip-path="url(#pb0d64fa120)" style="fill: none; stroke: #cccccc; stroke-width: 0.8; stroke-linecap: round"/>
     </g>
     <g id="line2d_34">
      <g>
       <use xlink:href="#m7398a2dca0" x="360.419844" y="149.941875" style="fill: #262626; stroke: #262626; stroke-width: 0.8"/>
      </g>
     </g>
     <g id="text_18">
      <!-- XIDIAN UNIVERSITY -->
      <g style="fill: #262626" transform="translate(226.95125 154.594453) scale(0.13 -0.13)">
       <defs>
        <path id="ArialMT-49" d="M 597 0 
L 597 4581 
L 1203 4581 
L 1203 0 
L 597 0 
z
" transform="scale(0.015625)"/>
        <path id="ArialMT-41" d="M -9 0 
L 1750 4581 
L 2403 4581 
L 4278 0 
L 3588 0 
L 3053 1388 
L 1138 1388 
L 634 0 
L -9 0 
z
M 1313 1881 
L 2866 1881 
L 2388 3150 
Q 2169 3728 2063 4100 
Q 1975 3659 1816 3225 
L 1313 1881 
z
" transform="scale(0.015625)"/>
        <path id="ArialMT-56" d="M 1803 0 
L 28 4581 
L 684 4581 
L 1875 1253 
Q 2019 853 2116 503 
Q 2222 878 2363 1253 
L 3600 4581 
L 4219 4581 
L 2425 0 
L 1803 0 
z
" transform="scale(0.015625)"/>
        <path id="ArialMT-52" d="M 503 0 
L 503 4581 
L 2534 4581 
Q 3147 4581 3465 4457 
Q 3784 4334 3975 4021 
Q 4166 3709 4166 3331 
Q 4166 2844 3850 2509 
Q 3534 2175 2875 2084 
Q 3116 1969 3241 1856 
Q 3506 1613 3744 1247 
L 4541 0 
L 3778 0 
L 3172 953 
Q 2906 1366 2734 1584 
Q 2563 1803 2427 1890 
Q 2291 1978 2150 2013 
Q 2047 2034 1813 2034 
L 1109 2034 
L 1109 0 
L 503 0 
z
M 1109 2559 
L 2413 2559 
Q 2828 2559 3062 2645 
Q 3297 2731 3419 2920 
Q 3541 3109 3541 3331 
Q 3541 3656 3305 3865 
Q 3069 4075 2559 4075 
L 1109 4075 
L 1109 2559 
z
" transform="scale(0.015625)"/>
        <path id="ArialMT-59" d="M 1784 0 
L 1784 1941 
L 19 4581 
L 756 4581 
L 1659 3200 
Q 1909 2813 2125 2425 
Q 2331 2784 2625 3234 
L 3513 4581 
L 4219 4581 
L 2391 1941 
L 2391 0 
L 1784 0 
z
" transform="scale(0.015625)"/>
       </defs>
       <use xlink:href="#ArialMT-58"/>
       <use xlink:href="#ArialMT-49" x="66.699219"/>
       <use xlink:href="#ArialMT-44" x="94.482422"/>
       <use xlink:href="#ArialMT-49" x="166.699219"/>
       <use xlink:href="#ArialMT-41" x="194.482422"/>
       <use xlink:href="#ArialMT-4e" x="261.181641"/>
       <use xlink:href="#ArialMT-20" x="333.398438"/>
       <use xlink:href="#ArialMT-55" x="361.181641"/>
       <use xlink:href="#ArialMT-4e" x="433.398438"/>
       <use xlink:href="#ArialMT-49" x="505.615234"/>
       <use xlink:href="#ArialMT-56" x="533.398438"/>
       <use xlink:href="#ArialMT-45" x="600.097656"/>
       <use xlink:href="#ArialMT-52" x="666.796875"/>
       <use xlink:href="#ArialMT-53" x="739.013672"/>
       <use xlink:href="#ArialMT-49" x="805.712891"/>
       <use xlink:href="#ArialMT-54" x="833.496094"/>
       <use xlink:href="#ArialMT-59" x="894.580078"/>
      </g>
     </g>
    </g>
    <g id="ytick_11">
     <g id="line2d_35">
      <path d="M 360.419844 128.941875 
L 806.819844 128.941875 
" clip-path="url(#pb0d64fa120)" style="fill: none; stroke: #cccccc; stroke-width: 0.8; stroke-linecap: round"/>
     </g>
     <g id="line2d_36">
      <g>
       <use xlink:href="#m7398a2dca0" x="360.419844" y="128.941875" style="fill: #262626; stroke: #262626; stroke-width: 0.8"/>
      </g>
     </g>
     <g id="text_19">
      <!-- Shanghai Jiao Tong University -->
      <g style="fill: #262626" transform="translate(177.285156 133.673672) scale(0.13 -0.13)">
       <use xlink:href="#ArialMT-53"/>
       <use xlink:href="#ArialMT-68" x="66.699219"/>
       <use xlink:href="#ArialMT-61" x="122.314453"/>
       <use xlink:href="#ArialMT-6e" x="177.929688"/>
       <use xlink:href="#ArialMT-67" x="233.544922"/>
       <use xlink:href="#ArialMT-68" x="289.160156"/>
       <use xlink:href="#ArialMT-61" x="344.775391"/>
       <use xlink:href="#ArialMT-69" x="400.390625"/>
       <use xlink:href="#ArialMT-20" x="422.607422"/>
       <use xlink:href="#ArialMT-4a" x="450.390625"/>
       <use xlink:href="#ArialMT-69" x="500.390625"/>
       <use xlink:href="#ArialMT-61" x="522.607422"/>
       <use xlink:href="#ArialMT-6f" x="578.222656"/>
       <use xlink:href="#ArialMT-20" x="633.837891"/>
       <use xlink:href="#ArialMT-54" x="659.871094"/>
       <use xlink:href="#ArialMT-6f" x="709.830078"/>
       <use xlink:href="#ArialMT-6e" x="765.445312"/>
       <use xlink:href="#ArialMT-67" x="821.060547"/>
       <use xlink:href="#ArialMT-20" x="876.675781"/>
       <use xlink:href="#ArialMT-55" x="904.458984"/>
       <use xlink:href="#ArialMT-6e" x="976.675781"/>
       <use xlink:href="#ArialMT-69" x="1032.291016"/>
       <use xlink:href="#ArialMT-76" x="1054.507812"/>
       <use xlink:href="#ArialMT-65" x="1104.507812"/>
       <use xlink:href="#ArialMT-72" x="1160.123047"/>
       <use xlink:href="#ArialMT-73" x="1193.423828"/>
       <use xlink:href="#ArialMT-69" x="1243.423828"/>
       <use xlink:href="#ArialMT-74" x="1265.640625"/>
       <use xlink:href="#ArialMT-79" x="1293.423828"/>
      </g>
     </g>
    </g>
    <g id="ytick_12">
     <g id="line2d_37">
      <path d="M 360.419844 107.941875 
L 806.819844 107.941875 
" clip-path="url(#pb0d64fa120)" style="fill: none; stroke: #cccccc; stroke-width: 0.8; stroke-linecap: round"/>
     </g>
     <g id="line2d_38">
      <g>
       <use xlink:href="#m7398a2dca0" x="360.419844" y="107.941875" style="fill: #262626; stroke: #262626; stroke-width: 0.8"/>
      </g>
     </g>
     <g id="text_20">
      <!-- Tianjin University -->
      <g style="fill: #262626" transform="translate(253.43875 112.594453) scale(0.13 -0.13)">
       <use xlink:href="#ArialMT-54"/>
       <use xlink:href="#ArialMT-69" x="57.333984"/>
       <use xlink:href="#ArialMT-61" x="79.550781"/>
       <use xlink:href="#ArialMT-6e" x="135.166016"/>
       <use xlink:href="#ArialMT-6a" x="190.78125"/>
       <use xlink:href="#ArialMT-69" x="212.998047"/>
       <use xlink:href="#ArialMT-6e" x="235.214844"/>
       <use xlink:href="#ArialMT-20" x="290.830078"/>
       <use xlink:href="#ArialMT-55" x="318.613281"/>
       <use xlink:href="#ArialMT-6e" x="390.830078"/>
       <use xlink:href="#ArialMT-69" x="446.445312"/>
       <use xlink:href="#ArialMT-76" x="468.662109"/>
       <use xlink:href="#ArialMT-65" x="518.662109"/>
       <use xlink:href="#ArialMT-72" x="574.277344"/>
       <use xlink:href="#ArialMT-73" x="607.578125"/>
       <use xlink:href="#ArialMT-69" x="657.578125"/>
       <use xlink:href="#ArialMT-74" x="679.794922"/>
       <use xlink:href="#ArialMT-79" x="707.578125"/>
      </g>
     </g>
    </g>
    <g id="ytick_13">
     <g id="line2d_39">
      <path d="M 360.419844 86.941875 
L 806.819844 86.941875 
" clip-path="url(#pb0d64fa120)" style="fill: none; stroke: #cccccc; stroke-width: 0.8; stroke-linecap: round"/>
     </g>
     <g id="line2d_40">
      <g>
       <use xlink:href="#m7398a2dca0" x="360.419844" y="86.941875" style="fill: #262626; stroke: #262626; stroke-width: 0.8"/>
      </g>
     </g>
     <g id="text_21">
      <!-- Beijing Institute of Technology -->
      <g style="fill: #262626" transform="translate(180.1675 91.673672) scale(0.13 -0.13)">
       <defs>
        <path id="ArialMT-42" d="M 469 0 
L 469 4581 
L 2188 4581 
Q 2713 4581 3030 4442 
Q 3347 4303 3526 4014 
Q 3706 3725 3706 3409 
Q 3706 3116 3547 2856 
Q 3388 2597 3066 2438 
Q 3481 2316 3704 2022 
Q 3928 1728 3928 1328 
Q 3928 1006 3792 729 
Q 3656 453 3456 303 
Q 3256 153 2954 76 
Q 2653 0 2216 0 
L 469 0 
z
M 1075 2656 
L 2066 2656 
Q 2469 2656 2644 2709 
Q 2875 2778 2992 2937 
Q 3109 3097 3109 3338 
Q 3109 3566 3000 3739 
Q 2891 3913 2687 3977 
Q 2484 4041 1991 4041 
L 1075 4041 
L 1075 2656 
z
M 1075 541 
L 2216 541 
Q 2509 541 2628 563 
Q 2838 600 2978 687 
Q 3119 775 3209 942 
Q 3300 1109 3300 1328 
Q 3300 1584 3169 1773 
Q 3038 1963 2805 2039 
Q 2572 2116 2134 2116 
L 1075 2116 
L 1075 541 
z
" transform="scale(0.015625)"/>
       </defs>
       <use xlink:href="#ArialMT-42"/>
       <use xlink:href="#ArialMT-65" x="66.699219"/>
       <use xlink:href="#ArialMT-69" x="122.314453"/>
       <use xlink:href="#ArialMT-6a" x="144.53125"/>
       <use xlink:href="#ArialMT-69" x="166.748047"/>
       <use xlink:href="#ArialMT-6e" x="188.964844"/>
       <use xlink:href="#ArialMT-67" x="244.580078"/>
       <use xlink:href="#ArialMT-20" x="300.195312"/>
       <use xlink:href="#ArialMT-49" x="327.978516"/>
       <use xlink:href="#ArialMT-6e" x="355.761719"/>
       <use xlink:href="#ArialMT-73" x="411.376953"/>
       <use xlink:href="#ArialMT-74" x="461.376953"/>
       <use xlink:href="#ArialMT-69" x="489.160156"/>
       <use xlink:href="#ArialMT-74" x="511.376953"/>
       <use xlink:href="#ArialMT-75" x="539.160156"/>
       <use xlink:href="#ArialMT-74" x="594.775391"/>
       <use xlink:href="#ArialMT-65" x="622.558594"/>
       <use xlink:href="#ArialMT-20" x="678.173828"/>
       <use xlink:href="#ArialMT-6f" x="705.957031"/>
       <use xlink:href="#ArialMT-66" x="761.572266"/>
       <use xlink:href="#ArialMT-20" x="789.355469"/>
       <use xlink:href="#ArialMT-54" x="815.388672"/>
       <use xlink:href="#ArialMT-65" x="865.347656"/>
       <use xlink:href="#ArialMT-63" x="920.962891"/>
       <use xlink:href="#ArialMT-68" x="970.962891"/>
       <use xlink:href="#ArialMT-6e" x="1026.578125"/>
       <use xlink:href="#ArialMT-6f" x="1082.193359"/>
       <use xlink:href="#ArialMT-6c" x="1137.808594"/>
       <use xlink:href="#ArialMT-6f" x="1160.025391"/>
       <use xlink:href="#ArialMT-67" x="1215.640625"/>
       <use xlink:href="#ArialMT-79" x="1271.255859"/>
      </g>
     </g>
    </g>
    <g id="ytick_14">
     <g id="line2d_41">
      <path d="M 360.419844 65.941875 
L 806.819844 65.941875 
" clip-path="url(#pb0d64fa120)" style="fill: none; stroke: #cccccc; stroke-width: 0.8; stroke-linecap: round"/>
     </g>
     <g id="line2d_42">
      <g>
       <use xlink:href="#m7398a2dca0" x="360.419844" y="65.941875" style="fill: #262626; stroke: #262626; stroke-width: 0.8"/>
      </g>
     </g>
     <g id="text_22">
      <!-- Renmin University of China -->
      <g style="fill: #262626" transform="translate(194.422812 70.673672) scale(0.13 -0.13)">
       <use xlink:href="#ArialMT-52"/>
       <use xlink:href="#ArialMT-65" x="72.216797"/>
       <use xlink:href="#ArialMT-6e" x="127.832031"/>
       <use xlink:href="#ArialMT-6d" x="183.447266"/>
       <use xlink:href="#ArialMT-69" x="266.748047"/>
       <use xlink:href="#ArialMT-6e" x="288.964844"/>
       <use xlink:href="#ArialMT-20" x="344.580078"/>
       <use xlink:href="#ArialMT-55" x="372.363281"/>
       <use xlink:href="#ArialMT-6e" x="444.580078"/>
       <use xlink:href="#ArialMT-69" x="500.195312"/>
       <use xlink:href="#ArialMT-76" x="522.412109"/>
       <use xlink:href="#ArialMT-65" x="572.412109"/>
       <use xlink:href="#ArialMT-72" x="628.027344"/>
       <use xlink:href="#ArialMT-73" x="661.328125"/>
       <use xlink:href="#ArialMT-69" x="711.328125"/>
       <use xlink:href="#ArialMT-74" x="733.544922"/>
       <use xlink:href="#ArialMT-79" x="761.328125"/>
       <use xlink:href="#ArialMT-20" x="811.328125"/>
       <use xlink:href="#ArialMT-6f" x="839.111328"/>
       <use xlink:href="#ArialMT-66" x="894.726562"/>
       <use xlink:href="#ArialMT-20" x="922.509766"/>
       <use xlink:href="#ArialMT-43" x="950.292969"/>
       <use xlink:href="#ArialMT-68" x="1022.509766"/>
       <use xlink:href="#ArialMT-69" x="1078.125"/>
       <use xlink:href="#ArialMT-6e" x="1100.341797"/>
       <use xlink:href="#ArialMT-61" x="1155.957031"/>
      </g>
     </g>
    </g>
    <g id="ytick_15">
     <g id="line2d_43">
      <path d="M 360.419844 44.941875 
L 806.819844 44.941875 
" clip-path="url(#pb0d64fa120)" style="fill: none; stroke: #cccccc; stroke-width: 0.8; stroke-linecap: round"/>
     </g>
     <g id="line2d_44">
      <g>
       <use xlink:href="#m7398a2dca0" x="360.419844" y="44.941875" style="fill: #262626; stroke: #262626; stroke-width: 0.8"/>
      </g>
     </g>
     <g id="text_23">
      <!-- University of Electronic Science and Technology of China -->
      <g style="fill: #262626" transform="translate(23.3875 49.673672) scale(0.13 -0.13)">
       <defs>
        <path id="ArialMT-64" d="M 2575 0 
L 2575 419 
Q 2259 -75 1647 -75 
Q 1250 -75 917 144 
Q 584 363 401 755 
Q 219 1147 219 1656 
Q 219 2153 384 2558 
Q 550 2963 881 3178 
Q 1213 3394 1622 3394 
Q 1922 3394 2156 3267 
Q 2391 3141 2538 2938 
L 2538 4581 
L 3097 4581 
L 3097 0 
L 2575 0 
z
M 797 1656 
Q 797 1019 1065 703 
Q 1334 388 1700 388 
Q 2069 388 2326 689 
Q 2584 991 2584 1609 
Q 2584 2291 2321 2609 
Q 2059 2928 1675 2928 
Q 1300 2928 1048 2622 
Q 797 2316 797 1656 
z
" transform="scale(0.015625)"/>
       </defs>
       <use xlink:href="#ArialMT-55"/>
       <use xlink:href="#ArialMT-6e" x="72.216797"/>
       <use xlink:href="#ArialMT-69" x="127.832031"/>
       <use xlink:href="#ArialMT-76" x="150.048828"/>
       <use xlink:href="#ArialMT-65" x="200.048828"/>
       <use xlink:href="#ArialMT-72" x="255.664062"/>
       <use xlink:href="#ArialMT-73" x="288.964844"/>
       <use xlink:href="#ArialMT-69" x="338.964844"/>
       <use xlink:href="#ArialMT-74" x="361.181641"/>
       <use xlink:href="#ArialMT-79" x="388.964844"/>
       <use xlink:href="#ArialMT-20" x="438.964844"/>
       <use xlink:href="#ArialMT-6f" x="466.748047"/>
       <use xlink:href="#ArialMT-66" x="522.363281"/>
       <use xlink:href="#ArialMT-20" x="550.146484"/>
       <use xlink:href="#ArialMT-45" x="577.929688"/>
       <use xlink:href="#ArialMT-6c" x="644.628906"/>
       <use xlink:href="#ArialMT-65" x="666.845703"/>
       <use xlink:href="#ArialMT-63" x="722.460938"/>
       <use xlink:href="#ArialMT-74" x="772.460938"/>
       <use xlink:href="#ArialMT-72" x="800.244141"/>
       <use xlink:href="#ArialMT-6f" x="833.544922"/>
       <use xlink:href="#ArialMT-6e" x="889.160156"/>
       <use xlink:href="#ArialMT-69" x="944.775391"/>
       <use xlink:href="#ArialMT-63" x="966.992188"/>
       <use xlink:href="#ArialMT-20" x="1016.992188"/>
       <use xlink:href="#ArialMT-53" x="1044.775391"/>
       <use xlink:href="#ArialMT-63" x="1111.474609"/>
       <use xlink:href="#ArialMT-69" x="1161.474609"/>
       <use xlink:href="#ArialMT-65" x="1183.691406"/>
       <use xlink:href="#ArialMT-6e" x="1239.306641"/>
       <use xlink:href="#ArialMT-63" x="1294.921875"/>
       <use xlink:href="#ArialMT-65" x="1344.921875"/>
       <use xlink:href="#ArialMT-20" x="1400.537109"/>
       <use xlink:href="#ArialMT-61" x="1428.320312"/>
       <use xlink:href="#ArialMT-6e" x="1483.935547"/>
       <use xlink:href="#ArialMT-64" x="1539.550781"/>
       <use xlink:href="#ArialMT-20" x="1595.166016"/>
       <use xlink:href="#ArialMT-54" x="1621.199219"/>
       <use xlink:href="#ArialMT-65" x="1671.158203"/>
       <use xlink:href="#ArialMT-63" x="1726.773438"/>
       <use xlink:href="#ArialMT-68" x="1776.773438"/>
       <use xlink:href="#ArialMT-6e" x="1832.388672"/>
       <use xlink:href="#ArialMT-6f" x="1888.003906"/>
       <use xlink:href="#ArialMT-6c" x="1943.619141"/>
       <use xlink:href="#ArialMT-6f" x="1965.835938"/>
       <use xlink:href="#ArialMT-67" x="2021.451172"/>
       <use xlink:href="#ArialMT-79" x="2077.066406"/>
       <use xlink:href="#ArialMT-20" x="2127.066406"/>
       <use xlink:href="#ArialMT-6f" x="2154.849609"/>
       <use xlink:href="#ArialMT-66" x="2210.464844"/>
       <use xlink:href="#ArialMT-20" x="2238.248047"/>
       <use xlink:href="#ArialMT-43" x="2266.03125"/>
       <use xlink:href="#ArialMT-68" x="2338.248047"/>
       <use xlink:href="#ArialMT-69" x="2393.863281"/>
       <use xlink:href="#ArialMT-6e" x="2416.080078"/>
       <use xlink:href="#ArialMT-61" x="2471.695312"/>
      </g>
     </g>
    </g>
    <g id="text_24">
     <!-- 学校名称 -->
     <g style="fill: #262626" transform="translate(17.7625 217.941875) rotate(-90) scale(0.13 -0.13)">
      <defs>
       <path id="SimHei-5b66" d="M 4875 2675 
L 4875 2150 
Q 4525 2075 4237 1912 
Q 3950 1750 3575 1575 
L 3575 1350 
L 5150 1350 
Q 5450 1350 5925 1375 
L 5925 875 
Q 5425 900 5150 900 
L 3575 900 
L 3575 -125 
Q 3575 -475 3300 -562 
Q 3025 -650 2400 -700 
Q 2325 -425 2150 -150 
L 2825 -150 
Q 3075 -150 3075 125 
L 3075 900 
L 1350 900 
Q 950 900 450 875 
L 450 1375 
Q 975 1350 1325 1350 
L 3075 1350 
Q 3075 1550 3025 1800 
L 3925 2250 
L 2550 2250 
Q 2075 2250 1475 2225 
L 1475 2700 
Q 2025 2675 2525 2675 
L 4875 2675 
z
M 5350 4975 
Q 4850 4400 4500 3800 
L 5875 3800 
Q 5850 3575 5850 3275 
Q 5850 2975 5875 2700 
L 5350 2700 
L 5350 3375 
L 1025 3375 
L 1025 2675 
L 500 2675 
Q 525 2975 525 3275 
Q 525 3575 500 3800 
L 3975 3800 
Q 4175 4150 4387 4537 
Q 4600 4925 4725 5300 
Q 5125 5075 5350 4975 
z
M 2950 5225 
Q 3425 4625 3575 4350 
Q 3350 4175 3100 4025 
Q 2900 4425 2500 4925 
Q 2750 5100 2950 5225 
z
M 1250 5050 
Q 1700 4675 2025 4275 
Q 1750 4075 1600 3900 
Q 1275 4375 850 4725 
Q 1125 4925 1250 5050 
z
" transform="scale(0.015625)"/>
       <path id="SimHei-6821" d="M 1250 3825 
Q 1250 4800 1225 5125 
L 1750 5125 
Q 1725 4800 1725 3825 
Q 2025 3825 2375 3850 
L 2375 3400 
Q 2050 3425 1725 3425 
L 1725 2475 
Q 1900 2600 2100 2700 
Q 2375 2225 2600 1875 
Q 2350 1750 2125 1600 
Q 1975 2000 1725 2425 
L 1725 475 
Q 1725 -25 1750 -550 
L 1225 -550 
Q 1250 -25 1250 475 
L 1250 2325 
Q 1025 1575 625 800 
Q 425 1100 200 1275 
Q 850 2125 1150 3425 
Q 775 3425 350 3400 
L 350 3850 
Q 775 3825 1250 3825 
z
M 3550 2225 
Q 3875 1375 4200 1000 
Q 4575 1425 4850 2300 
Q 5075 2150 5400 2100 
Q 5225 1800 5062 1450 
Q 4900 1100 4525 650 
Q 4750 400 5175 200 
Q 5600 0 6200 -100 
Q 5875 -350 5800 -600 
Q 5275 -425 4862 -200 
Q 4450 25 4200 300 
Q 3875 25 3525 -175 
Q 3175 -375 2475 -650 
Q 2325 -375 2100 -200 
Q 2850 0 3212 200 
Q 3575 400 3875 650 
Q 3400 1225 3125 2025 
Q 3350 2075 3550 2225 
z
M 5150 4275 
Q 5650 4275 6100 4300 
L 6100 3850 
Q 5700 3875 5150 3875 
L 3375 3875 
Q 2875 3875 2500 3850 
L 2500 4300 
Q 2875 4275 3375 4275 
L 5150 4275 
z
M 4025 3250 
Q 3850 3125 3525 2762 
Q 3200 2400 3000 2175 
Q 2800 2350 2550 2475 
Q 3200 3050 3500 3575 
L 4025 3250 
z
M 5025 3525 
Q 5775 2925 6100 2650 
Q 5850 2450 5650 2250 
Q 5400 2600 4675 3200 
Q 4900 3350 5025 3525 
z
M 4225 5250 
Q 4425 4975 4625 4550 
Q 4400 4475 4125 4325 
Q 4050 4650 3800 5050 
L 4225 5250 
z
" transform="scale(0.015625)"/>
       <path id="SimHei-540d" d="M 2900 5000 
Q 2775 4875 2687 4750 
Q 2600 4625 2475 4450 
L 5350 4450 
Q 5050 4000 4512 3312 
Q 3975 2625 2975 2000 
L 5500 2000 
Q 5475 1625 5475 1225 
L 5475 200 
Q 5475 -225 5500 -625 
L 4975 -625 
L 4975 -75 
L 2250 -75 
L 2250 -650 
L 1750 -650 
Q 1775 -300 1775 150 
L 1775 1400 
Q 950 1050 625 950 
Q 525 1200 300 1425 
Q 950 1550 1737 1875 
Q 2525 2200 2950 2525 
Q 2400 3025 1975 3300 
Q 2150 3450 2325 3675 
Q 3125 3025 3375 2825 
Q 4000 3300 4500 4050 
L 2225 4050 
Q 1475 3150 1050 2825 
Q 900 2975 600 3150 
Q 1175 3525 1587 4012 
Q 2000 4500 2350 5250 
Q 2675 5075 2900 5000 
z
M 4975 325 
L 4975 1600 
L 2250 1600 
L 2250 325 
L 4975 325 
z
" transform="scale(0.015625)"/>
       <path id="SimHei-79f0" d="M 250 775 
Q 525 1125 775 1637 
Q 1025 2150 1175 2825 
Q 650 2825 375 2800 
L 375 3250 
Q 925 3225 1425 3225 
L 1425 4275 
Q 1175 4225 600 4100 
Q 500 4375 400 4550 
Q 725 4575 975 4612 
Q 1225 4650 1475 4700 
Q 1725 4750 1950 4825 
Q 2175 4900 2450 5050 
Q 2600 4725 2775 4525 
Q 2350 4475 1875 4350 
L 1875 3225 
Q 2150 3225 2675 3250 
L 2675 2750 
Q 2150 2800 1875 2800 
L 1875 2050 
Q 2025 2175 2200 2325 
Q 2450 1950 2675 1550 
Q 2500 1450 2300 1275 
Q 2050 1775 1875 2000 
L 1875 150 
Q 1875 -100 1900 -625 
L 1375 -625 
Q 1425 -125 1425 150 
L 1425 2175 
Q 1200 1475 1000 1100 
Q 800 725 550 350 
Q 400 575 250 775 
z
M 4100 5075 
Q 3975 4800 3750 4150 
L 5925 4150 
L 5525 2750 
Q 5275 2800 5050 2875 
Q 5150 3175 5275 3725 
L 3625 3725 
Q 3450 3200 3225 2625 
Q 2925 2750 2725 2800 
Q 3050 3375 3237 4012 
Q 3425 4650 3550 5275 
Q 3875 5125 4100 5075 
z
M 4600 3175 
Q 4575 2925 4575 2300 
L 4575 50 
Q 4575 -425 4325 -512 
Q 4075 -600 3625 -675 
Q 3550 -350 3425 -100 
Q 3850 -125 3987 -100 
Q 4125 -75 4125 200 
L 4125 2300 
Q 4125 2875 4100 3175 
L 4600 3175 
z
M 3675 1975 
Q 3525 1675 3375 1262 
Q 3225 850 2925 125 
Q 2625 275 2425 350 
Q 2825 1050 3150 2200 
Q 3400 2075 3675 1975 
z
M 5300 2125 
Q 5500 1800 5750 1375 
Q 6000 950 6175 525 
Q 5875 400 5700 250 
Q 5450 800 5250 1212 
Q 5050 1625 4875 1850 
Q 5100 1975 5300 2125 
z
" transform="scale(0.015625)"/>
      </defs>
      <use xlink:href="#SimHei-5b66"/>
      <use xlink:href="#SimHei-6821" x="100"/>
      <use xlink:href="#SimHei-540d" x="200"/>
      <use xlink:href="#SimHei-79f0" x="300"/>
     </g>
    </g>
   </g>
   <g id="patch_3">
    <path d="M 360.419844 343.141875 
L 502.134129 343.141875 
L 502.134129 334.741875 
L 360.419844 334.741875 
z
" clip-path="url(#pb0d64fa120)" style="fill: #fdfcc9"/>
   </g>
   <g id="patch_4">
    <path d="M 360.419844 322.141875 
L 502.134129 322.141875 
L 502.134129 313.741875 
L 360.419844 313.741875 
z
" clip-path="url(#pb0d64fa120)" style="fill: #fdfcc9"/>
   </g>
   <g id="patch_5">
    <path d="M 360.419844 301.141875 
L 502.134129 301.141875 
L 502.134129 292.741875 
L 360.419844 292.741875 
z
" clip-path="url(#pb0d64fa120)" style="fill: #fdfcc9"/>
   </g>
   <g id="patch_6">
    <path d="M 360.419844 280.141875 
L 502.134129 280.141875 
L 502.134129 271.741875 
L 360.419844 271.741875 
z
" clip-path="url(#pb0d64fa120)" style="fill: #fdfcc9"/>
   </g>
   <g id="patch_7">
    <path d="M 360.419844 259.141875 
L 502.134129 259.141875 
L 502.134129 250.741875 
L 360.419844 250.741875 
z
" clip-path="url(#pb0d64fa120)" style="fill: #fdfcc9"/>
   </g>
   <g id="patch_8">
    <path d="M 360.419844 238.141875 
L 502.134129 238.141875 
L 502.134129 229.741875 
L 360.419844 229.741875 
z
" clip-path="url(#pb0d64fa120)" style="fill: #fdfcc9"/>
   </g>
   <g id="patch_9">
    <path d="M 360.419844 217.141875 
L 502.134129 217.141875 
L 502.134129 208.741875 
L 360.419844 208.741875 
z
" clip-path="url(#pb0d64fa120)" style="fill: #fdfcc9"/>
   </g>
   <g id="patch_10">
    <path d="M 360.419844 196.141875 
L 643.848415 196.141875 
L 643.848415 187.741875 
L 360.419844 187.741875 
z
" clip-path="url(#pb0d64fa120)" style="fill: #fdfcc9"/>
   </g>
   <g id="patch_11">
    <path d="M 360.419844 175.141875 
L 643.848415 175.141875 
L 643.848415 166.741875 
L 360.419844 166.741875 
z
" clip-path="url(#pb0d64fa120)" style="fill: #fdfcc9"/>
   </g>
   <g id="patch_12">
    <path d="M 360.419844 154.141875 
L 643.848415 154.141875 
L 643.848415 145.741875 
L 360.419844 145.741875 
z
" clip-path="url(#pb0d64fa120)" style="fill: #fdfcc9"/>
   </g>
   <g id="patch_13">
    <path d="M 360.419844 133.141875 
L 643.848415 133.141875 
L 643.848415 124.741875 
L 360.419844 124.741875 
z
" clip-path="url(#pb0d64fa120)" style="fill: #fdfcc9"/>
   </g>
   <g id="patch_14">
    <path d="M 360.419844 112.141875 
L 643.848415 112.141875 
L 643.848415 103.741875 
L 360.419844 103.741875 
z
" clip-path="url(#pb0d64fa120)" style="fill: #fdfcc9"/>
   </g>
   <g id="patch_15">
    <path d="M 360.419844 91.141875 
L 785.562701 91.141875 
L 785.562701 82.741875 
L 360.419844 82.741875 
z
" clip-path="url(#pb0d64fa120)" style="fill: #fdfcc9"/>
   </g>
   <g id="patch_16">
    <path d="M 360.419844 70.141875 
L 785.562701 70.141875 
L 785.562701 61.741875 
L 360.419844 61.741875 
z
" clip-path="url(#pb0d64fa120)" style="fill: #fdfcc9"/>
   </g>
   <g id="patch_17">
    <path d="M 360.419844 49.141875 
L 785.562701 49.141875 
L 785.562701 40.741875 
L 360.419844 40.741875 
z
" clip-path="url(#pb0d64fa120)" style="fill: #fdfcc9"/>
   </g>
   <g id="patch_18">
    <path d="M 360.419844 358.261875 
L 360.419844 25.621875 
" style="fill: none; stroke: #cccccc; stroke-linejoin: miter; stroke-linecap: square"/>
   </g>
   <g id="patch_19">
    <path d="M 806.819844 358.261875 
L 806.819844 25.621875 
" style="fill: none; stroke: #cccccc; stroke-linejoin: miter; stroke-linecap: square"/>
   </g>
   <g id="patch_20">
    <path d="M 360.419844 358.261875 
L 806.819844 358.261875 
" style="fill: none; stroke: #cccccc; stroke-linejoin: miter; stroke-linecap: square"/>
   </g>
   <g id="patch_21">
    <path d="M 360.419844 25.621875 
L 806.819844 25.621875 
" style="fill: none; stroke: #cccccc; stroke-linejoin: miter; stroke-linecap: square"/>
   </g>
   <g id="text_25">
    <!-- 1 -->
    <g style="fill: #262626" transform="translate(502.134129 342.511875) scale(0.13 -0.13)">
     <defs>
      <path id="TimesNewRomanPSMT-31" d="M 750 3822 
L 1781 4325 
L 1884 4325 
L 1884 747 
Q 1884 391 1914 303 
Q 1944 216 2037 169 
Q 2131 122 2419 116 
L 2419 0 
L 825 0 
L 825 116 
Q 1125 122 1212 167 
Q 1300 213 1334 289 
Q 1369 366 1369 747 
L 1369 3034 
Q 1369 3497 1338 3628 
Q 1316 3728 1258 3775 
Q 1200 3822 1119 3822 
Q 1003 3822 797 3725 
L 750 3822 
z
" transform="scale(0.015625)"/>
     </defs>
     <use xlink:href="#TimesNewRomanPSMT-31"/>
    </g>
   </g>
   <g id="text_26">
    <!-- 1 -->
    <g style="fill: #262626" transform="translate(502.134129 321.511875) scale(0.13 -0.13)">
     <use xlink:href="#TimesNewRomanPSMT-31"/>
    </g>
   </g>
   <g id="text_27">
    <!-- 1 -->
    <g style="fill: #262626" transform="translate(502.134129 300.511875) scale(0.13 -0.13)">
     <use xlink:href="#TimesNewRomanPSMT-31"/>
    </g>
   </g>
   <g id="text_28">
    <!-- 1 -->
    <g style="fill: #262626" transform="translate(502.134129 279.511875) scale(0.13 -0.13)">
     <use xlink:href="#TimesNewRomanPSMT-31"/>
    </g>
   </g>
   <g id="text_29">
    <!-- 1 -->
    <g style="fill: #262626" transform="translate(502.134129 258.511875) scale(0.13 -0.13)">
     <use xlink:href="#TimesNewRomanPSMT-31"/>
    </g>
   </g>
   <g id="text_30">
    <!-- 1 -->
    <g style="fill: #262626" transform="translate(502.134129 237.511875) scale(0.13 -0.13)">
     <use xlink:href="#TimesNewRomanPSMT-31"/>
    </g>
   </g>
   <g id="text_31">
    <!-- 1 -->
    <g style="fill: #262626" transform="translate(502.134129 216.511875) scale(0.13 -0.13)">
     <use xlink:href="#TimesNewRomanPSMT-31"/>
    </g>
   </g>
   <g id="text_32">
    <!-- 2 -->
    <g style="fill: #262626" transform="translate(643.848415 195.511875) scale(0.13 -0.13)">
     <defs>
      <path id="TimesNewRomanPSMT-32" d="M 2934 816 
L 2638 0 
L 138 0 
L 138 116 
Q 1241 1122 1691 1759 
Q 2141 2397 2141 2925 
Q 2141 3328 1894 3587 
Q 1647 3847 1303 3847 
Q 991 3847 742 3664 
Q 494 3481 375 3128 
L 259 3128 
Q 338 3706 661 4015 
Q 984 4325 1469 4325 
Q 1984 4325 2329 3994 
Q 2675 3663 2675 3213 
Q 2675 2891 2525 2569 
Q 2294 2063 1775 1497 
Q 997 647 803 472 
L 1909 472 
Q 2247 472 2383 497 
Q 2519 522 2628 598 
Q 2738 675 2819 816 
L 2934 816 
z
" transform="scale(0.015625)"/>
     </defs>
     <use xlink:href="#TimesNewRomanPSMT-32"/>
    </g>
   </g>
   <g id="text_33">
    <!-- 2 -->
    <g style="fill: #262626" transform="translate(643.848415 174.511875) scale(0.13 -0.13)">
     <use xlink:href="#TimesNewRomanPSMT-32"/>
    </g>
   </g>
   <g id="text_34">
    <!-- 2 -->
    <g style="fill: #262626" transform="translate(643.848415 153.511875) scale(0.13 -0.13)">
     <use xlink:href="#TimesNewRomanPSMT-32"/>
    </g>
   </g>
   <g id="text_35">
    <!-- 2 -->
    <g style="fill: #262626" transform="translate(643.848415 132.511875) scale(0.13 -0.13)">
     <use xlink:href="#TimesNewRomanPSMT-32"/>
    </g>
   </g>
   <g id="text_36">
    <!-- 2 -->
    <g style="fill: #262626" transform="translate(643.848415 111.511875) scale(0.13 -0.13)">
     <use xlink:href="#TimesNewRomanPSMT-32"/>
    </g>
   </g>
   <g id="text_37">
    <!-- 3 -->
    <g style="fill: #262626" transform="translate(785.562701 90.511875) scale(0.13 -0.13)">
     <defs>
      <path id="TimesNewRomanPSMT-33" d="M 325 3431 
Q 506 3859 782 4092 
Q 1059 4325 1472 4325 
Q 1981 4325 2253 3994 
Q 2459 3747 2459 3466 
Q 2459 3003 1878 2509 
Q 2269 2356 2469 2072 
Q 2669 1788 2669 1403 
Q 2669 853 2319 450 
Q 1863 -75 997 -75 
Q 569 -75 414 31 
Q 259 138 259 259 
Q 259 350 332 419 
Q 406 488 509 488 
Q 588 488 669 463 
Q 722 447 909 348 
Q 1097 250 1169 231 
Q 1284 197 1416 197 
Q 1734 197 1970 444 
Q 2206 691 2206 1028 
Q 2206 1275 2097 1509 
Q 2016 1684 1919 1775 
Q 1784 1900 1550 2001 
Q 1316 2103 1072 2103 
L 972 2103 
L 972 2197 
Q 1219 2228 1467 2375 
Q 1716 2522 1828 2728 
Q 1941 2934 1941 3181 
Q 1941 3503 1739 3701 
Q 1538 3900 1238 3900 
Q 753 3900 428 3381 
L 325 3431 
z
" transform="scale(0.015625)"/>
     </defs>
     <use xlink:href="#TimesNewRomanPSMT-33"/>
    </g>
   </g>
   <g id="text_38">
    <!-- 3 -->
    <g style="fill: #262626" transform="translate(785.562701 69.511875) scale(0.13 -0.13)">
     <use xlink:href="#TimesNewRomanPSMT-33"/>
    </g>
   </g>
   <g id="text_39">
    <!-- 3 -->
    <g style="fill: #262626" transform="translate(785.562701 48.511875) scale(0.13 -0.13)">
     <use xlink:href="#TimesNewRomanPSMT-33"/>
    </g>
   </g>
   <g id="text_40">
    <!-- 获得Outstanding Winner奖项最多前十五名学校名称 -->
    <g style="fill: #262626" transform="translate(411.119844 19.621875) scale(0.15 -0.15)">
     <defs>
      <path id="SimHei-83b7" d="M 4325 3350 
Q 4275 3075 4275 2350 
L 5175 2350 
Q 5550 2350 5825 2375 
L 5825 1925 
Q 5550 1950 5175 1950 
L 4300 1950 
Q 4350 1700 4475 1400 
Q 4600 1100 4825 812 
Q 5050 525 5375 262 
Q 5700 0 5950 -75 
Q 5650 -300 5525 -525 
Q 5075 -200 4675 262 
Q 4275 725 4050 1350 
Q 3875 825 3637 475 
Q 3400 125 3187 -112 
Q 2975 -350 2625 -600 
Q 2450 -375 2250 -225 
Q 2550 -50 2825 200 
Q 3100 450 3287 750 
Q 3475 1050 3600 1387 
Q 3725 1725 3750 1950 
L 3475 1950 
Q 3050 1950 2600 1925 
L 2600 2375 
Q 3050 2350 3475 2350 
L 3800 2350 
Q 3800 3150 3775 3425 
Q 4025 3375 4325 3350 
z
M 2575 3200 
Q 2400 3100 2225 2962 
Q 2050 2825 1950 2725 
Q 2200 2375 2325 1837 
Q 2450 1300 2387 700 
Q 2325 100 1962 -187 
Q 1600 -475 975 -600 
Q 950 -400 775 -150 
Q 1350 -75 1587 100 
Q 1825 275 1887 512 
Q 1950 750 1962 987 
Q 1975 1225 1925 1625 
Q 1750 1375 1500 1162 
Q 1250 950 700 525 
Q 575 725 350 875 
Q 800 1075 1187 1412 
Q 1575 1750 1800 2050 
Q 1700 2300 1600 2450 
Q 1475 2350 1287 2225 
Q 1100 2100 700 1850 
Q 550 2025 375 2175 
Q 925 2400 1350 2775 
Q 1025 3050 750 3175 
Q 925 3325 1050 3525 
Q 1500 3200 1700 3050 
Q 2050 3325 2175 3550 
Q 2300 3375 2575 3200 
z
M 2550 4125 
Q 2550 3875 2575 3625 
L 2050 3625 
Q 2075 3950 2075 4125 
L 1400 4125 
Q 1025 4125 575 4100 
L 575 4550 
Q 1050 4525 1425 4525 
L 2075 4525 
Q 2075 4825 2050 5125 
L 2575 5125 
Q 2550 4875 2550 4525 
L 3825 4525 
Q 3825 4875 3800 5150 
L 4325 5150 
Q 4300 4875 4300 4525 
L 4925 4525 
Q 5325 4525 5825 4550 
L 5825 4100 
Q 5375 4125 4950 4125 
L 4300 4125 
Q 4300 3900 4325 3625 
L 3800 3625 
Q 3825 3875 3825 4125 
L 2550 4125 
z
M 4975 3425 
Q 5250 3175 5600 2700 
Q 5400 2575 5225 2400 
Q 4925 2850 4625 3150 
Q 4750 3225 4975 3425 
z
" transform="scale(0.015625)"/>
      <path id="SimHei-5f97" d="M 5575 4975 
Q 5550 4625 5550 3950 
Q 5550 3300 5575 2900 
L 2675 2900 
Q 2700 3300 2700 3950 
Q 2700 4600 2675 4975 
L 5575 4975 
z
M 1950 1625 
Q 2400 1600 2950 1600 
L 4775 1600 
L 4775 2100 
L 3125 2100 
Q 2700 2100 2325 2075 
L 2325 2500 
Q 2700 2475 3125 2475 
L 5000 2475 
Q 5525 2475 5900 2500 
L 5900 2075 
Q 5575 2100 5225 2100 
L 5225 1600 
Q 5675 1600 6075 1625 
L 6075 1175 
Q 5700 1200 5225 1200 
L 5225 250 
Q 5250 -275 4950 -400 
Q 4650 -525 4175 -600 
Q 4125 -350 3975 -25 
Q 4550 -25 4675 62 
Q 4800 150 4775 425 
L 4775 1200 
L 2950 1200 
Q 2400 1200 1950 1175 
L 1950 1625 
z
M 1150 -550 
Q 1175 125 1175 575 
L 1175 2075 
Q 950 1825 625 1500 
Q 475 1750 275 1925 
Q 775 2300 1150 2775 
Q 1525 3250 1800 3775 
Q 2000 3600 2275 3450 
Q 2050 3150 1625 2575 
L 1625 575 
Q 1625 125 1650 -550 
L 1150 -550 
z
M 2150 4875 
Q 1450 4000 825 3375 
Q 675 3575 475 3750 
Q 1175 4325 1700 5200 
Q 1900 5025 2150 4875 
z
M 5100 3300 
L 5100 3775 
L 3150 3775 
L 3150 3300 
L 5100 3300 
z
M 5100 4150 
L 5100 4600 
L 3150 4600 
L 3150 4150 
L 5100 4150 
z
M 2950 1050 
Q 3325 525 3550 175 
Q 3375 75 3100 -125 
Q 2950 275 2575 750 
Q 2800 900 2950 1050 
z
" transform="scale(0.015625)"/>
      <path id="SimHei-4f" d="M 2950 2275 
Q 2950 1100 2587 587 
Q 2225 75 1575 75 
Q 925 75 550 587 
Q 175 1100 175 2275 
Q 175 3450 550 3950 
Q 925 4450 1575 4450 
Q 2225 4450 2587 3950 
Q 2950 3450 2950 2275 
z
M 2350 2275 
Q 2350 3325 2125 3650 
Q 1900 3975 1575 3975 
Q 1250 3975 1012 3650 
Q 775 3325 775 2275 
Q 775 1225 1012 887 
Q 1250 550 1575 550 
Q 1900 550 2125 887 
Q 2350 1225 2350 2275 
z
" transform="scale(0.015625)"/>
      <path id="SimHei-75" d="M 2800 125 
L 2300 125 
L 2300 650 
Q 2100 375 1862 225 
Q 1625 75 1250 75 
Q 800 75 575 325 
Q 350 575 350 950 
L 350 2925 
L 850 2925 
L 850 1125 
Q 850 825 1000 650 
Q 1150 475 1400 475 
Q 1725 475 2012 812 
Q 2300 1150 2300 1650 
L 2300 2925 
L 2800 2925 
L 2800 125 
z
" transform="scale(0.015625)"/>
      <path id="SimHei-74" d="M 2750 200 
Q 2625 150 2462 112 
Q 2300 75 2025 75 
Q 1575 75 1300 325 
Q 1025 575 1025 1025 
L 1025 2525 
L 175 2525 
L 175 2925 
L 1025 2925 
L 1025 3900 
L 1525 3900 
L 1525 2925 
L 2550 2925 
L 2550 2525 
L 1525 2525 
L 1525 1000 
Q 1525 800 1625 662 
Q 1725 525 2000 525 
Q 2275 525 2450 575 
Q 2625 625 2750 700 
L 2750 200 
z
" transform="scale(0.015625)"/>
      <path id="SimHei-73" d="M 2750 900 
Q 2750 500 2437 287 
Q 2125 75 1650 75 
Q 1050 75 725 312 
Q 400 550 400 1000 
L 900 1000 
Q 900 700 1112 600 
Q 1325 500 1625 500 
Q 1925 500 2075 612 
Q 2225 725 2225 900 
Q 2225 1025 2100 1150 
Q 1975 1275 1475 1350 
Q 900 1425 687 1637 
Q 475 1850 475 2200 
Q 475 2500 762 2737 
Q 1050 2975 1600 2975 
Q 2100 2975 2387 2750 
Q 2675 2525 2675 2150 
L 2175 2150 
Q 2175 2375 2012 2462 
Q 1850 2550 1600 2550 
Q 1275 2550 1137 2437 
Q 1000 2325 1000 2175 
Q 1000 2000 1125 1900 
Q 1250 1800 1650 1750 
Q 2300 1650 2525 1437 
Q 2750 1225 2750 900 
z
" transform="scale(0.015625)"/>
      <path id="SimHei-61" d="M 2875 125 
L 2275 125 
Q 2225 175 2200 262 
Q 2175 350 2175 475 
Q 2000 275 1750 175 
Q 1500 75 1225 75 
Q 825 75 550 275 
Q 275 475 275 850 
Q 275 1225 525 1450 
Q 775 1675 1300 1750 
Q 1650 1800 1912 1875 
Q 2175 1950 2175 2075 
Q 2175 2225 2062 2375 
Q 1950 2525 1575 2525 
Q 1275 2525 1137 2412 
Q 1000 2300 950 2100 
L 400 2100 
Q 450 2500 762 2737 
Q 1075 2975 1575 2975 
Q 2125 2975 2400 2725 
Q 2675 2475 2675 2025 
L 2675 650 
Q 2675 500 2725 375 
Q 2775 250 2875 125 
z
M 2175 1050 
L 2175 1550 
Q 2025 1500 1887 1462 
Q 1750 1425 1425 1375 
Q 1050 1325 937 1200 
Q 825 1075 825 900 
Q 825 750 937 637 
Q 1050 525 1275 525 
Q 1500 525 1762 650 
Q 2025 775 2175 1050 
z
" transform="scale(0.015625)"/>
      <path id="SimHei-6e" d="M 2800 125 
L 2300 125 
L 2300 1925 
Q 2300 2225 2150 2400 
Q 2000 2575 1750 2575 
Q 1425 2575 1137 2237 
Q 850 1900 850 1400 
L 850 125 
L 350 125 
L 350 2925 
L 850 2925 
L 850 2400 
Q 1050 2675 1287 2825 
Q 1525 2975 1900 2975 
Q 2350 2975 2575 2725 
Q 2800 2475 2800 2100 
L 2800 125 
z
" transform="scale(0.015625)"/>
      <path id="SimHei-64" d="M 2750 125 
L 2250 125 
L 2250 500 
Q 2100 275 1900 175 
Q 1700 75 1425 75 
Q 925 75 575 437 
Q 225 800 225 1525 
Q 225 2250 575 2625 
Q 925 3000 1425 3000 
Q 1700 3000 1900 2887 
Q 2100 2775 2250 2550 
L 2250 4400 
L 2750 4400 
L 2750 125 
z
M 2250 1525 
Q 2250 2000 2037 2275 
Q 1825 2550 1525 2550 
Q 1150 2550 962 2275 
Q 775 2000 775 1525 
Q 775 1050 962 787 
Q 1150 525 1525 525 
Q 1825 525 2037 787 
Q 2250 1050 2250 1525 
z
" transform="scale(0.015625)"/>
      <path id="SimHei-69" d="M 1800 3725 
L 1300 3725 
L 1300 4375 
L 1800 4375 
L 1800 3725 
z
M 1800 125 
L 1300 125 
L 1300 2925 
L 1800 2925 
L 1800 125 
z
" transform="scale(0.015625)"/>
      <path id="SimHei-67" d="M 2975 2500 
Q 2800 2550 2637 2562 
Q 2475 2575 2300 2525 
Q 2375 2450 2425 2337 
Q 2475 2225 2475 2000 
Q 2475 1575 2187 1300 
Q 1900 1025 1475 1025 
Q 1375 1025 1212 1062 
Q 1050 1100 950 1150 
Q 875 1100 850 1050 
Q 825 1000 825 925 
Q 825 800 1000 737 
Q 1175 675 1625 675 
Q 2350 675 2612 475 
Q 2875 275 2875 -25 
Q 2875 -425 2487 -612 
Q 2100 -800 1575 -800 
Q 900 -800 575 -625 
Q 250 -450 250 -150 
Q 250 0 375 150 
Q 500 300 700 400 
Q 550 475 462 587 
Q 375 700 375 875 
Q 375 1025 487 1137 
Q 600 1250 750 1325 
Q 625 1450 550 1625 
Q 475 1800 475 2000 
Q 475 2425 762 2700 
Q 1050 2975 1475 2975 
Q 1700 2975 1862 2912 
Q 2025 2850 2150 2725 
Q 2350 2875 2550 2937 
Q 2750 3000 2975 2975 
L 2975 2500 
z
M 1975 2000 
Q 1975 2250 1850 2400 
Q 1725 2550 1475 2550 
Q 1225 2550 1100 2400 
Q 975 2250 975 2000 
Q 975 1750 1100 1600 
Q 1225 1450 1475 1450 
Q 1725 1450 1850 1600 
Q 1975 1750 1975 2000 
z
M 2400 -75 
Q 2400 25 2287 125 
Q 2175 225 1725 225 
Q 1625 225 1450 237 
Q 1275 250 1050 275 
Q 850 200 775 100 
Q 700 0 700 -100 
Q 700 -250 900 -350 
Q 1100 -450 1600 -450 
Q 2025 -450 2212 -337 
Q 2400 -225 2400 -75 
z
" transform="scale(0.015625)"/>
      <path id="SimHei-20" transform="scale(0.015625)"/>
      <path id="SimHei-57" d="M 3075 4400 
L 2525 75 
L 2025 75 
L 1575 3275 
L 1525 3275 
L 1075 75 
L 575 75 
L 25 4400 
L 575 4400 
L 850 1675 
L 900 1675 
L 1275 4400 
L 1825 4400 
L 2200 1675 
L 2250 1675 
L 2525 4400 
L 3075 4400 
z
" transform="scale(0.015625)"/>
      <path id="SimHei-65" d="M 2850 1075 
Q 2800 625 2450 350 
Q 2100 75 1625 75 
Q 1025 75 637 462 
Q 250 850 250 1525 
Q 250 2200 637 2587 
Q 1025 2975 1625 2975 
Q 2150 2975 2487 2637 
Q 2825 2300 2825 1525 
L 800 1525 
Q 800 975 1037 750 
Q 1275 525 1625 525 
Q 1900 525 2075 662 
Q 2250 800 2300 1075 
L 2850 1075 
z
M 2250 1925 
Q 2200 2275 2025 2412 
Q 1850 2550 1575 2550 
Q 1325 2550 1125 2412 
Q 925 2275 825 1925 
L 2250 1925 
z
" transform="scale(0.015625)"/>
      <path id="SimHei-72" d="M 2500 2425 
Q 2025 2500 1700 2287 
Q 1375 2075 1150 1550 
L 1150 125 
L 650 125 
L 650 2925 
L 1150 2925 
L 1150 2200 
Q 1375 2600 1712 2787 
Q 2050 2975 2500 2975 
L 2500 2425 
z
" transform="scale(0.015625)"/>
      <path id="SimHei-5956" d="M 5075 1575 
Q 5650 1575 6075 1600 
L 6075 1125 
Q 5675 1200 5075 1175 
L 3550 1175 
Q 3975 600 4712 300 
Q 5450 0 6150 -50 
Q 6000 -225 5850 -550 
Q 5350 -450 4975 -325 
Q 4600 -200 4137 87 
Q 3675 375 3250 875 
Q 3025 550 2800 350 
Q 2575 150 2250 -50 
Q 1925 -250 1562 -375 
Q 1200 -500 700 -625 
Q 600 -375 400 -125 
Q 875 -75 1262 37 
Q 1650 150 1962 312 
Q 2275 475 2500 687 
Q 2725 900 2850 1175 
L 1325 1175 
Q 825 1175 350 1150 
L 350 1600 
Q 825 1575 1325 1575 
L 2950 1575 
Q 2975 1750 2975 1950 
Q 3475 1875 3550 1875 
Q 3475 1725 3450 1575 
L 5075 1575 
z
M 4325 5000 
Q 4125 4800 3925 4500 
L 5900 4500 
Q 5675 3950 5462 3587 
Q 5250 3225 4987 2937 
Q 4725 2650 4287 2400 
Q 3850 2150 3050 1975 
Q 2925 2200 2750 2425 
Q 3500 2450 4100 2800 
L 3425 3250 
Q 3575 3425 3700 3600 
Q 3950 3450 4100 3337 
Q 4250 3225 4475 3075 
Q 4900 3450 5175 4100 
L 3675 4100 
Q 3550 3950 3375 3750 
Q 3200 3550 2900 3200 
Q 2700 3375 2475 3475 
Q 2850 3800 3187 4250 
Q 3525 4700 3750 5225 
Q 4075 5075 4325 5000 
z
M 2450 5175 
Q 2425 4875 2425 4475 
L 2425 2875 
Q 2425 2500 2450 1975 
L 1925 1975 
Q 1950 2500 1950 2875 
L 1950 3050 
Q 1225 2575 750 2275 
Q 575 2550 400 2700 
Q 825 2825 1950 3525 
L 1950 4475 
Q 1950 4850 1925 5175 
L 2450 5175 
z
M 1000 4700 
Q 1475 4325 1800 4025 
L 1425 3650 
Q 1100 4000 675 4350 
Q 850 4500 1000 4700 
z
" transform="scale(0.015625)"/>
      <path id="SimHei-9879" d="M 5200 4800 
Q 5600 4800 6000 4825 
L 6000 4400 
Q 5600 4425 5200 4425 
L 4400 4425 
Q 4325 4025 4225 3625 
L 5600 3625 
Q 5575 3250 5575 2800 
L 5575 1550 
Q 5575 1225 5600 750 
L 5125 750 
L 5125 3250 
L 3225 3250 
L 3225 725 
L 2725 725 
Q 2750 1175 2750 1525 
L 2750 2800 
Q 2750 3175 2725 3625 
L 3775 3625 
Q 3850 4050 3875 4425 
L 3250 4425 
Q 2875 4425 2475 4400 
L 2475 4825 
Q 2875 4800 3250 4800 
L 5200 4800 
z
M 2225 1300 
Q 1750 1175 1350 1037 
Q 950 900 450 675 
Q 400 975 250 1225 
Q 650 1300 1025 1400 
L 1025 4175 
Q 700 4175 325 4150 
L 325 4575 
Q 750 4550 1300 4550 
Q 1850 4550 2200 4575 
L 2200 4150 
Q 1925 4175 1500 4175 
L 1500 1550 
Q 1825 1625 2250 1800 
Q 2200 1550 2225 1300 
z
M 4500 2625 
Q 4450 2325 4400 1925 
Q 4350 1525 4212 1025 
Q 4075 525 3575 112 
Q 3075 -300 2250 -675 
Q 2125 -425 1850 -200 
Q 2675 25 3087 300 
Q 3500 575 3687 950 
Q 3875 1325 3900 1762 
Q 3925 2200 3925 2725 
Q 4175 2675 4500 2625 
z
M 4625 950 
Q 5500 275 5975 -175 
Q 5725 -325 5575 -575 
Q 5300 -200 4250 550 
Q 4500 775 4625 950 
z
" transform="scale(0.015625)"/>
      <path id="SimHei-6700" d="M 475 275 
Q 675 300 1100 350 
L 1100 2450 
Q 775 2450 425 2425 
L 425 2850 
Q 775 2825 1125 2825 
L 5025 2825 
Q 5475 2825 5900 2850 
L 5900 2425 
Q 5475 2450 5025 2450 
L 3050 2450 
L 3050 675 
L 3400 775 
Q 3400 550 3425 400 
Q 3225 350 3050 325 
Q 3050 -125 3075 -550 
L 2600 -550 
Q 2625 -125 2625 250 
Q 2350 200 1812 87 
Q 1275 -25 650 -175 
Q 575 100 475 275 
z
M 5100 4925 
Q 5075 4600 5075 4325 
L 5075 3875 
Q 5075 3600 5100 3250 
L 1275 3250 
Q 1300 3600 1300 3875 
L 1300 4325 
Q 1300 4600 1275 4925 
L 5100 4925 
z
M 3300 2050 
Q 3750 2025 4125 2025 
L 5375 2025 
Q 5100 975 4725 400 
Q 5350 0 5925 -100 
Q 5700 -275 5650 -500 
Q 5025 -300 4475 150 
Q 4150 -200 3600 -575 
Q 3500 -425 3250 -275 
Q 3775 -100 4150 350 
Q 3725 775 3500 1675 
L 3300 1675 
L 3300 2050 
z
M 4600 4250 
L 4600 4600 
L 1750 4600 
L 1750 4250 
L 4600 4250 
z
M 4600 3575 
L 4600 3900 
L 1750 3900 
L 1750 3575 
L 4600 3575 
z
M 3900 1675 
Q 4000 1075 4400 625 
Q 4700 1050 4850 1675 
L 3900 1675 
z
M 2625 1250 
L 2625 1675 
L 1525 1675 
L 1525 1250 
L 2625 1250 
z
M 2625 575 
L 2625 925 
L 1525 925 
L 1525 425 
L 2625 575 
z
M 2625 2025 
L 2625 2450 
L 1525 2450 
L 1525 2025 
L 2625 2025 
z
" transform="scale(0.015625)"/>
      <path id="SimHei-591a" d="M 3800 2950 
Q 4000 2750 4275 2650 
Q 4050 2450 3850 2275 
L 5925 2275 
Q 5625 1525 5137 975 
Q 4650 425 4050 125 
Q 3450 -175 2725 -375 
Q 2000 -575 950 -675 
Q 850 -400 650 -150 
Q 1275 -175 2137 -25 
Q 3000 125 3700 450 
Q 3250 900 2950 1175 
Q 3150 1325 3300 1500 
Q 3650 1150 4100 675 
Q 4425 875 4712 1187 
Q 5000 1500 5200 1900 
L 3475 1900 
Q 3225 1700 2775 1412 
Q 2325 1125 1525 775 
Q 1400 1025 1200 1175 
Q 2025 1425 2762 1950 
Q 3500 2475 3800 2950 
z
M 900 1850 
Q 800 2100 575 2325 
Q 1050 2350 1725 2525 
Q 2400 2700 2775 2900 
Q 2475 3300 2100 3600 
Q 2300 3750 2425 3925 
Q 2900 3475 3200 3125 
Q 3575 3350 3875 3612 
Q 4175 3875 4400 4175 
L 2250 4175 
Q 1725 3725 1025 3275 
Q 875 3500 650 3625 
Q 1325 3925 1875 4400 
Q 2425 4875 2600 5225 
Q 2800 5075 3025 4925 
Q 2900 4825 2625 4550 
L 5225 4550 
Q 4500 3500 3800 3025 
Q 3100 2550 2437 2312 
Q 1775 2075 900 1850 
z
" transform="scale(0.015625)"/>
      <path id="SimHei-524d" d="M 2075 -100 
Q 2400 -100 2537 -87 
Q 2675 -75 2675 100 
L 2675 875 
L 1325 875 
L 1325 -650 
L 800 -650 
Q 850 -200 850 350 
L 850 2350 
Q 850 2850 825 3300 
L 3175 3300 
Q 3150 2875 3150 2375 
L 3150 -150 
Q 3150 -400 2950 -475 
Q 2750 -550 2275 -625 
Q 2200 -350 2075 -100 
z
M 4950 5075 
Q 4825 4975 4687 4750 
Q 4550 4525 4375 4225 
L 5400 4225 
Q 5750 4225 6175 4250 
L 6175 3775 
Q 5775 3825 5300 3825 
L 1350 3825 
Q 700 3825 250 3775 
L 250 4250 
Q 775 4225 1350 4225 
L 3875 4225 
Q 4300 5025 4350 5300 
Q 4625 5150 4950 5075 
z
M 4375 -75 
Q 4825 -100 4937 -75 
Q 5050 -50 5050 150 
L 5050 2750 
Q 5050 3050 5025 3400 
L 5550 3400 
Q 5525 3075 5525 2750 
L 5525 -25 
Q 5525 -350 5362 -450 
Q 5200 -550 4600 -600 
Q 4550 -275 4375 -75 
z
M 3775 575 
Q 3800 950 3800 1225 
L 3800 2375 
Q 3800 2775 3775 3075 
L 4300 3075 
Q 4275 2775 4275 2375 
L 4275 1250 
Q 4275 875 4300 575 
L 3775 575 
z
M 2675 2250 
L 2675 2925 
L 1325 2925 
L 1325 2250 
L 2675 2250 
z
M 2675 1250 
L 2675 1875 
L 1325 1875 
L 1325 1250 
L 2675 1250 
z
M 2225 4300 
Q 2125 4575 1750 5050 
Q 2025 5175 2200 5300 
Q 2550 4850 2725 4550 
Q 2500 4450 2225 4300 
z
" transform="scale(0.015625)"/>
      <path id="SimHei-5341" d="M 2925 2875 
L 2925 4275 
Q 2925 4750 2900 5125 
L 3500 5125 
Q 3475 4750 3475 4300 
L 3475 2875 
L 5150 2875 
Q 5550 2875 6100 2900 
L 6100 2400 
Q 5575 2425 5150 2425 
L 3475 2425 
L 3475 675 
Q 3475 175 3500 -500 
L 2900 -500 
Q 2925 175 2925 700 
L 2925 2425 
L 1275 2425 
Q 875 2425 325 2400 
L 325 2900 
Q 875 2875 1300 2875 
L 2925 2875 
z
" transform="scale(0.015625)"/>
      <path id="SimHei-4e94" d="M 4975 4600 
Q 5325 4600 5650 4625 
L 5650 4175 
Q 5325 4200 5000 4200 
L 3150 4200 
L 3000 2875 
L 4950 2875 
Q 4900 2575 4900 2125 
L 4850 300 
Q 5650 300 6000 325 
L 6000 -200 
Q 5650 -175 4975 -175 
L 1375 -175 
Q 775 -175 425 -225 
L 425 325 
Q 800 300 1325 300 
L 2150 300 
L 2450 2475 
L 1850 2475 
Q 1400 2475 1125 2450 
L 1125 2900 
Q 1425 2875 1850 2875 
L 2525 2875 
L 2675 4200 
L 1550 4200 
Q 1150 4200 800 4175 
L 800 4625 
Q 1125 4600 1550 4600 
L 4975 4600 
z
M 4350 300 
L 4425 2475 
L 2950 2475 
L 2650 300 
L 4350 300 
z
" transform="scale(0.015625)"/>
     </defs>
     <use xlink:href="#SimHei-83b7"/>
     <use xlink:href="#SimHei-5f97" x="100"/>
     <use xlink:href="#SimHei-4f" x="200"/>
     <use xlink:href="#SimHei-75" x="250"/>
     <use xlink:href="#SimHei-74" x="300"/>
     <use xlink:href="#SimHei-73" x="350"/>
     <use xlink:href="#SimHei-74" x="400"/>
     <use xlink:href="#SimHei-61" x="450"/>
     <use xlink:href="#SimHei-6e" x="500"/>
     <use xlink:href="#SimHei-64" x="550"/>
     <use xlink:href="#SimHei-69" x="600"/>
     <use xlink:href="#SimHei-6e" x="650"/>
     <use xlink:href="#SimHei-67" x="700"/>
     <use xlink:href="#SimHei-20" x="750"/>
     <use xlink:href="#SimHei-57" x="800"/>
     <use xlink:href="#SimHei-69" x="850"/>
     <use xlink:href="#SimHei-6e" x="900"/>
     <use xlink:href="#SimHei-6e" x="950"/>
     <use xlink:href="#SimHei-65" x="1000"/>
     <use xlink:href="#SimHei-72" x="1050"/>
     <use xlink:href="#SimHei-5956" x="1100"/>
     <use xlink:href="#SimHei-9879" x="1200"/>
     <use xlink:href="#SimHei-6700" x="1300"/>
     <use xlink:href="#SimHei-591a" x="1400"/>
     <use xlink:href="#SimHei-524d" x="1500"/>
     <use xlink:href="#SimHei-5341" x="1600"/>
     <use xlink:href="#SimHei-4e94" x="1700"/>
     <use xlink:href="#SimHei-540d" x="1800"/>
     <use xlink:href="#SimHei-5b66" x="1900"/>
     <use xlink:href="#SimHei-6821" x="2000"/>
     <use xlink:href="#SimHei-540d" x="2100"/>
     <use xlink:href="#SimHei-79f0" x="2200"/>
    </g>
   </g>
  </g>
 </g>
 <defs>
  <clipPath id="pb0d64fa120">
   <rect x="360.419844" y="25.621875" width="446.4" height="332.64"/>
  </clipPath>
 </defs>
</svg>
